<?xml version="1.0" standalone="no"?>
<!DOCTYPE svg PUBLIC "-//W3C//DTD SVG 1.1//EN" "http://www.w3.org/Graphics/SVG/1.1/DTD/svg11.dtd">
<svg xmlns="http://www.w3.org/2000/svg">
<defs >
<font id="Livvic" horiz-adv-x="565" ><font-face
    font-family="Livvic Medium"
    units-per-em="1000"
    panose-1="0 0 0 0 0 0 0 0 0 0"
    ascent="1005"
    descent="-250"
    alphabetic="0" />
<glyph unicode=" " glyph-name="space" horiz-adv-x="235" />
<glyph unicode="!" glyph-name="exclam" horiz-adv-x="213" d="M63 191L146 740H254L128 191H63ZM72 -9Q44 -9 26 8T8 54Q8 81 26 99T72 117Q100 117 118 99T136 54Q136 27 118 9T72 -9Z" />
<glyph unicode="&quot;" glyph-name="quotedbl" horiz-adv-x="387" d="M117 438L146 710H248L181 438H117ZM271 438L300 710H402L335 438H271Z" />
<glyph unicode="#" glyph-name="numbersign" horiz-adv-x="600" d="M30 0L106 198H8L39 276H136L196 433H99L129 511H226L303 710H389L313 511H444L521 710H607L531 511H630L599 433H501L441 276H539L508 198H411L335 0H248L324 198H193L117 0H30ZM223 276H354L414
433H283L223 276Z" />
<glyph unicode="$" glyph-name="dollar" horiz-adv-x="600" d="M199 -120L220 -5Q131 7 84 62T43 211L139 224Q137 149 171 114T285 79Q350 79 394 111T438 202Q438 237 415 256T357 287T281 311T205 342T146 396T123 489Q123 551 152 600T232 680T347 718L367
830H436L416 718Q493 708 536 659T578 528L486 513Q484 633 374 633Q310 633 269 597T227 500Q227 461 249 440T308 405T384 381T460 352T518 302T541 214Q541 150 508 101T417 24T288 -8L268 -120H199Z" />
<glyph unicode="%" glyph-name="percent" horiz-adv-x="760" d="M256 410Q185 410 141 450T97 556Q97 604 119 641T179 699T268 720Q339 720 382 680T425 574Q425 527 403 490T343 432T256 410ZM64 0L643 710H733L154 0H64ZM258 472Q300 472 327 500T355 572Q355
611 331 634T267 658Q224 658 197 630T169 557Q169 518 193 495T258 472ZM531 -7Q460 -7 416 33T372 139Q372 187 394 224T454 282T543 303Q614 303 657 263T700 157Q700 110 678 73T618 15T531 -7ZM533 55Q575 55 602 83T629 155Q629 194 606 217T542 241Q498
241 471 213T443 140Q443 101 467 78T533 55Z" />
<glyph unicode="&amp;" glyph-name="ampersand" horiz-adv-x="795" d="M278 -8Q168 -8 106 42T44 173Q44 236 67 278T129 351T210 404Q185 436 173 466T160 532Q160 591 186 634T258 700T361 723Q429 723 469 688T509 592Q509 536 485 499T421 438T337 392L507
171Q534 203 555 244T590 338H488L502 417H781L767 338H671Q654 269 624 213T553 114Q575 92 597 83T648 73Q682 73 711 92L727 24Q706 7 681 0T624 -7Q541 -7 482 54Q389 -8 278 -8ZM252 545Q252 520 262 498T296 445Q331 463 361 482T408 525T426 584Q426 618
408 634T355 651Q309 651 281 621T252 545ZM144 189Q144 133 184 103T294 72Q372 72 436 111L252 349Q207 323 176 286T144 189Z" />
<glyph unicode="&apos;" glyph-name="quotesingle" horiz-adv-x="233" d="M117 438L146 710H248L181 438H117Z" />
<glyph unicode="(" glyph-name="parenleft" horiz-adv-x="309" d="M210 -211Q132 -139 95 -46T57 155Q57 277 94 387T202 589T375 749L410 697Q328 636 271 547T185 353T156 144Q156 46 182 -33T256 -166L210 -211Z" />
<glyph unicode=")" glyph-name="parenright" horiz-adv-x="309" d="M-60 -211L-94 -160Q-12 -99 44 -10T130 184T160 394Q160 491 134 570T60 704L106 749Q184 677 221 584T259 382Q259 261 222 151T113 -52T-60 -211Z" />
<glyph unicode="*" glyph-name="asterisk" horiz-adv-x="465" d="M439 507Q458 496 464 480T460 447Q451 430 434 427T397 435Q377 446 359 465T306 512Q312 467 319 443T327 394Q327 372 316 359T285 346Q267 346 256 359T244 395Q244 418 251 442T265 512Q229
484 211 465T174 435Q154 424 137 427T111 447Q101 463 107 479T132 507Q152 518 177 524T245 547Q203 564 178 570T132 588Q113 599 107 615T111 648Q120 664 137 667T174 660Q193 649 211 630T265 582Q259 627 252 652T244 700Q244 722 255 735T285 749Q304 749
315 736T327 700Q327 677 320 652T306 582Q341 610 359 629T397 660Q417 671 434 668T460 648Q480 612 439 588Q419 577 394 571T326 547Q368 530 393 524T439 507Z" />
<glyph unicode="+" glyph-name="plus" horiz-adv-x="600" d="M210 0L247 207H45L60 294H262L299 501H390L353 294H555L540 207H338L301 0H210Z" />
<glyph unicode="," glyph-name="comma" horiz-adv-x="205" d="M-31 -131Q-13 -102 -1 -71T11 -16Q11 2 7 17T3 50Q3 85 23 105T77 126Q104 126 119 112T135 66Q135 41 118 6T75 -67T18 -131H-31Z" />
<glyph unicode="-" glyph-name="hyphen" horiz-adv-x="405" d="M53 212L68 298H354L339 212H53Z" />
<glyph unicode="." glyph-name="period" horiz-adv-x="205" d="M69 -9Q38 -9 20 10T1 59Q1 87 19 106T69 126Q100 126 118 107T137 59Q137 30 119 11T69 -9Z" />
<glyph unicode="/" glyph-name="slash" horiz-adv-x="335" d="M-79 -200L333 740H428L16 -200H-79Z" />
<glyph unicode="0" glyph-name="zero" horiz-adv-x="600" d="M261 -9Q164 -9 110 49T55 230Q55 320 76 407T140 564T243 677T385 720Q477 720 529 659T581 477Q581 390 561 304T499 147T398 34T261 -9ZM270 80Q313 80 347 105T408 171T451 265T476 371T485 475Q485
552 457 592T375 633Q331 633 296 608T234 542T189 449T162 342T152 237Q152 157 182 119T270 80Z" />
<glyph unicode="1" glyph-name="one" horiz-adv-x="600" d="M73 0L87 80H246L333 570L188 482L149 557L401 710H456L345 80H497L483 0H73Z" />
<glyph unicode="2" glyph-name="two" horiz-adv-x="600" d="M45 0L56 66Q133 120 206 179T337 298T430 419T465 536Q465 581 438 606T361 632Q246 632 183 505L111 542Q148 623 217 671T376 720Q459 720 512 677T565 551Q565 487 535 424T452 301T331 186T189
80H504L490 0H45Z" />
<glyph unicode="3" glyph-name="three" horiz-adv-x="600" d="M232 -9Q173 -9 120 4T31 41L73 126Q105 105 147 93T242 80Q326 80 374 117T422 219Q422 268 387 294T291 320H249L263 401H294Q371 401 418 438T466 544Q466 585 439 608T364 632Q303 632 259 600T183
505L111 542Q148 624 217 672T379 720Q465 720 516 677T567 561Q567 493 527 440T424 363Q471 346 496 311T521 225Q521 151 482 99T378 19T232 -9Z" />
<glyph unicode="4" glyph-name="four" horiz-adv-x="600" d="M326 0L360 197H36L47 265L479 712H547L470 277H570L556 197H456L421 0H326ZM159 277H374L423 551L159 277Z" />
<glyph unicode="5" glyph-name="five" horiz-adv-x="600" d="M233 -9Q174 -9 121 4T31 41L74 128Q104 106 146 93T242 80Q326 80 375 120T425 236Q425 290 380 318T234 350L131 353L219 710H575L562 630H296L247 433L265 432Q392 428 458 380T524 241Q524 163
486 107T383 21T233 -9Z" />
<glyph unicode="6" glyph-name="six" horiz-adv-x="600" d="M290 -9Q186 -9 130 52T73 233Q73 283 84 345Q116 523 205 621T426 720Q504 720 554 681T620 563L535 528Q524 583 495 607T414 632Q333 632 273 564T184 354Q220 400 269 423T377 447Q457 447 509 401T561
268Q561 191 525 128T428 28T290 -9ZM294 73Q345 73 382 98T441 164T462 257Q462 307 433 336T350 365Q299 365 260 342T197 278T174 188Q174 135 205 104T294 73Z" />
<glyph unicode="7" glyph-name="seven" horiz-adv-x="600" d="M184 0H75L492 630H145L160 710H615L602 635L184 0Z" />
<glyph unicode="8" glyph-name="eight" horiz-adv-x="600" d="M264 -9Q159 -9 98 37T37 164Q37 237 83 289T196 363Q156 382 135 418T113 500Q113 565 148 614T243 692T373 720Q435 720 482 699T557 639T584 548Q584 480 545 432T440 361Q488 342 514 302T541
212Q541 143 504 94T404 18T264 -9ZM326 398Q395 398 440 436T485 539Q485 585 453 611T365 638Q296 638 253 599T210 495Q210 448 241 423T326 398ZM268 73Q343 73 393 110T444 215Q444 262 408 291T311 320Q264 320 224 302T160 251T136 174Q136 128 170 101T268
73Z" />
<glyph unicode="9" glyph-name="nine" horiz-adv-x="600" d="M347 721Q451 721 507 660T564 479Q564 429 553 367Q521 189 432 91T211 -8Q133 -8 83 31T17 149L102 184Q113 129 142 105T223 80Q304 80 364 148T453 358Q417 312 368 289T260 265Q180 265 128 311T76
444Q76 521 112 584T209 684T347 721ZM343 639Q292 639 255 614T196 548T175 455Q175 405 204 376T287 347Q338 347 377 370T440 434T463 524Q463 577 432 608T343 639Z" />
<glyph unicode=":" glyph-name="colon" horiz-adv-x="205" d="M69 -9Q38 -9 20 10T1 59Q1 87 19 106T69 126Q100 126 118 107T137 59Q137 30 119 11T69 -9ZM136 374Q105 374 87 393T68 442Q68 470 86 489T136 509Q167 509 185 490T204 442Q204 413 186 394T136 374Z" />
<glyph unicode=";" glyph-name="semicolon" horiz-adv-x="205" d="M-31 -131Q-13 -102 -1 -71T11 -16Q11 2 7 17T3 50Q3 85 23 105T77 126Q104 126 119 112T135 66Q135 41 118 6T75 -67T18 -131H-31ZM136 374Q105 374 87 393T68 442Q68 470 86 489T136 509Q167
509 185 490T204 442Q204 413 186 394T136 374Z" />
<glyph unicode="&lt;" glyph-name="less" horiz-adv-x="600" d="M66 286L584 505L568 410L175 246L510 82L495 -5L54 214L66 286Z" />
<glyph unicode="=" glyph-name="equal" horiz-adv-x="600" d="M64 316L79 396H573L559 316H64ZM27 106L41 186H536L521 106H27Z" />
<glyph unicode="&gt;" glyph-name="greater" horiz-adv-x="600" d="M534 214L16 -5L32 90L425 254L90 418L105 505L546 286L534 214Z" />
<glyph unicode="?" glyph-name="question" horiz-adv-x="511" d="M236 188L164 192Q173 262 202 311T296 409Q339 441 363 464T397 509T407 555Q407 593 381 612T308 632Q190 632 128 505L56 544Q92 625 165 672T326 720Q406 720 456 681T507 571Q507 523 488
486T435 416T355 349Q302 309 275 274T236 188ZM183 -9Q155 -9 137 8T118 53Q118 81 136 99T183 117Q211 117 229 99T247 54Q247 27 229 9T183 -9Z" />
<glyph unicode="@" glyph-name="at" horiz-adv-x="979" d="M437 -212Q318 -212 231 -170T95 -45T46 157Q46 276 84 379T193 560T361 681T576 725Q692 725 774 685T899 569T943 390Q943 328 929 265T886 148T819 63T728 31Q673 31 643 59T608 135Q576 87 530 59T430
31Q354 31 312 77T269 204Q269 268 290 323T348 420T435 485T542 509Q581 509 617 497T674 466L688 500L748 493L694 199Q686 155 698 131T741 107Q770 107 793 135T831 206T855 297T863 383Q863 507 788 577T574 647Q475 647 394 609T254 504T164 348T133 159Q133
16 214 -59T444 -134Q515 -134 584 -112T700 -51L738 -116Q679 -163 601 -187T437 -212ZM449 111Q510 111 558 160T623 292L643 396Q608 430 543 430Q494 430 453 400T387 320T362 209Q362 111 449 111Z" />
<glyph unicode="A" glyph-name="A" horiz-adv-x="680" d="M-42 0L383 710H469L630 0H531L494 177H169L65 0H-42ZM219 263H476L407 586L219 263Z" />
<glyph unicode="B" glyph-name="B" horiz-adv-x="621" d="M33 0L158 710H367Q620 710 620 550Q620 482 582 432T482 359Q525 342 548 306T571 225Q571 155 535 105T438 27T301 0H33ZM356 627H243L203 399H334Q418 399 468 431T518 536Q518 584 479 605T356 627ZM148
83H311Q386 83 428 118T471 222Q471 315 334 315H189L148 83Z" />
<glyph unicode="C" glyph-name="C" horiz-adv-x="657" d="M638 137Q588 66 513 29T350 -9Q213 -9 137 63T61 264Q61 356 92 438T178 583T309 683T475 720Q561 720 623 686T713 583L628 527Q588 628 465 628Q398 628 343 599T248 520T187 406T165 271Q165 181 214
133T358 84Q420 84 475 111T572 196L638 137Z" />
<glyph unicode="D" glyph-name="D" horiz-adv-x="739" d="M33 0L158 710H351Q526 710 619 639T713 428Q713 299 658 203T504 53T277 0H33ZM151 90H284Q386 90 459 130T570 245T609 421Q609 521 545 570T348 620H244L151 90Z" />
<glyph unicode="E" glyph-name="E" horiz-adv-x="552" d="M149 87H495L471 0H33L158 710H592L576 623H243L204 403H525L510 316H189L149 87Z" />
<glyph unicode="F" glyph-name="F" horiz-adv-x="498" d="M133 0H33L158 710H571L555 623H242L202 393H502L487 306H187L133 0Z" />
<glyph unicode="G" glyph-name="G" horiz-adv-x="739" d="M435 356H698L635 0H556L560 73Q518 32 469 12T350 -9Q213 -9 137 63T61 264Q61 356 92 438T179 583T313 683T485 720Q571 720 637 686T732 583L645 525Q625 575 581 601T474 628Q404 628 347 599T249
520T187 406T165 271Q165 181 214 133T358 84Q447 84 508 128T583 252L586 273H420L435 356Z" />
<glyph unicode="H" glyph-name="H" horiz-adv-x="729" d="M33 0L158 710H260L206 404H576L630 710H732L607 0H505L561 315H191L135 0H33Z" />
<glyph unicode="I" glyph-name="I" horiz-adv-x="257" d="M33 0L158 710H260L135 0H33Z" />
<glyph unicode="J" glyph-name="J" horiz-adv-x="463" d="M143 -9Q67 -9 18 29T-41 133L49 170Q57 124 83 103T156 81Q206 81 236 112T278 209L366 710H468L381 216Q361 106 304 49T143 -9Z" />
<glyph unicode="K" glyph-name="K" horiz-adv-x="593" d="M33 0L158 710H260L203 388L571 710H698L291 355Q326 335 348 290L418 145Q436 107 454 95T502 82Q538 82 564 98L576 22Q556 6 530 0T476 -7Q427 -7 393 14T335 86L246 264Q238 282 225 293T190 309L135 0H33Z" />
<glyph unicode="L" glyph-name="L" horiz-adv-x="498" d="M33 0L158 710H260L151 88H476L452 0H33Z" />
<glyph unicode="M" glyph-name="M" horiz-adv-x="923" d="M28 0L183 710H276L437 126L814 710H907L805 0H708L779 499L456 0H375L234 512L122 0H28Z" />
<glyph unicode="N" glyph-name="N" horiz-adv-x="726" d="M632 710H730L605 0H516L227 549L131 0H33L158 710H247L536 161L632 710Z" />
<glyph unicode="O" glyph-name="O" horiz-adv-x="773" d="M346 -9Q212 -9 137 63T61 264Q61 356 91 438T177 583T308 683T474 720Q558 720 619 686T714 589T747 441Q747 351 718 270T634 126T507 27T346 -9ZM353 84Q419 84 472 112T564 191T623 304T644 437Q644
527 598 577T466 628Q398 628 343 599T248 520T187 406T165 271Q165 181 213 133T353 84Z" />
<glyph unicode="P" glyph-name="P" horiz-adv-x="610" d="M133 0H33L158 710H389Q503 710 568 666T634 532Q634 445 593 389T477 305T306 277H181L133 0ZM374 627H243L196 361H319Q420 361 477 398T534 523Q534 577 493 602T374 627Z" />
<glyph unicode="Q" glyph-name="Q" horiz-adv-x="773" d="M444 -209Q352 -209 307 -153T278 -6L279 -3Q175 14 118 83T61 264Q61 356 91 438T177 583T308 683T474 720Q558 720 619 686T714 589T747 441Q747 355 720 277T643 137T526 37T377 -7L376 -10Q365 -72
385 -99T452 -127Q487 -127 512 -109T546 -61L625 -71Q605 -138 559 -173T444 -209ZM353 84Q419 84 472 112T564 191T623 304T644 437Q644 527 598 577T466 628Q398 628 343 599T248 520T187 406T165 271Q165 181 213 133T353 84Z" />
<glyph unicode="R" glyph-name="R" horiz-adv-x="603" d="M581 98L594 20Q575 7 550 0T496 -7Q400 -7 354 86L266 264Q255 286 239 297T203 309H187L133 0H33L158 710H356Q474 710 534 667T594 541Q594 471 561 421T469 342T337 311Q361 297 381 257L437 145Q456
107 475 95T521 82Q554 82 581 98ZM341 627H243L201 389H299Q389 389 440 420T492 528Q492 627 341 627Z" />
<glyph unicode="S" glyph-name="S" horiz-adv-x="575" d="M259 -8Q139 -8 76 48T17 211L114 224Q114 149 151 114T271 79Q347 79 389 111T431 202Q431 232 414 250T368 280T305 301T237 322T175 354T129 406T111 489Q111 557 145 609T240 690T376 720Q477 720
532 669T585 528L493 513Q490 633 372 633Q299 633 257 597T215 500Q215 466 232 446T277 414T340 392T409 370T471 340T517 292T534 214Q534 147 499 97T402 20T259 -8Z" />
<glyph unicode="T" glyph-name="T" horiz-adv-x="559" d="M646 710L620 622H395L285 0H184L294 622H63L79 710H646Z" />
<glyph unicode="U" glyph-name="U" horiz-adv-x="732" d="M637 710H737L673 336Q643 159 561 75T334 -9Q188 -9 123 72T84 302L156 710H259L188 309Q148 84 340 84Q441 84 495 143T573 340L637 710Z" />
<glyph unicode="V" glyph-name="V" horiz-adv-x="605" d="M599 710H706L317 0H178L86 710H187L263 82L599 710Z" />
<glyph unicode="W" glyph-name="W" horiz-adv-x="957" d="M925 710H1028L696 0H580L542 574L275 0H158L108 710H204L240 128L510 710H623L660 128L925 710Z" />
<glyph unicode="X" glyph-name="X" horiz-adv-x="594" d="M-48 0L262 365L94 710H204L331 446L552 710H665L372 362L549 0H438L303 279L70 0H-48Z" />
<glyph unicode="Y" glyph-name="Y" horiz-adv-x="566" d="M668 710L346 319L289 0H187L244 320L57 710H166L309 409L556 710H668Z" />
<glyph unicode="Z" glyph-name="Z" horiz-adv-x="609" d="M-5 0L8 73L504 622H121L137 710H658L645 637L149 88H560L536 0H-5Z" />
<glyph unicode="[" glyph-name="bracketleft" horiz-adv-x="283" d="M-2 -200L164 740H357L344 667H245L105 -127H204L191 -200H-2Z" />
<glyph unicode="\" glyph-name="backslash" horiz-adv-x="335" d="M255 -200H167L80 740H168L255 -200Z" />
<glyph unicode="]" glyph-name="bracketright" horiz-adv-x="283" d="M-67 -200L-54 -127H46L186 667H86L99 740H292L126 -200H-67Z" />
<glyph unicode="^" glyph-name="asciicircum" horiz-adv-x="600" d="M382 593L517 114H433L332 480L103 114H8L310 593H382Z" />
<glyph unicode="_" glyph-name="underscore" horiz-adv-x="488" d="M-30 -80L-16 0H415L401 -80H-30Z" />
<glyph unicode="`" glyph-name="grave" horiz-adv-x="642" d="M299 573L195 723L304 750L389 573H299Z" />
<glyph unicode="a" glyph-name="a" horiz-adv-x="588" d="M213 -9Q132 -9 86 39T40 174Q40 244 62 305T126 412T221 483T340 509Q382 509 420 496T481 461L498 500H567Q557 452 548 409T531 323L504 170Q496 122 491 75T486 0H392Q392 29 395 59T406 118Q370 53
321 22T213 -9ZM235 78Q283 78 323 105T392 183T432 300L447 386Q409 424 341 424Q277 424 232 390T163 302T139 185Q139 133 164 106T235 78Z" />
<glyph unicode="b" glyph-name="b" horiz-adv-x="588" d="M249 -9Q207 -9 169 4T109 39L92 0H22Q32 49 41 92T57 178L158 746H253L210 501L187 389Q223 451 270 480T376 509Q457 509 503 462T549 327Q549 257 527 196T463 89T368 17T249 -9ZM248 76Q312 76 357
110T426 199T450 316Q450 368 425 395T354 423Q306 423 266 395T197 317T157 201L142 114Q180 76 248 76Z" />
<glyph unicode="c" glyph-name="c" horiz-adv-x="490" d="M248 -9Q152 -9 97 43T42 185Q42 247 62 305T120 409T212 482T335 509Q400 509 442 485T510 410L433 357Q406 423 329 423Q270 423 228 391T162 307T139 195Q139 139 170 108T262 78Q300 78 334 94T396
145L456 89Q417 40 364 16T248 -9Z" />
<glyph unicode="d" glyph-name="d" horiz-adv-x="588" d="M213 -9Q132 -9 86 39T40 174Q40 244 62 305T126 412T221 483T340 509Q375 509 407 500T463 475L467 501L510 740H605L504 170Q496 122 491 75T486 0H392Q392 29 395 59T406 118Q370 53 321 22T213 -9ZM235
78Q283 78 323 105T392 183T432 300L447 386Q409 424 341 424Q277 424 232 390T163 302T139 185Q139 133 164 106T235 78Z" />
<glyph unicode="e" glyph-name="e" horiz-adv-x="539" d="M264 -9Q165 -9 104 44T43 196Q43 281 79 352T180 466T335 509Q419 509 464 470T509 370Q509 308 467 264T326 215L139 205Q137 143 173 110T277 77Q315 77 354 93T421 141L469 82Q431 35 379 13T264 -9ZM327
435Q278 435 242 414T182 358T149 279L319 289Q377 291 400 312T423 366Q423 396 400 415T327 435Z" />
<glyph unicode="f" glyph-name="f" horiz-adv-x="348" d="M49 0L124 420H25L39 501H138L146 546Q164 645 224 697T371 750Q442 750 480 715T517 613L433 603Q434 635 416 652T362 669Q314 669 283 639T240 547L232 501H393L378 420H219L145 0H49Z" />
<glyph unicode="g" glyph-name="g" horiz-adv-x="592" d="M183 -210Q135 -210 89 -201T13 -173L45 -89Q109 -124 191 -124Q279 -124 327 -81T396 63L408 125Q372 62 324 33T217 4Q137 4 89 49T41 180Q41 249 64 309T128 414T224 484T343 509Q386 509 424 496T486
462L503 500H572Q561 452 552 409T536 323L493 77Q467 -72 393 -141T183 -210ZM237 89Q285 89 326 116T396 191T437 304L451 388Q413 424 344 424Q280 424 235 391T165 305T140 193Q140 142 165 116T237 89Z" />
<glyph unicode="h" glyph-name="h" horiz-adv-x="585" d="M26 0L156 740H252L209 501L174 342Q214 423 271 466T399 509Q478 509 515 456T530 297L495 134Q488 100 485 67T482 0H385Q385 64 398 126L433 289Q448 358 430 389T365 420Q316 420 271 382T187 252T121 0H26Z" />
<glyph unicode="i" glyph-name="i" horiz-adv-x="236" d="M35 0Q35 31 39 63T48 126L84 328Q92 375 98 417T107 501H204Q201 458 193 410T179 326L144 133Q138 99 135 66T132 0H35ZM185 598Q156 598 139 616T122 660Q122 685 139 703T185 722Q214 722 231 704T248
660Q248 635 231 617T185 598Z" />
<glyph unicode="j" glyph-name="j" horiz-adv-x="250" d="M97 328Q105 375 111 417T120 501H217Q214 458 206 410T192 326L135 5Q118 -94 64 -150T-96 -207Q-127 -207 -154 -203T-200 -188L-169 -108Q-133 -124 -91 -124Q-33 -124 -2 -90T41 7L97 328ZM198 598Q169
598 152 616T135 660Q135 685 152 703T198 722Q227 722 244 704T261 660Q261 635 244 617T198 598Z" />
<glyph unicode="k" glyph-name="k" horiz-adv-x="491" d="M26 0L157 740H252L174 294L414 500H537L253 258Q273 244 286 219L329 133Q346 99 365 87T410 74Q439 74 464 87L479 16Q458 3 436 -2T388 -7Q339 -7 306 13T248 83L205 168Q184 209 161 224L122 0H26Z" />
<glyph unicode="l" glyph-name="l" horiz-adv-x="278" d="M158 -9Q97 -9 68 28T49 127L157 740H252L146 137Q135 76 190 76Q204 76 218 80T241 89L252 18Q236 5 210 -2T158 -9Z" />
<glyph unicode="m" glyph-name="m" horiz-adv-x="926" d="M26 0L84 328Q92 375 98 417T107 501H201Q199 466 192 425T173 340Q212 422 269 465T395 509Q456 509 492 476T530 375Q571 440 625 474T743 509Q819 509 856 456T870 297L835 134Q828 100 825 67T822
0H725Q725 64 738 126L773 289Q788 358 771 389T708 420Q661 420 617 382T535 252T469 0H374L425 289Q437 358 421 389T361 420Q314 420 270 382T187 252T121 0H26Z" />
<glyph unicode="n" glyph-name="n" horiz-adv-x="585" d="M26 0L84 328Q92 375 98 417T107 501H201Q198 466 192 425T173 340Q212 422 270 465T399 509Q478 509 515 456T530 297L495 134Q488 100 485 67T482 0H385Q385 64 398 126L433 289Q448 358 430 389T365
420Q316 420 271 382T187 252T121 0H26Z" />
<glyph unicode="o" glyph-name="o" horiz-adv-x="575" d="M337 509Q426 509 479 459T533 315Q533 246 511 188T449 85T356 16T241 -9Q150 -9 96 42T41 185Q41 245 61 303T118 407T211 481T337 509ZM251 77Q308 77 349 110T412 195T435 307Q435 364 406 394T325
424Q266 424 225 391T161 305T139 195Q139 138 168 108T251 77Z" />
<glyph unicode="p" glyph-name="p" horiz-adv-x="588" d="M375 509Q456 509 502 462T548 327Q548 257 526 196T462 89T367 17T248 -9Q213 -9 181 0T125 26L121 0L86 -200H-10L83 328Q91 375 97 417T106 501H200Q198 468 193 439T182 382Q218 447 267 478T375 509ZM353
423Q305 423 265 395T196 317T156 201L141 114Q179 76 247 76Q311 76 356 110T425 199T449 316Q449 368 424 395T353 423Z" />
<glyph unicode="q" glyph-name="q" horiz-adv-x="588" d="M567 501Q557 452 548 409T532 323L439 -200H344L379 -1L402 112Q366 50 319 21T213 -9Q132 -9 86 39T40 174Q40 244 62 305T126 412T221 483T340 509Q382 509 420 496T480 462L497 501H567ZM235 78Q283
78 323 105T392 183T432 300L447 386Q409 424 341 424Q277 424 232 390T163 302T139 185Q139 133 164 106T235 78Z" />
<glyph unicode="r" glyph-name="r" horiz-adv-x="391" d="M399 409Q381 415 355 415Q298 415 255 373T180 239T121 0H26L84 328Q92 375 98 417T107 501H201Q198 469 191 428T175 345Q217 434 271 471T379 509Q395 509 407 508T429 502L399 409Z" />
<glyph unicode="s" glyph-name="s" horiz-adv-x="461" d="M203 -9Q108 -9 59 29T7 140L91 160Q92 113 119 91T206 68Q256 68 287 88T318 142Q318 165 300 177T254 198T195 214T135 236T89 274T71 340Q71 393 101 430T178 488T279 509Q351 509 395 474T445 380L363
359Q357 432 274 432Q228 432 198 410T167 353Q167 328 185 315T231 292T290 275T350 253T396 216T414 153Q414 102 384 66T305 11T203 -9Z" />
<glyph unicode="t" glyph-name="t" horiz-adv-x="385" d="M230 -9Q142 -9 103 43T78 176L125 420H37L52 501H140L160 605H255L236 501H404L390 420H221L174 173Q165 129 183 103T249 76Q274 76 295 82T341 104L357 29Q331 9 298 0T230 -9Z" />
<glyph unicode="u" glyph-name="u" horiz-adv-x="575" d="M182 -9Q106 -9 71 44T55 204L78 328Q96 421 102 501H198Q195 458 188 410T174 326L151 206Q126 81 221 81Q266 81 309 119T390 249T456 501H549L490 170Q482 122 477 75T472 0H378Q378 63 400 154Q361
75 306 33T182 -9Z" />
<glyph unicode="v" glyph-name="v" horiz-adv-x="506" d="M455 501H555L275 0H140L68 501H166L222 77L455 501Z" />
<glyph unicode="w" glyph-name="w" horiz-adv-x="849" d="M793 501H893L621 0H507L458 374L255 0H141L72 501H168L216 96L433 501H530L579 94L793 501Z" />
<glyph unicode="x" glyph-name="x" horiz-adv-x="488" d="M-42 0L189 259L55 501H163L255 332L403 501H521L298 252L438 0H330L233 179L76 0H-42Z" />
<glyph unicode="y" glyph-name="y" horiz-adv-x="580" d="M170 -210Q127 -210 82 -201T6 -173L35 -89Q99 -124 178 -124Q271 -124 318 -80T385 63L404 151Q360 74 306 39T192 4Q113 4 76 58T56 209L78 328Q87 373 93 416T102 501H198Q195 458 188 410T174 326L153
218Q142 159 158 126T222 93Q271 93 315 131T396 258T461 501H553L478 76Q452 -78 377 -144T170 -210Z" />
<glyph unicode="z" glyph-name="z" horiz-adv-x="456" d="M-9 0L3 69L329 420H76L90 501H466L454 433L128 80H390L376 0H-9Z" />
<glyph unicode="{" glyph-name="braceleft" horiz-adv-x="362" d="M221 -206Q148 -200 106 -165T64 -71Q64 -36 77 -4T108 57T139 114T153 169Q153 199 130 217T54 236L65 306Q130 306 162 334T195 410Q195 444 185 486T175 568Q175 624 203 662T278 722T386 748L390
687Q334 684 304 654T274 570Q274 533 284 498T295 424Q295 360 255 322T151 270Q198 259 223 231T249 164Q249 130 236 102T205 46T174 -10T161 -73Q161 -110 183 -128T240 -149L221 -206Z" />
<glyph unicode="|" glyph-name="bar" horiz-adv-x="270" d="M8 -200L174 740H269L103 -200H8Z" />
<glyph unicode="}" glyph-name="braceright" horiz-adv-x="362" d="M-16 -206L-20 -145Q36 -142 66 -112T96 -28Q96 9 86 44T75 118Q75 182 115 220T219 272Q172 283 147 311T121 378Q121 412 134 440T165 496T195 552T209 615Q209 652 187 670T130 691L149 748Q222
742 264 707T306 613Q306 578 293 546T262 485T231 428T217 373Q217 343 240 325T316 306L305 236Q240 236 207 208T174 132Q174 98 184 56T194 -26Q194 -82 167 -120T92 -180T-16 -206Z" />
<glyph unicode="~" glyph-name="asciitilde" horiz-adv-x="600" d="M397 180Q377 180 349 188T292 207T235 226T188 234Q160 234 138 221T98 183L56 228Q81 272 119 297T203 322Q223 322 251 314T308 295T365 276T412 268Q440 268 462 280T502 319L544 273Q519
229 481 205T397 180Z" />
<glyph unicode="&#xa0;" glyph-name="uni00A0" horiz-adv-x="235" />
<glyph unicode="&#xa1;" glyph-name="exclamdown" horiz-adv-x="213" d="M140 384Q112 384 94 401T76 446Q76 473 94 491T140 509Q169 509 187 491T205 446Q205 420 187 402T140 384ZM-35 -200L85 310H149L73 -200H-35Z" />
<glyph unicode="&#xa2;" glyph-name="cent" horiz-adv-x="600" d="M224 -120L244 -5Q168 6 125 56T81 185Q81 261 111 330T198 448T335 507L355 621H424L404 508Q506 498 550 410L473 357Q446 423 369 423Q310 423 268 391T202 306T179 195Q179 139 210 108T302
78Q340 78 374 94T435 145L495 89Q460 45 414 21T313 -8L293 -120H224Z" />
<glyph unicode="&#xa3;" glyph-name="sterling" horiz-adv-x="600" d="M48 -11L17 53Q84 82 122 130T161 246Q161 263 159 282T154 321H30L42 389H145Q144 402 144 415T143 443Q143 530 176 592T269 687T410 720Q500 720 554 674T616 542L533 511Q525 633 405
633Q321 633 280 585T239 448Q239 432 240 418T243 389H428L416 321H252Q253 309 254 296T255 270Q255 225 240 182T192 108Q209 113 226 113Q255 113 286 104T348 85T404 76Q460 76 496 127L545 83Q518 40 476 15T387 -10Q361 -10 323 0T245 20T170 30Q105 30
48 -11Z" />
<glyph unicode="&#xa4;" glyph-name="currency" horiz-adv-x="600" d="M117 91L66 143L122 200Q100 231 88 269T75 348Q75 390 87 427T122 496L66 553L117 605L171 549Q202 573 239 586T319 599Q359 599 396 586T464 550L519 607L571 555L515 497Q537 466 549
428T562 348Q562 306 549 268T514 199L569 143L517 92L463 147Q433 124 396 111T319 98Q277 98 240 111T173 148L117 91ZM319 177Q364 177 401 200T460 262T482 348Q482 397 460 436T401 498T319 521Q274 521 237 498T178 436T155 348Q155 301 177 262T236 200T319
177Z" />
<glyph unicode="&#xa5;" glyph-name="yen" horiz-adv-x="600" d="M66 152L78 220H245L260 305H93L105 373H249L88 710H196L330 424L561 710H674L395 373H536L524 305H362L347 220H509L497 152H335L308 0H206L233 152H66Z" />
<glyph unicode="&#xa6;" glyph-name="brokenbar" horiz-adv-x="270" d="M110 380L174 740H269L205 380H110ZM8 -200L72 160H167L103 -200H8Z" />
<glyph unicode="&#xa7;" glyph-name="section" horiz-adv-x="507" d="M210 -10Q132 -10 87 25T41 119L124 140Q125 106 149 88T219 69Q266 69 293 89T321 146Q321 170 303 184T257 206T196 224T136 245T89 280T71 338Q71 385 98 417T167 465Q149 480 139 501T128
553Q128 604 156 641T231 699T334 720Q412 720 457 685T503 591L420 570Q419 604 395 622T325 641Q278 641 251 621T223 564Q223 540 241 526T287 504T348 486T408 465T455 430T473 372Q473 325 446 293T377 245Q395 230 405 209T416 157Q416 106 389 69T314 11T210
-10ZM167 361Q167 338 188 325T241 303T308 282Q338 287 357 305T377 349Q377 372 356 385T303 407T236 428Q206 423 187 405T167 361Z" />
<glyph unicode="&#xa8;" glyph-name="dieresis" horiz-adv-x="671" d="M448 568Q420 568 405 585T389 624Q389 646 404 662T448 679Q475 679 490 663T506 624Q506 602 491 585T448 568ZM266 568Q237 568 222 585T206 624Q206 646 221 662T266 679Q292 679 307
663T323 624Q323 602 308 585T266 568Z" />
<glyph unicode="&#xa9;" glyph-name="copyright" horiz-adv-x="816" d="M426 -9Q350 -9 284 18T168 94T91 208T63 349Q63 425 90 490T167 604T283 680T426 707Q503 707 569 680T684 605T760 491T788 349Q788 273 761 208T684 94T569 18T426 -9ZM426 33Q493 33
550 57T650 124T717 225T741 350Q741 417 717 474T650 574T550 641T426 665Q359 665 302 641T202 575T135 475T111 350Q111 283 135 226T202 125T302 57T426 33ZM589 231Q566 191 525 170T431 149Q339 149 288 200T236 342Q236 404 261 450T333 523T440 550Q492
550 528 531T590 472L528 430Q514 457 491 469T439 481Q385 481 352 443T318 344Q318 284 348 251T433 218Q461 218 487 232T530 275L589 231Z" />
<glyph unicode="&#xaa;" glyph-name="ordfeminine" horiz-adv-x="351" d="M347 467H271L281 510Q244 462 189 462Q143 462 116 490T88 569Q88 620 109 661T167 726T251 750Q280 750 299 739T328 710L341 745H395L347 467ZM253 687Q211 687 188 654T164 577Q164
525 210 525Q237 525 257 542T289 586T300 638Q300 661 288 674T253 687Z" />
<glyph unicode="&#xab;" glyph-name="guillemotleft" horiz-adv-x="467" d="M122 70L29 234L36 272L186 436H294L121 247L222 70H122ZM316 70L223 234L230 272L380 436H488L315 247L416 70H316Z" />
<glyph unicode="&#xac;" glyph-name="logicalnot" horiz-adv-x="600" d="M68 294H548L496 0H405L441 207H53L68 294Z" />
<glyph unicode="&#xad;" glyph-name="uni00AD" horiz-adv-x="405" d="M53 212L68 298H354L339 212H53Z" />
<glyph unicode="&#xae;" glyph-name="registered" horiz-adv-x="816" d="M426 -9Q349 -9 283 18T168 94T91 208T63 349Q63 425 90 490T167 604T283 680T426 707Q503 707 569 680T684 604T760 490T788 349Q788 273 761 208T684 94T569 18T426 -9ZM426 33Q493 33
550 57T650 124T717 225T741 350Q741 417 717 474T651 574T551 641T426 665Q359 665 302 641T202 575T135 475T111 350Q111 283 135 226T202 125T302 57T426 33ZM558 152Q519 152 496 168T457 209T430 257T404 298T367 314V157H288V548H413Q483 548 522 517T561
429Q561 389 534 359T461 320Q479 309 491 293T514 259T537 231T569 219Q588 219 604 229L623 170Q598 152 558 152ZM408 491H367V368H397Q442 368 461 384T481 430Q481 459 462 475T408 491Z" />
<glyph unicode="&#xaf;" glyph-name="overscore" horiz-adv-x="625" d="M186 666H501L489 599H174L186 666Z" />
<glyph unicode="&#xb0;" glyph-name="degree" horiz-adv-x="374" d="M244 421Q202 421 169 440T115 493T95 569Q95 612 115 645T168 697T244 717Q286 717 319 698T372 645T392 569Q392 527 373 494T320 441T244 421ZM244 480Q281 480 305 505T330 570Q330 609
306 634T244 659Q206 659 182 634T158 570Q158 530 182 505T244 480Z" />
<glyph unicode="&#xb1;" glyph-name="plusminus" horiz-adv-x="600" d="M302 501H387L362 360H515L502 280H348L323 139H238L263 280H109L123 360H277L302 501ZM16 0L30 80H510L495 0H16Z" />
<glyph unicode="&#xb2;" glyph-name="uni00B2" horiz-adv-x="330" d="M60 369Q111 403 159 443T240 526T272 607Q272 651 226 651Q199 651 178 635T142 588L90 616Q108 660 148 687T240 715Q289 715 319 690T350 618Q350 557 300 498T159 379H320L309 319H51L60 369Z" />
<glyph unicode="&#xb3;" glyph-name="uni00B3" horiz-adv-x="330" d="M170 314Q140 314 109 321T62 341L85 403Q123 379 174 379Q212 379 235 396T258 445Q258 491 191 491H162L168 545H193Q229 545 250 562T271 608Q271 628 259 639T226 651Q202 651 181 638T147
599L97 631Q116 669 154 692T239 715Q290 715 320 689T350 622Q350 589 330 561T277 519Q335 502 335 443Q335 406 314 377T256 331T170 314Z" />
<glyph unicode="&#xb4;" glyph-name="acute" horiz-adv-x="641" d="M295 573L442 750L542 723L385 573H295Z" />
<glyph unicode="&#xb5;" glyph-name="uni00B5" horiz-adv-x="575" d="M457 501H549L460 0H367L396 135Q357 60 308 26T205 -9Q174 -9 152 -1T116 27L80 -200H-14L110 501H206L151 204Q128 81 219 81Q254 81 287 100T350 167T407 295T457 501Z" />
<glyph unicode="&#xb6;" glyph-name="paragraph" horiz-adv-x="667" d="M63 458Q63 541 103 597T213 682T377 711H500L375 0H275L325 277H303Q193 277 128 324T63 458ZM571 710H670L545 0H446L571 710Z" />
<glyph unicode="&#xb7;" glyph-name="middot" horiz-adv-x="215" d="M111 201Q81 201 62 220T43 268Q43 297 62 316T111 336Q143 336 161 317T179 268Q179 240 161 221T111 201Z" />
<glyph unicode="&#xb8;" glyph-name="cedilla" horiz-adv-x="618" d="M154 -223Q123 -223 97 -217T52 -200L79 -149Q116 -167 159 -167Q184 -167 200 -157T216 -129Q216 -99 169 -99H121L200 18H267L224 -49Q295 -62 295 -122Q295 -168 256 -195T154 -223Z" />
<glyph unicode="&#xb9;" glyph-name="uni00B9" horiz-adv-x="330" d="M76 379H164L204 603L134 561L104 618L257 710H300L242 379H325L315 319H67L76 379Z" />
<glyph unicode="&#xba;" glyph-name="ordmasculine" horiz-adv-x="340" d="M208 462Q152 462 120 492T88 575Q88 623 110 662T170 726T258 750Q314 750 345 719T377 637Q377 589 355 550T295 486T208 462ZM215 523Q243 523 262 539T293 581T304 632Q304 660 290
674T251 689Q224 689 204 674T173 633T161 580Q161 552 175 538T215 523Z" />
<glyph unicode="&#xbb;" glyph-name="guillemotright" horiz-adv-x="467" d="M152 436L245 272L238 234L88 70H-20L153 259L52 436H152ZM346 436L439 272L432 234L282 70H174L347 259L246 436H346Z" />
<glyph unicode="&#xbc;" glyph-name="onequarter" horiz-adv-x="805" d="M76 379H164L204 603L134 561L104 618L257 710H300L242 379H325L315 319H67L76 379ZM187 0L537 710H618L268 0H187ZM761 98H712L694 0H627L644 98H471L479 145L711 392H764L721 148H770L761
98ZM545 148H653L678 289L545 148Z" />
<glyph unicode="&#xbd;" glyph-name="onehalf" horiz-adv-x="805" d="M76 379H164L204 603L134 561L104 618L257 710H300L242 379H325L315 319H67L76 379ZM187 0L537 710H618L268 0H187ZM479 50Q530 84 578 124T659 207T691 288Q691 332 645 332Q618 332 597 316T561
269L509 297Q527 341 567 368T659 396Q708 396 738 371T769 299Q769 238 719 179T578 60H739L728 0H470L479 50Z" />
<glyph unicode="&#xbe;" glyph-name="threequarters" horiz-adv-x="805" d="M170 314Q140 314 109 321T62 341L85 403Q123 379 174 379Q212 379 235 396T258 445Q258 491 191 491H162L168 545H193Q229 545 250 562T271 608Q271 628 259 639T226 651Q202 651 181
638T147 599L97 631Q116 669 154 692T239 715Q290 715 320 689T350 622Q350 589 330 561T277 519Q335 502 335 443Q335 406 314 377T256 331T170 314ZM187 0L537 710H618L268 0H187ZM761 98H712L694 0H627L644 98H471L479 145L711 392H764L721 148H770L761 98ZM545
148H653L678 289L545 148Z" />
<glyph unicode="&#xbf;" glyph-name="questiondown" horiz-adv-x="511" d="M328 384Q300 384 282 402T264 447Q264 474 282 492T329 510Q356 510 374 493T393 448Q393 420 375 402T328 384ZM185 -211Q105 -211 55 -173T4 -65Q4 -18 23 18T76 87T156 153Q209 193
236 229T275 313L347 309Q338 240 309 191T215 94Q172 61 148 38T114 -5T104 -49Q104 -85 130 -104T203 -123Q321 -123 383 4L455 -35Q419 -117 346 -164T185 -211Z" />
<glyph unicode="&#xc0;" glyph-name="Agrave" horiz-adv-x="680" d="M-42 0L383 710H469L630 0H531L494 177H169L65 0H-42ZM219 263H476L407 586L219 263ZM390 782L286 933L395 959L480 782H390Z" />
<glyph unicode="&#xc1;" glyph-name="Aacute" horiz-adv-x="680" d="M-42 0L383 710H469L630 0H531L494 177H169L65 0H-42ZM219 263H476L407 586L219 263ZM386 782L533 959L633 933L476 782H386Z" />
<glyph unicode="&#xc2;" glyph-name="Acircumflex" horiz-adv-x="680" d="M-42 0L383 710H469L630 0H531L494 177H169L65 0H-42ZM219 263H476L407 586L219 263ZM604 782H517L458 887L361 782H265L423 949H506L604 782Z" />
<glyph unicode="&#xc3;" glyph-name="Atilde" horiz-adv-x="680" d="M-42 0L383 710H469L630 0H531L494 177H169L65 0H-42ZM219 263H476L407 586L219 263ZM515 777Q489 777 462 792T408 822T361 837Q342 837 324 823T292 781L252 812Q271 859 303 884T376 910Q401
910 429 895T483 865T530 850Q573 850 600 906L638 876Q620 828 588 803T515 777Z" />
<glyph unicode="&#xc4;" glyph-name="Adieresis" horiz-adv-x="680" d="M-42 0L383 710H469L630 0H531L494 177H169L65 0H-42ZM219 263H476L407 586L219 263ZM535 777Q507 777 492 794T476 833Q476 855 491 872T535 889Q562 889 577 872T593 833Q593 811 578 794T535
777ZM353 777Q324 777 309 794T293 833Q293 855 308 872T353 889Q379 889 394 872T410 833Q410 811 395 794T353 777Z" />
<glyph unicode="&#xc5;" glyph-name="Aring" horiz-adv-x="680" d="M-42 0L383 710H469L630 0H531L494 177H169L65 0H-42ZM219 263H476L407 586L219 263ZM451 777Q405 777 374 807T343 880Q343 925 375 955T455 986Q501 986 531 957T562 884Q562 839 531 808T451
777ZM452 821Q479 821 496 838T513 884Q513 910 496 926T454 942Q426 942 409 925T392 880Q392 854 409 838T452 821Z" />
<glyph unicode="&#xc6;" glyph-name="AE" horiz-adv-x="910" d="M-42 0L383 710H950L934 623H611L573 403H883L868 316H557L517 87H853L829 0H401L433 177H168L65 0H-42ZM219 263H448L511 623H428L219 263Z" />
<glyph unicode="&#xc7;" glyph-name="Ccedilla" horiz-adv-x="657" d="M638 137Q588 66 513 29T350 -9Q213 -9 137 63T61 264Q61 356 92 438T178 583T309 683T475 720Q561 720 623 686T713 583L628 527Q588 628 465 628Q398 628 343 599T248 520T187 406T165 271Q165
181 214 133T358 84Q420 84 475 111T572 196L638 137ZM285 -223Q254 -223 228 -217T183 -200L210 -149Q247 -167 290 -167Q315 -167 331 -157T347 -129Q347 -99 300 -99H252L331 18H398L355 -49Q426 -62 426 -122Q426 -168 387 -195T285 -223Z" />
<glyph unicode="&#xc8;" glyph-name="Egrave" horiz-adv-x="552" d="M149 87H495L471 0H33L158 710H592L576 623H243L204 403H525L510 316H189L149 87ZM343 782L239 933L348 959L433 782H343Z" />
<glyph unicode="&#xc9;" glyph-name="Eacute" horiz-adv-x="552" d="M149 87H495L471 0H33L158 710H592L576 623H243L204 403H525L510 316H189L149 87ZM339 782L486 959L586 933L429 782H339Z" />
<glyph unicode="&#xca;" glyph-name="Ecircumflex" horiz-adv-x="552" d="M149 87H495L471 0H33L158 710H592L576 623H243L204 403H525L510 316H189L149 87ZM558 782H471L412 887L315 782H219L377 949H460L558 782Z" />
<glyph unicode="&#xcb;" glyph-name="Edieresis" horiz-adv-x="552" d="M149 87H495L471 0H33L158 710H592L576 623H243L204 403H525L510 316H189L149 87ZM489 777Q461 777 446 794T430 833Q430 855 445 872T489 889Q516 889 531 872T547 833Q547 811 532 794T489
777ZM307 777Q278 777 263 794T247 833Q247 855 262 872T307 889Q333 889 348 872T364 833Q364 811 349 794T307 777Z" />
<glyph unicode="&#xcc;" glyph-name="Igrave" horiz-adv-x="257" d="M33 0L158 710H260L135 0H33ZM433 782L329 933L438 959L523 782H433Z" />
<glyph unicode="&#xcd;" glyph-name="Iacute" horiz-adv-x="257" d="M33 0L158 710H260L135 0H33ZM429 782L576 959L676 933L519 782H429Z" />
<glyph unicode="&#xce;" glyph-name="Icircumflex" horiz-adv-x="257" d="M33 0L158 710H260L135 0H33ZM648 782H561L502 887L405 782H309L467 949H550L648 782Z" />
<glyph unicode="&#xcf;" glyph-name="Idieresis" horiz-adv-x="257" d="M33 0L158 710H260L135 0H33ZM579 777Q551 777 536 794T520 833Q520 855 535 872T579 889Q606 889 621 872T637 833Q637 811 622 794T579 777ZM397 777Q368 777 353 794T337 833Q337 855
352 872T397 889Q423 889 438 872T454 833Q454 811 439 794T397 777Z" />
<glyph unicode="&#xd0;" glyph-name="Eth" horiz-adv-x="739" d="M33 0L158 710H351Q526 710 619 639T713 428Q713 299 658 203T504 53T277 0H33ZM151 90H284Q386 90 459 130T570 245T609 421Q609 521 545 570T348 620H244L151 90ZM21 324L34 396H404L391 324H21Z" />
<glyph unicode="&#xd1;" glyph-name="Ntilde" horiz-adv-x="726" d="M632 710H730L605 0H516L227 549L131 0H33L158 710H247L536 161L632 710ZM538 778Q512 778 485 793T431 823T384 838Q365 838 347 824T315 782L275 813Q294 860 326 885T399 911Q424 911 452
896T506 866T553 851Q596 851 623 907L661 877Q643 829 611 804T538 778Z" />
<glyph unicode="&#xd2;" glyph-name="Ograve" horiz-adv-x="773" d="M346 -9Q212 -9 137 63T61 264Q61 356 91 438T177 583T308 683T474 720Q558 720 619 686T714 589T747 441Q747 351 718 270T634 126T507 27T346 -9ZM353 84Q419 84 472 112T564 191T623 304T644
437Q644 527 598 577T466 628Q398 628 343 599T248 520T187 406T165 271Q165 181 213 133T353 84ZM434 782L330 933L439 959L524 782H434Z" />
<glyph unicode="&#xd3;" glyph-name="Oacute" horiz-adv-x="773" d="M346 -9Q212 -9 137 63T61 264Q61 356 91 438T177 583T308 683T474 720Q558 720 619 686T714 589T747 441Q747 351 718 270T634 126T507 27T346 -9ZM353 84Q419 84 472 112T564 191T623 304T644
437Q644 527 598 577T466 628Q398 628 343 599T248 520T187 406T165 271Q165 181 213 133T353 84ZM430 782L577 959L677 933L520 782H430Z" />
<glyph unicode="&#xd4;" glyph-name="Ocircumflex" horiz-adv-x="773" d="M346 -9Q212 -9 137 63T61 264Q61 356 91 438T177 583T308 683T474 720Q558 720 619 686T714 589T747 441Q747 351 718 270T634 126T507 27T346 -9ZM353 84Q419 84 472 112T564 191T623
304T644 437Q644 527 598 577T466 628Q398 628 343 599T248 520T187 406T165 271Q165 181 213 133T353 84ZM649 782H562L503 887L406 782H310L468 949H551L649 782Z" />
<glyph unicode="&#xd5;" glyph-name="Otilde" horiz-adv-x="773" d="M346 -9Q212 -9 137 63T61 264Q61 356 91 438T177 583T308 683T474 720Q558 720 619 686T714 589T747 441Q747 351 718 270T634 126T507 27T346 -9ZM353 84Q419 84 472 112T564 191T623 304T644
437Q644 527 598 577T466 628Q398 628 343 599T248 520T187 406T165 271Q165 181 213 133T353 84ZM560 777Q534 777 507 792T453 822T406 837Q387 837 369 823T337 781L297 812Q316 859 348 884T421 910Q446 910 474 895T528 865T575 850Q618 850 645 906L683 876Q665
828 633 803T560 777Z" />
<glyph unicode="&#xd6;" glyph-name="Odieresis" horiz-adv-x="773" d="M346 -9Q212 -9 137 63T61 264Q61 356 91 438T177 583T308 683T474 720Q558 720 619 686T714 589T747 441Q747 351 718 270T634 126T507 27T346 -9ZM353 84Q419 84 472 112T564 191T623 304T644
437Q644 527 598 577T466 628Q398 628 343 599T248 520T187 406T165 271Q165 181 213 133T353 84ZM580 777Q552 777 537 794T521 833Q521 855 536 872T580 889Q607 889 622 872T638 833Q638 811 623 794T580 777ZM398 777Q369 777 354 794T338 833Q338 855 353
872T398 889Q424 889 439 872T455 833Q455 811 440 794T398 777Z" />
<glyph unicode="&#xd7;" glyph-name="multiply" horiz-adv-x="600" d="M161 50L99 112L238 250L99 389L161 451L300 312L439 451L501 389L362 250L501 112L439 50L300 188L161 50Z" />
<glyph unicode="&#xd8;" glyph-name="Oslash" horiz-adv-x="773" d="M346 -9Q212 -9 137 63T61 264Q61 356 91 438T177 583T308 683T474 720Q558 720 619 686T714 589T747 441Q747 351 718 270T634 126T507 27T346 -9ZM353 84Q419 84 472 112T564 191T623 304T644
437Q644 527 598 577T466 628Q398 628 343 599T248 520T187 406T165 271Q165 181 213 133T353 84ZM121 6L64 58L688 704L745 652L121 6Z" />
<glyph unicode="&#xd9;" glyph-name="Ugrave" horiz-adv-x="732" d="M637 710H737L673 336Q643 159 561 75T334 -9Q188 -9 123 72T84 302L156 710H259L188 309Q148 84 340 84Q441 84 495 143T573 340L637 710ZM415 782L311 933L420 959L505 782H415Z" />
<glyph unicode="&#xda;" glyph-name="Uacute" horiz-adv-x="732" d="M637 710H737L673 336Q643 159 561 75T334 -9Q188 -9 123 72T84 302L156 710H259L188 309Q148 84 340 84Q441 84 495 143T573 340L637 710ZM411 782L558 959L658 933L501 782H411Z" />
<glyph unicode="&#xdb;" glyph-name="Ucircumflex" horiz-adv-x="732" d="M637 710H737L673 336Q643 159 561 75T334 -9Q188 -9 123 72T84 302L156 710H259L188 309Q148 84 340 84Q441 84 495 143T573 340L637 710ZM630 782H543L484 887L387 782H291L449 949H532L630
782Z" />
<glyph unicode="&#xdc;" glyph-name="Udieresis" horiz-adv-x="732" d="M637 710H737L673 336Q643 159 561 75T334 -9Q188 -9 123 72T84 302L156 710H259L188 309Q148 84 340 84Q441 84 495 143T573 340L637 710ZM561 777Q533 777 518 794T502 833Q502 855 517
872T561 889Q588 889 603 872T619 833Q619 811 604 794T561 777ZM379 777Q350 777 335 794T319 833Q319 855 334 872T379 889Q405 889 420 872T436 833Q436 811 421 794T379 777Z" />
<glyph unicode="&#xdd;" glyph-name="Yacute" horiz-adv-x="566" d="M668 710L346 319L289 0H187L244 320L57 710H166L309 409L556 710H668ZM330 782L477 959L577 933L420 782H330Z" />
<glyph unicode="&#xde;" glyph-name="Thorn" horiz-adv-x="615" d="M33 0L159 711L258 710L238 597H371Q485 597 550 553T616 418Q616 331 575 275T459 191T288 163H161L133 0H33ZM357 514H224L176 247H301Q402 247 459 284T516 409Q516 463 475 488T357 514Z" />
<glyph unicode="&#xdf;" glyph-name="germandbls" horiz-adv-x="661" d="M26 420L39 501H138Q163 617 240 683T430 750Q508 750 553 718T598 629Q598 585 578 554T529 499T470 455T421 413T401 365Q401 343 417 329T460 305T515 284T571 258T613 219T630 158Q630
108 604 71T531 12T427 -9Q338 -9 288 30T239 138L329 158Q328 69 429 69Q480 69 507 87T535 140Q535 163 519 177T477 201T422 222T367 246T325 283T308 342Q308 386 329 417T380 472T441 517T492 561T513 617Q513 643 490 658T424 674Q346 674 296 626T230 487L145
0H49L123 420H26Z" />
<glyph unicode="&#xe0;" glyph-name="agrave" horiz-adv-x="588" d="M213 -9Q132 -9 86 39T40 174Q40 244 62 305T126 412T221 483T340 509Q382 509 420 496T481 461L498 500H567Q557 452 548 409T531 323L504 170Q496 122 491 75T486 0H392Q392 29 395 59T406
118Q370 53 321 22T213 -9ZM235 78Q283 78 323 105T392 183T432 300L447 386Q409 424 341 424Q277 424 232 390T163 302T139 185Q139 133 164 106T235 78ZM324 573L220 723L329 750L414 573H324Z" />
<glyph unicode="&#xe1;" glyph-name="aacute" horiz-adv-x="588" d="M213 -9Q132 -9 86 39T40 174Q40 244 62 305T126 412T221 483T340 509Q382 509 420 496T481 461L498 500H567Q557 452 548 409T531 323L504 170Q496 122 491 75T486 0H392Q392 29 395 59T406
118Q370 53 321 22T213 -9ZM235 78Q283 78 323 105T392 183T432 300L447 386Q409 424 341 424Q277 424 232 390T163 302T139 185Q139 133 164 106T235 78ZM320 573L467 750L567 723L410 573H320Z" />
<glyph unicode="&#xe2;" glyph-name="acircumflex" horiz-adv-x="588" d="M213 -9Q132 -9 86 39T40 174Q40 244 62 305T126 412T221 483T340 509Q382 509 420 496T481 461L498 500H567Q557 452 548 409T531 323L504 170Q496 122 491 75T486 0H392Q392 29 395 59T406
118Q370 53 321 22T213 -9ZM235 78Q283 78 323 105T392 183T432 300L447 386Q409 424 341 424Q277 424 232 390T163 302T139 185Q139 133 164 106T235 78ZM539 573H452L393 678L296 573H200L358 740H441L539 573Z" />
<glyph unicode="&#xe3;" glyph-name="atilde" horiz-adv-x="588" d="M213 -9Q132 -9 86 39T40 174Q40 244 62 305T126 412T221 483T340 509Q382 509 420 496T481 461L498 500H567Q557 452 548 409T531 323L504 170Q496 122 491 75T486 0H392Q392 29 395 59T406
118Q370 53 321 22T213 -9ZM235 78Q283 78 323 105T392 183T432 300L447 386Q409 424 341 424Q277 424 232 390T163 302T139 185Q139 133 164 106T235 78ZM450 568Q424 568 397 583T343 613T296 628Q277 628 259 613T227 572L187 603Q206 650 238 675T311 701Q336
701 364 686T418 656T465 641Q508 641 535 697L573 666Q555 619 523 594T450 568Z" />
<glyph unicode="&#xe4;" glyph-name="adieresis" horiz-adv-x="588" d="M213 -9Q132 -9 86 39T40 174Q40 244 62 305T126 412T221 483T340 509Q382 509 420 496T481 461L498 500H567Q557 452 548 409T531 323L504 170Q496 122 491 75T486 0H392Q392 29 395 59T406
118Q370 53 321 22T213 -9ZM235 78Q283 78 323 105T392 183T432 300L447 386Q409 424 341 424Q277 424 232 390T163 302T139 185Q139 133 164 106T235 78ZM470 568Q442 568 427 585T411 624Q411 646 426 662T470 679Q497 679 512 663T528 624Q528 602 513 585T470
568ZM288 568Q259 568 244 585T228 624Q228 646 243 662T288 679Q314 679 329 663T345 624Q345 602 330 585T288 568Z" />
<glyph unicode="&#xe5;" glyph-name="aring" horiz-adv-x="588" d="M213 -9Q132 -9 86 39T40 174Q40 244 62 305T126 412T221 483T340 509Q382 509 420 496T481 461L498 500H567Q557 452 548 409T531 323L504 170Q496 122 491 75T486 0H392Q392 29 395 59T406
118Q370 53 321 22T213 -9ZM235 78Q283 78 323 105T392 183T432 300L447 386Q409 424 341 424Q277 424 232 390T163 302T139 185Q139 133 164 106T235 78ZM386 568Q340 568 309 597T278 671Q278 715 310 746T390 777Q436 777 466 748T497 675Q497 629 466 599T386
568ZM387 612Q414 612 431 629T448 675Q448 701 431 717T389 733Q361 733 344 716T327 671Q327 645 344 629T387 612Z" />
<glyph unicode="&#xe6;" glyph-name="ae" horiz-adv-x="860" d="M194 -9Q113 -9 67 27T20 124Q20 200 78 245T234 290H378L381 309Q402 429 292 429Q189 429 152 334L68 350Q96 425 159 467T307 509Q365 509 405 485T461 415Q497 459 548 484T660 509Q742 509
786 470T830 370Q830 308 790 264T663 219H464Q457 150 494 114T599 77Q637 77 676 93T742 141L790 82Q752 35 700 13T587 -9Q512 -9 466 22T400 103Q367 49 312 20T194 -9ZM649 435Q580 435 536 393T477 290H658Q698 290 721 310T744 366Q744 394 722 414T649
435ZM206 68Q267 68 309 107T364 212L365 218H230Q177 218 147 196T117 135Q117 103 140 86T206 68Z" />
<glyph unicode="&#xe7;" glyph-name="ccedilla" horiz-adv-x="490" d="M248 -9Q152 -9 97 43T42 185Q42 247 62 305T120 409T212 482T335 509Q400 509 442 485T510 410L433 357Q406 423 329 423Q270 423 228 391T162 307T139 195Q139 139 170 108T262 78Q300 78
334 94T396 145L456 89Q417 40 364 16T248 -9ZM179 -223Q148 -223 122 -217T77 -200L104 -149Q141 -167 184 -167Q209 -167 225 -157T241 -129Q241 -99 194 -99H146L225 18H292L249 -49Q320 -62 320 -122Q320 -168 281 -195T179 -223Z" />
<glyph unicode="&#xe8;" glyph-name="egrave" horiz-adv-x="539" d="M264 -9Q165 -9 104 44T43 196Q43 281 79 352T180 466T335 509Q419 509 464 470T509 370Q509 308 467 264T326 215L139 205Q137 143 173 110T277 77Q315 77 354 93T421 141L469 82Q431 35 379
13T264 -9ZM327 435Q278 435 242 414T182 358T149 279L319 289Q377 291 400 312T423 366Q423 396 400 415T327 435ZM301 573L197 723L306 750L391 573H301Z" />
<glyph unicode="&#xe9;" glyph-name="eacute" horiz-adv-x="539" d="M264 -9Q165 -9 104 44T43 196Q43 281 79 352T180 466T335 509Q419 509 464 470T509 370Q509 308 467 264T326 215L139 205Q137 143 173 110T277 77Q315 77 354 93T421 141L469 82Q431 35 379
13T264 -9ZM327 435Q278 435 242 414T182 358T149 279L319 289Q377 291 400 312T423 366Q423 396 400 415T327 435ZM297 573L444 750L544 723L387 573H297Z" />
<glyph unicode="&#xea;" glyph-name="ecircumflex" horiz-adv-x="539" d="M264 -9Q165 -9 104 44T43 196Q43 281 79 352T180 466T335 509Q419 509 464 470T509 370Q509 308 467 264T326 215L139 205Q137 143 173 110T277 77Q315 77 354 93T421 141L469 82Q431
35 379 13T264 -9ZM327 435Q278 435 242 414T182 358T149 279L319 289Q377 291 400 312T423 366Q423 396 400 415T327 435ZM515 573H428L369 678L272 573H176L334 740H417L515 573Z" />
<glyph unicode="&#xeb;" glyph-name="edieresis" horiz-adv-x="539" d="M264 -9Q165 -9 104 44T43 196Q43 281 79 352T180 466T335 509Q419 509 464 470T509 370Q509 308 467 264T326 215L139 205Q137 143 173 110T277 77Q315 77 354 93T421 141L469 82Q431 35
379 13T264 -9ZM327 435Q278 435 242 414T182 358T149 279L319 289Q377 291 400 312T423 366Q423 396 400 415T327 435ZM702 568Q674 568 659 585T643 624Q643 646 658 662T702 679Q729 679 744 663T760 624Q760 602 745 585T702 568ZM520 568Q491 568 476 585T460
624Q460 646 475 662T520 679Q546 679 561 663T577 624Q577 602 562 585T520 568Z" />
<glyph unicode="&#xec;" glyph-name="igrave" horiz-adv-x="236" d="M35 0Q35 31 39 63T48 126L84 328Q92 375 98 417T107 501H204Q201 458 193 410T179 326L144 133Q138 99 135 66T132 0H35ZM124 573L20 723L129 750L214 573H124Z" />
<glyph unicode="&#xed;" glyph-name="iacute" horiz-adv-x="236" d="M35 0Q35 31 39 63T48 126L84 328Q92 375 98 417T107 501H204Q201 458 193 410T179 326L144 133Q138 99 135 66T132 0H35ZM120 573L267 750L367 723L210 573H120Z" />
<glyph unicode="&#xee;" glyph-name="icircumflex" horiz-adv-x="236" d="M35 0Q35 31 39 63T48 126L84 328Q92 375 98 417T107 501H204Q201 458 193 410T179 326L144 133Q138 99 135 66T132 0H35ZM338 573H251L192 678L95 573H-1L157 740H240L338 573Z" />
<glyph unicode="&#xef;" glyph-name="idieresis" horiz-adv-x="236" d="M35 0Q35 31 39 63T48 126L84 328Q92 375 98 417T107 501H204Q201 458 193 410T179 326L144 133Q138 99 135 66T132 0H35ZM269 568Q241 568 226 585T210 624Q210 646 225 662T269 679Q296
679 311 663T327 624Q327 602 312 585T269 568ZM87 568Q58 568 43 585T27 624Q27 646 42 662T87 679Q113 679 128 663T144 624Q144 602 129 585T87 568Z" />
<glyph unicode="&#xf0;" glyph-name="eth" horiz-adv-x="569" d="M240 -9Q146 -9 93 43T39 182Q39 240 60 292T118 384T206 447T314 470Q361 470 395 452T449 400Q447 505 391 576L209 518L191 575L342 623Q296 658 232 681L275 753Q378 717 441 655L564 695L582
638L483 606Q542 519 542 394Q542 313 522 240T463 111T368 23T240 -9ZM252 77Q304 77 343 105T404 179T426 278Q426 329 398 358T315 388Q262 388 223 361T161 288T139 191Q139 139 167 108T252 77Z" />
<glyph unicode="&#xf1;" glyph-name="ntilde" horiz-adv-x="585" d="M26 0L84 328Q92 375 98 417T107 501H201Q198 466 192 425T173 340Q212 422 270 465T399 509Q478 509 515 456T530 297L495 134Q488 100 485 67T482 0H385Q385 64 398 126L433 289Q448 358 430
389T365 420Q316 420 271 382T187 252T121 0H26ZM431 568Q405 568 378 583T324 613T277 628Q258 628 240 613T208 572L168 603Q187 650 219 675T292 701Q317 701 345 686T399 656T446 641Q489 641 516 697L554 666Q536 619 504 594T431 568Z" />
<glyph unicode="&#xf2;" glyph-name="ograve" horiz-adv-x="575" d="M337 509Q426 509 479 459T533 315Q533 246 511 188T449 85T356 16T241 -9Q150 -9 96 42T41 185Q41 245 61 303T118 407T211 481T337 509ZM251 77Q308 77 349 110T412 195T435 307Q435 364 406
394T325 424Q266 424 225 391T161 305T139 195Q139 138 168 108T251 77ZM300 573L196 723L305 750L390 573H300Z" />
<glyph unicode="&#xf3;" glyph-name="oacute" horiz-adv-x="575" d="M337 509Q426 509 479 459T533 315Q533 246 511 188T449 85T356 16T241 -9Q150 -9 96 42T41 185Q41 245 61 303T118 407T211 481T337 509ZM251 77Q308 77 349 110T412 195T435 307Q435 364 406
394T325 424Q266 424 225 391T161 305T139 195Q139 138 168 108T251 77ZM296 573L443 750L543 723L386 573H296Z" />
<glyph unicode="&#xf4;" glyph-name="ocircumflex" horiz-adv-x="575" d="M337 509Q426 509 479 459T533 315Q533 246 511 188T449 85T356 16T241 -9Q150 -9 96 42T41 185Q41 245 61 303T118 407T211 481T337 509ZM251 77Q308 77 349 110T412 195T435 307Q435
364 406 394T325 424Q266 424 225 391T161 305T139 195Q139 138 168 108T251 77ZM514 573H427L368 678L271 573H175L333 740H416L514 573Z" />
<glyph unicode="&#xf5;" glyph-name="otilde" horiz-adv-x="575" d="M337 509Q426 509 479 459T533 315Q533 246 511 188T449 85T356 16T241 -9Q150 -9 96 42T41 185Q41 245 61 303T118 407T211 481T337 509ZM251 77Q308 77 349 110T412 195T435 307Q435 364 406
394T325 424Q266 424 225 391T161 305T139 195Q139 138 168 108T251 77ZM681 568Q655 568 628 583T574 613T527 628Q508 628 490 613T458 572L418 603Q437 650 469 675T542 701Q567 701 595 686T649 656T696 641Q739 641 766 697L804 666Q786 619 754 594T681 568Z"
/>
<glyph unicode="&#xf6;" glyph-name="odieresis" horiz-adv-x="575" d="M337 509Q426 509 479 459T533 315Q533 246 511 188T449 85T356 16T241 -9Q150 -9 96 42T41 185Q41 245 61 303T118 407T211 481T337 509ZM251 77Q308 77 349 110T412 195T435 307Q435 364
406 394T325 424Q266 424 225 391T161 305T139 195Q139 138 168 108T251 77ZM701 568Q673 568 658 585T642 624Q642 646 657 662T701 679Q728 679 743 663T759 624Q759 602 744 585T701 568ZM519 568Q490 568 475 585T459 624Q459 646 474 662T519 679Q545 679
560 663T576 624Q576 602 561 585T519 568Z" />
<glyph unicode="&#xf7;" glyph-name="divide" horiz-adv-x="600" d="M337 408Q313 408 298 423T283 459Q283 481 298 496T337 511Q361 511 375 496T390 459Q390 438 376 423T337 408ZM554 291L540 211H46L60 291H554ZM263 -9Q240 -9 225 6T210 43Q210 64 225 79T263
94Q287 94 302 79T317 43Q317 21 302 6T263 -9Z" />
<glyph unicode="&#xf8;" glyph-name="oslash" horiz-adv-x="575" d="M337 509Q426 509 479 459T533 315Q533 246 511 188T449 85T356 16T241 -9Q150 -9 96 42T41 185Q41 245 61 303T118 407T211 481T337 509ZM251 77Q308 77 349 110T412 195T435 307Q435 364 406
394T325 424Q266 424 225 391T161 305T139 195Q139 138 168 108T251 77ZM345 -7L293 41L350 100L397 143L654 407L686 448L743 507L795 460L738 401L690 358L434 94L402 52L345 -7Z" />
<glyph unicode="&#xf9;" glyph-name="ugrave" horiz-adv-x="575" d="M182 -9Q106 -9 71 44T55 204L78 328Q96 421 102 501H198Q195 458 188 410T174 326L151 206Q126 81 221 81Q266 81 309 119T390 249T456 501H549L490 170Q482 122 477 75T472 0H378Q378 63 400
154Q361 75 306 33T182 -9ZM299 573L195 723L304 750L389 573H299Z" />
<glyph unicode="&#xfa;" glyph-name="uacute" horiz-adv-x="575" d="M182 -9Q106 -9 71 44T55 204L78 328Q96 421 102 501H198Q195 458 188 410T174 326L151 206Q126 81 221 81Q266 81 309 119T390 249T456 501H549L490 170Q482 122 477 75T472 0H378Q378 63 400
154Q361 75 306 33T182 -9ZM295 573L442 750L542 723L385 573H295Z" />
<glyph unicode="&#xfb;" glyph-name="ucircumflex" horiz-adv-x="575" d="M182 -9Q106 -9 71 44T55 204L78 328Q96 421 102 501H198Q195 458 188 410T174 326L151 206Q126 81 221 81Q266 81 309 119T390 249T456 501H549L490 170Q482 122 477 75T472 0H378Q378
63 400 154Q361 75 306 33T182 -9ZM514 573H427L368 678L271 573H175L333 740H416L514 573Z" />
<glyph unicode="&#xfc;" glyph-name="udieresis" horiz-adv-x="575" d="M182 -9Q106 -9 71 44T55 204L78 328Q96 421 102 501H198Q195 458 188 410T174 326L151 206Q126 81 221 81Q266 81 309 119T390 249T456 501H549L490 170Q482 122 477 75T472 0H378Q378 63
400 154Q361 75 306 33T182 -9ZM701 568Q673 568 658 585T642 624Q642 646 657 662T701 679Q728 679 743 663T759 624Q759 602 744 585T701 568ZM519 568Q490 568 475 585T459 624Q459 646 474 662T519 679Q545 679 560 663T576 624Q576 602 561 585T519 568Z"
/>
<glyph unicode="&#xfd;" glyph-name="yacute" horiz-adv-x="580" d="M170 -210Q127 -210 82 -201T6 -173L35 -89Q99 -124 178 -124Q271 -124 318 -80T385 63L404 151Q360 74 306 39T192 4Q113 4 76 58T56 209L78 328Q87 373 93 416T102 501H198Q195 458 188 410T174
326L153 218Q142 159 158 126T222 93Q271 93 315 131T396 258T461 501H553L478 76Q452 -78 377 -144T170 -210ZM297 573L444 750L544 723L387 573H297Z" />
<glyph unicode="&#xfe;" glyph-name="thorn" horiz-adv-x="588" d="M85 -200H-10L156 740H251L209 501L186 389Q221 451 269 480T375 509Q456 509 502 462T548 327Q548 257 526 196T462 89T367 17T248 -9Q213 -9 180 0T124 26L120 0L85 -200ZM353 423Q305 423
265 395T196 317T156 201L141 114Q179 76 247 76Q310 76 355 110T425 199T449 316Q449 368 424 395T353 423Z" />
<glyph unicode="&#xff;" glyph-name="ydieresis" horiz-adv-x="580" d="M170 -210Q127 -210 82 -201T6 -173L35 -89Q99 -124 178 -124Q271 -124 318 -80T385 63L404 151Q360 74 306 39T192 4Q113 4 76 58T56 209L78 328Q87 373 93 416T102 501H198Q195 458 188
410T174 326L153 218Q142 159 158 126T222 93Q271 93 315 131T396 258T461 501H553L478 76Q452 -78 377 -144T170 -210ZM703 568Q675 568 660 585T644 624Q644 646 659 662T703 679Q730 679 745 663T761 624Q761 602 746 585T703 568ZM521 568Q492 568 477 585T461
624Q461 646 476 662T521 679Q547 679 562 663T578 624Q578 602 563 585T521 568Z" />
<glyph unicode="&#x2013;" glyph-name="endash" horiz-adv-x="500" d="M14 218L28 298H488L474 218H14Z" />
<glyph unicode="&#x2014;" glyph-name="emdash" horiz-adv-x="1000" d="M14 218L28 298H988L974 218H14Z" />
<glyph unicode="&#x2018;" glyph-name="quoteleft" horiz-adv-x="215" d="M262 750Q245 721 233 690T220 635Q220 617 224 601T228 569Q228 534 209 514T154 493Q127 493 112 507T96 553Q96 577 113 613T157 686T213 750H262Z" />
<glyph unicode="&#x2019;" glyph-name="quoteright" horiz-adv-x="215" d="M84 493Q102 522 114 553T126 608Q126 626 122 642T118 674Q118 709 138 729T193 750Q219 750 234 736T250 690Q250 665 233 630T190 557T134 493H84Z" />
<glyph unicode="&#x201a;" glyph-name="quotesinglbase" horiz-adv-x="205" d="M-31 -131Q-13 -102 -1 -71T11 -16Q11 2 7 17T3 50Q3 85 23 105T77 126Q104 126 119 112T135 66Q135 41 118 6T75 -67T18 -131H-31Z" />
<glyph unicode="&#x201c;" glyph-name="quotedblleft" horiz-adv-x="382" d="M430 750Q413 721 401 690T388 635Q388 617 392 601T396 569Q396 534 377 514T322 493Q295 493 280 507T264 553Q264 577 281 613T325 686T381 750H430ZM263 750Q246 721 234 690T221
635Q221 617 225 601T229 569Q229 534 210 514T155 493Q128 493 113 507T97 553Q97 577 114 613T158 686T214 750H263Z" />
<glyph unicode="&#x201d;" glyph-name="quotedblright" horiz-adv-x="382" d="M251 493Q269 522 281 553T293 608Q293 626 289 642T285 674Q285 709 305 729T360 750Q386 750 401 736T417 690Q417 665 400 630T357 557T301 493H251ZM84 493Q102 522 114 553T126
608Q126 626 122 642T118 674Q118 709 138 729T193 750Q219 750 234 736T250 690Q250 665 233 630T190 557T134 493H84Z" />
<glyph unicode="&#x201e;" glyph-name="quotedblbase" horiz-adv-x="378" d="M137 -131Q155 -102 167 -71T179 -16Q179 2 175 17T171 50Q171 85 191 105T245 126Q272 126 287 112T303 66Q303 41 286 6T243 -67T186 -131H137ZM-26 -131Q-8 -102 4 -71T16 -16Q16
2 12 17T8 50Q8 85 28 105T82 126Q109 126 124 112T140 66Q140 41 123 6T80 -67T23 -131H-26Z" />
<glyph unicode="&#x2022;" glyph-name="bullet" horiz-adv-x="448" d="M226 89Q178 89 140 111T79 172T56 260Q56 309 78 347T139 408T226 431Q274 431 312 409T374 348T397 260Q397 211 374 172T313 111T226 89Z" />
<glyph unicode="&#x2039;" glyph-name="guilsinglleft" horiz-adv-x="272" d="M122 70L29 234L36 272L186 436H294L121 247L222 70H122Z" />
<glyph unicode="&#x203a;" glyph-name="guilsinglright" horiz-adv-x="272" d="M152 436L245 272L238 234L88 70H-20L153 259L52 436H152Z" />
</font>
</defs>
</svg>
