<?xml version="1.0" standalone="no"?>
<!DOCTYPE svg PUBLIC "-//W3C//DTD SVG 1.1//EN" "http://www.w3.org/Graphics/SVG/1.1/DTD/svg11.dtd">
<svg xmlns="http://www.w3.org/2000/svg">
<defs >
<font id="Livvic" horiz-adv-x="576" ><font-face
    font-family="Livvic SemiBold"
    units-per-em="1000"
    panose-1="0 0 0 0 0 0 0 0 0 0"
    ascent="1005"
    descent="-250"
    alphabetic="0" />
<glyph unicode=" " glyph-name="space" horiz-adv-x="243" />
<glyph unicode="!" glyph-name="exclam" horiz-adv-x="241" d="M79 214L58 740H197L162 214H79ZM120 -9Q85 -9 63 12T41 67Q41 101 63 122T120 144Q156 144 178 123T200 67Q200 34 178 13T120 -9Z" />
<glyph unicode="&quot;" glyph-name="quotedbl" horiz-adv-x="434" d="M85 400L60 710H190L166 400H85ZM269 400L244 710H374L350 400H269Z" />
<glyph unicode="#" glyph-name="numbersign" horiz-adv-x="600" d="M64 0L104 191H12L33 287H125L153 422H61L81 518H173L214 710H318L277 518H391L432 710H536L495 518H588L567 422H475L447 287H539L519 191H426L386 0H282L322 191H208L168 0H64ZM229 287H343L371
422H257L229 287Z" />
<glyph unicode="$" glyph-name="dollar" horiz-adv-x="600" d="M257 -120V-6Q161 4 105 59T40 211L161 229Q171 164 206 133T311 101Q364 101 396 125T429 194Q429 226 410 244T358 273T288 293T211 315T141 350T89 408T69 503Q69 558 93 602T159 675T257 715V830H343V718Q424
710 476 659T539 525L425 506Q415 558 387 584T308 610Q262 610 231 583T200 512Q200 477 219 457T271 424T342 403T418 381T489 349T540 293T560 202Q560 145 533 101T456 28T343 -7V-120H257Z" />
<glyph unicode="%" glyph-name="percent" horiz-adv-x="794" d="M206 397Q131 397 86 439T40 551Q40 600 63 638T126 698T220 720Q295 720 340 679T385 567Q385 518 362 480T298 419T206 397ZM104 0L582 710H690L212 0H104ZM210 474Q248 474 272 499T297 566Q297
601 276 622T218 644Q178 644 153 619T128 552Q128 515 150 495T210 474ZM575 -8Q500 -8 455 34T409 146Q409 196 432 234T495 294T589 316Q664 316 709 274T754 162Q754 113 731 75T667 15T575 -8ZM578 69Q617 69 641 95T666 161Q666 197 645 218T586 239Q546
239 522 213T497 147Q497 111 519 90T578 69Z" />
<glyph unicode="&amp;" glyph-name="ampersand" horiz-adv-x="814" d="M314 -8Q236 -8 177 18T83 93T49 203Q49 277 84 323T169 400Q133 438 117 473T101 549Q101 599 126 638T195 699T296 721Q377 721 425 680T474 570Q474 519 455 486T404 431T338 391L531 195Q567
249 578 327H486V428H770V327H680Q673 268 653 218T602 127Q625 109 647 102T696 94Q729 94 761 112L790 24Q742 -10 675 -9Q587 -7 517 49Q474 21 423 7T314 -8ZM218 553Q218 532 229 512T272 458Q313 480 341 505T370 567Q370 599 350 614T298 630Q262 630 240
610T218 553ZM175 217Q175 159 219 126T336 93Q397 93 446 118L235 333Q208 313 192 286T175 217Z" />
<glyph unicode="&apos;" glyph-name="quotesingle" horiz-adv-x="250" d="M85 400L60 710H190L166 400H85Z" />
<glyph unicode="(" glyph-name="parenleft" horiz-adv-x="330" d="M301 -213Q176 -124 116 -1T56 268Q56 414 116 538T301 750L350 690Q270 619 226 513T182 268Q181 130 225 24T350 -153L301 -213Z" />
<glyph unicode=")" glyph-name="parenright" horiz-adv-x="330" d="M29 -213L-20 -153Q60 -82 104 24T148 268Q148 407 104 513T-20 690L29 750Q154 662 214 538T274 268Q274 123 214 0T29 -213Z" />
<glyph unicode="*" glyph-name="asterisk" horiz-adv-x="461" d="M389 504Q412 491 418 472T414 433Q403 413 383 409T339 419Q320 429 305 448T255 496Q263 452 271 429T280 385Q280 358 267 343T231 327Q208 327 195 342T181 385Q181 406 190 429T206 496Q173
468 157 449T123 419Q99 405 79 409T47 433Q36 452 43 471T73 504Q92 515 116 519T182 538Q140 553 116 557T73 572Q50 585 43 604T47 644Q59 663 79 667T123 658Q141 647 157 628T206 580Q199 624 190 647T181 691Q181 718 194 733T231 749Q253 749 266 734T280
691Q280 670 272 647T255 580Q289 609 304 628T339 658Q362 671 382 667T414 644Q425 624 419 605T389 572Q370 561 346 557T279 538Q321 523 345 519T389 504Z" />
<glyph unicode="+" glyph-name="plus" horiz-adv-x="600" d="M242 505H359V308H550V197H359V0H242V197H50V308H242V505Z" />
<glyph unicode="," glyph-name="comma" horiz-adv-x="237" d="M36 -152Q50 -119 57 -91T65 -40Q65 -14 58 5T45 42T38 83Q38 114 60 135T120 156Q159 156 180 132T202 66Q202 35 189 -4T152 -82T99 -152H36Z" />
<glyph unicode="-" glyph-name="hyphen" horiz-adv-x="419" d="M60 201V311H359V201H60Z" />
<glyph unicode="." glyph-name="period" horiz-adv-x="237" d="M119 -9Q80 -9 57 15T34 74Q34 109 57 133T119 157Q158 157 181 133T204 74Q204 39 181 15T119 -9Z" />
<glyph unicode="/" glyph-name="slash" horiz-adv-x="359" d="M0 -200L250 740H366L116 -200H0Z" />
<glyph unicode="0" glyph-name="zero" horiz-adv-x="600" d="M301 -9Q175 -10 108 76T41 342Q41 455 74 540T167 672T312 720Q428 720 493 630T559 369Q559 256 528 171T438 39T301 -9ZM298 102Q362 102 397 170T433 369Q433 487 401 548T309 610Q243 610 206
540T168 344Q168 221 200 162T298 102Z" />
<glyph unicode="1" glyph-name="one" horiz-adv-x="600" d="M106 0V102H266V544L142 459L82 548L321 710H392V102H543V0H106Z" />
<glyph unicode="2" glyph-name="two" horiz-adv-x="600" d="M77 0V85Q194 174 263 249T363 388T394 502Q394 552 366 580T289 608Q235 608 200 578T146 494L53 543Q77 621 143 670T301 720Q367 720 416 695T492 624T520 515Q520 418 456 317T239 102H538V0H77Z" />
<glyph unicode="3" glyph-name="three" horiz-adv-x="600" d="M258 -9Q206 -9 151 3T62 39L94 148Q127 127 170 115T266 103Q334 103 371 130T409 208Q409 259 372 284T269 309H226V411H258Q328 411 361 440T395 518Q395 558 368 583T289 608Q236 608 200 578T146
494L53 543Q77 621 143 670T301 720Q369 720 418 696T493 629T520 530Q520 476 491 432T407 366Q468 349 501 308T535 203Q535 140 501 92T405 18T258 -9Z" />
<glyph unicode="4" glyph-name="four" horiz-adv-x="600" d="M355 0V183H38V270L390 712H477V284H577V183H477V0H355ZM169 284H355V519L169 284Z" />
<glyph unicode="5" glyph-name="five" horiz-adv-x="600" d="M258 -9Q206 -9 151 3T62 40L94 150Q127 129 170 116T266 103Q335 103 372 133T409 219Q409 252 392 278T333 319T214 337L105 341L133 710H499V608H248L235 442H242Q390 437 462 380T535 221Q535 152
501 101T405 20T258 -9Z" />
<glyph unicode="6" glyph-name="six" horiz-adv-x="600" d="M322 -9Q196 -9 127 76T58 335Q58 454 95 540T198 673T350 720Q513 720 572 564L467 515Q449 564 419 586T343 608Q274 608 229 546T183 365Q210 405 254 427T354 449Q414 449 463 424T541 350T570 234Q570
165 539 110T452 23T322 -9ZM321 94Q377 94 410 131T444 223Q444 279 413 312T325 346Q270 346 235 310T199 218Q199 158 233 126T321 94Z" />
<glyph unicode="7" glyph-name="seven" horiz-adv-x="600" d="M247 0H115L410 608H72V710H541V611L247 0Z" />
<glyph unicode="8" glyph-name="eight" horiz-adv-x="600" d="M300 -9Q179 -9 109 44T39 188Q39 247 75 294T169 362Q117 383 87 425T57 523Q57 579 88 624T175 694T300 720Q370 720 425 695T511 624T543 523Q543 467 513 425T431 362Q489 341 525 294T561 188Q561
97 491 44T300 -9ZM300 408Q353 408 385 436T417 510Q417 559 385 588T300 617Q248 617 216 588T183 510Q183 464 215 436T300 408ZM300 94Q363 94 399 122T435 199Q435 249 398 279T300 310Q239 310 202 280T165 199Q165 150 201 122T300 94Z" />
<glyph unicode="9" glyph-name="nine" horiz-adv-x="600" d="M278 721Q404 721 473 636T542 377Q542 258 505 172T402 39T250 -8Q87 -8 28 148L133 197Q151 148 181 126T257 104Q326 104 371 166T417 347Q390 307 346 285T246 263Q186 263 137 288T59 362T30 478Q30
547 61 602T148 689T278 721ZM279 618Q223 618 190 581T156 489Q156 433 187 400T275 366Q330 366 365 402T401 494Q401 554 367 586T279 618Z" />
<glyph unicode=":" glyph-name="colon" horiz-adv-x="237" d="M119 -9Q80 -9 57 15T34 74Q34 109 57 133T119 157Q158 157 181 133T204 74Q204 39 181 15T119 -9ZM119 347Q80 347 57 371T34 430Q34 465 57 489T119 513Q158 513 181 489T204 430Q204 395 181 371T119 347Z" />
<glyph unicode=";" glyph-name="semicolon" horiz-adv-x="237" d="M36 -152Q50 -119 57 -91T65 -40Q65 -14 58 5T45 42T38 83Q38 114 60 135T120 156Q159 156 180 132T202 66Q202 35 189 -4T152 -82T99 -152H36ZM119 347Q80 347 57 371T34 430Q34 465 57 489T119
513Q158 513 181 489T204 430Q204 395 181 371T119 347Z" />
<glyph unicode="&lt;" glyph-name="less" horiz-adv-x="600" d="M53 207V297L547 512V399L204 252L547 104V-9L53 207Z" />
<glyph unicode="=" glyph-name="equal" horiz-adv-x="600" d="M550 414V314H50V414H550ZM550 192V92H50V192H550Z" />
<glyph unicode="&gt;" glyph-name="greater" horiz-adv-x="600" d="M547 207L53 -9V104L396 252L53 399V512L547 297V207Z" />
<glyph unicode="?" glyph-name="question" horiz-adv-x="511" d="M267 211L174 216Q169 288 189 337T260 428Q302 462 318 485T334 537Q334 570 309 589T237 608Q132 608 95 494L1 543Q27 624 94 672T250 720Q311 720 358 698T433 636T460 544Q460 488 435 446T354
359Q307 321 288 289T267 211ZM220 -9Q185 -9 163 12T141 67Q141 101 163 122T220 144Q255 144 277 123T300 67Q300 34 278 13T220 -9Z" />
<glyph unicode="@" glyph-name="at" horiz-adv-x="992" d="M512 -212Q369 -212 264 -156T102 4T45 249Q45 355 79 442T176 593T326 690T520 725Q652 725 748 680T895 550T947 348Q947 256 918 184T839 71T725 29Q671 29 639 54T598 125Q567 79 523 54T426 29Q348
29 303 77T258 210Q258 273 279 328T337 424T425 489T533 513Q573 513 608 502T666 471L681 504L756 494L704 205Q690 125 744 125Q773 125 795 154T831 233T845 348Q845 434 806 497T694 594T521 628Q411 628 329 581T202 448T157 249Q157 77 251 -18T515 -114Q580
-114 642 -95T748 -43L806 -129Q752 -169 677 -190T512 -212ZM456 129Q510 129 551 174T608 302L625 386Q594 414 541 414Q495 414 458 388T399 317T377 219Q377 129 456 129Z" />
<glyph unicode="A" glyph-name="A" horiz-adv-x="688" d="M-10 0L293 710H403L694 0H562L498 162H188L122 0H-10ZM233 271H456L346 550L233 271Z" />
<glyph unicode="B" glyph-name="B" horiz-adv-x="633" d="M73 0V710H309Q444 710 516 661T589 516Q589 465 564 424T493 360Q542 341 571 300T600 203Q600 110 531 55T342 0H73ZM311 604H200V411H309Q385 411 422 434T459 510Q459 558 424 581T311 604ZM200 106H339Q400
106 435 130T471 206Q471 303 336 303H200V106Z" />
<glyph unicode="C" glyph-name="C" horiz-adv-x="668" d="M675 138Q633 67 559 29T393 -9Q284 -9 206 33T87 153T45 341Q45 454 91 539T219 672T409 720Q501 720 566 685T676 579L576 507Q549 557 505 580T408 603Q340 603 288 570T207 479T177 343Q177 232 234
170T395 108Q452 108 500 134T578 213L675 138Z" />
<glyph unicode="D" glyph-name="D" horiz-adv-x="748" d="M73 0V710H284Q491 710 597 621T703 358Q703 250 656 170T523 45T321 0H73ZM203 115H316Q441 115 506 175T571 353Q571 475 505 535T301 595H203V115Z" />
<glyph unicode="E" glyph-name="E" horiz-adv-x="565" d="M530 598H200V415H514V303H200V112H542L533 0H73V710H530V598Z" />
<glyph unicode="F" glyph-name="F" horiz-adv-x="514" d="M508 598H200V405H492V293H200V0H73V710H508V598Z" />
<glyph unicode="G" glyph-name="G" horiz-adv-x="752" d="M419 370H701V0H598L587 76Q552 30 498 11T379 -9Q277 -9 202 33T86 153T45 341Q45 454 91 539T223 672T424 720Q518 720 585 685T696 580L596 507Q569 555 523 578T422 601Q348 601 294 569T210 478T180
343Q180 231 236 170T392 108Q439 108 481 125T549 175T576 258V264H419V370Z" />
<glyph unicode="H" glyph-name="H" horiz-adv-x="742" d="M73 0V710H203V416H539V710H670V0H539V302H203V0H73Z" />
<glyph unicode="I" glyph-name="I" horiz-adv-x="276" d="M73 0V710H203V0H73Z" />
<glyph unicode="J" glyph-name="J" horiz-adv-x="480" d="M191 -9Q110 -9 53 29T-24 139L83 187Q98 146 123 126T190 105Q279 105 279 215V710H410V228Q410 114 354 53T191 -9Z" />
<glyph unicode="K" glyph-name="K" horiz-adv-x="630" d="M73 0V710H203V393L498 710H656L322 356Q364 334 394 286L474 162Q495 130 515 118T565 106Q601 106 628 124L658 23Q639 8 610 0T548 -9Q435 -9 372 90L269 248Q255 269 241 280T203 297V0H73Z" />
<glyph unicode="L" glyph-name="L" horiz-adv-x="514" d="M73 0V710H203V114H519L510 0H73Z" />
<glyph unicode="M" glyph-name="M" horiz-adv-x="934" d="M69 0L96 710H209L469 163L728 710H841L863 0H738L724 442L513 0H415L207 439L189 0H69Z" />
<glyph unicode="N" glyph-name="N" horiz-adv-x="738" d="M540 710H665V0H551L198 495V0H73V710H187L540 215V710Z" />
<glyph unicode="O" glyph-name="O" horiz-adv-x="777" d="M389 -9Q281 -10 204 31T86 152T45 342Q45 453 89 538T213 672T404 720Q502 720 576 676T691 554T732 369Q732 254 688 170T566 38T389 -9ZM385 108Q448 108 496 139T572 228T600 369Q600 476 546 540T401
604Q336 604 286 571T206 480T177 344Q177 231 232 170T385 108Z" />
<glyph unicode="P" glyph-name="P" horiz-adv-x="624" d="M200 0H73V710H323Q461 710 534 654T607 492Q607 385 528 325T298 264H200V0ZM318 604H200V371H305Q395 371 436 400T477 490Q477 551 439 577T318 604Z" />
<glyph unicode="Q" glyph-name="Q" horiz-adv-x="777" d="M701 -64Q692 -136 644 -172T524 -209Q427 -209 372 -155T317 -4Q189 15 117 105T45 342Q45 453 89 538T213 672T404 720Q502 720 576 676T691 554T732 369Q732 265 696 186T594 57T444 -5V-7Q444 -59
464 -82T525 -106Q554 -106 573 -92T596 -51L701 -64ZM385 108Q448 108 496 139T572 228T600 369Q600 476 546 540T401 604Q336 604 286 571T206 480T177 344Q177 231 232 170T385 108Z" />
<glyph unicode="R" glyph-name="R" horiz-adv-x="627" d="M634 124L664 23Q644 8 615 0T554 -9Q442 -9 378 90L275 248Q259 273 242 283T205 293H200V0H73V710H294Q429 710 498 654T568 500Q568 441 542 399T471 331T369 299Q399 283 424 245L480 162Q502 130
521 118T571 106Q606 106 634 124ZM285 604H200V395H279Q361 395 400 420T439 500Q439 604 285 604Z" />
<glyph unicode="S" glyph-name="S" horiz-adv-x="586" d="M294 -9Q169 -9 99 47T19 211L141 229Q159 101 300 101Q361 101 395 125T429 194Q429 234 395 254T286 293Q216 310 166 333T90 397T63 503Q63 566 95 615T185 692T317 720Q416 720 479 668T553 525L439
506Q418 610 311 610Q259 610 227 583T194 512Q194 468 226 445T335 403Q404 387 454 366T531 306T559 202Q559 140 526 93T433 18T294 -9Z" />
<glyph unicode="T" glyph-name="T" horiz-adv-x="574" d="M588 710L572 596H352V0H222V596H-6V710H588Z" />
<glyph unicode="U" glyph-name="U" horiz-adv-x="745" d="M545 710H674L675 332Q676 226 641 150T538 32T375 -9Q223 -9 147 67T70 301V710H200V311Q200 204 243 156T373 108Q460 108 503 164T546 338L545 710Z" />
<glyph unicode="V" glyph-name="V" horiz-adv-x="628" d="M524 710H654L395 0H214L-1 710H137L312 109L524 710Z" />
<glyph unicode="W" glyph-name="W" horiz-adv-x="984" d="M858 710H982L776 0H628L499 542L345 0H196L20 710H151L279 167L431 710H582L709 170L858 710Z" />
<glyph unicode="X" glyph-name="X" horiz-adv-x="613" d="M138 0H-6L234 360L8 710H155L309 470L464 710H603L376 366L613 0H464L304 254L138 0Z" />
<glyph unicode="Y" glyph-name="Y" horiz-adv-x="587" d="M608 710L360 318V0H229V315L-26 710H121L300 431L472 710H608Z" />
<glyph unicode="Z" glyph-name="Z" horiz-adv-x="623" d="M38 0V94L421 596H55V710H592V616L209 114H604L595 0H38Z" />
<glyph unicode="[" glyph-name="bracketleft" horiz-adv-x="307" d="M299 -200H73V740H299V647H192V-107H299V-200Z" />
<glyph unicode="\" glyph-name="backslash" horiz-adv-x="359" d="M359 -200H243L-7 740H109L359 -200Z" />
<glyph unicode="]" glyph-name="bracketright" horiz-adv-x="307" d="M8 -200V-107H115V647H8V740H234V-200H8Z" />
<glyph unicode="^" glyph-name="asciicircum" horiz-adv-x="600" d="M344 600L561 107H447L300 452L151 107H39L255 600H344Z" />
<glyph unicode="_" glyph-name="underscore" horiz-adv-x="516" d="M27 -102V0H489V-102H27Z" />
<glyph unicode="`" glyph-name="grave" horiz-adv-x="643" d="M281 573L144 718L271 750L389 573H281Z" />
<glyph unicode="a" glyph-name="a" horiz-adv-x="602" d="M537 503V0H413L417 88Q390 42 347 17T247 -9Q181 -9 135 21T65 106T41 230Q41 314 74 377T164 477T294 513Q342 513 379 493T436 438L448 503H537ZM303 405Q241 405 204 358T167 235Q167 170 195 134T272
98Q312 98 344 121T396 185T415 279Q415 338 385 371T303 405Z" />
<glyph unicode="b" glyph-name="b" horiz-adv-x="602" d="M65 0V740H187V505L183 413Q210 461 253 487T354 513Q421 513 467 482T537 397T561 274Q561 190 528 126T438 27T308 -9Q259 -9 222 11T166 66L154 0H65ZM298 98Q361 98 398 146T435 270Q435 334 407 369T330
405Q289 405 257 383T206 320T187 226Q187 167 217 133T298 98Z" />
<glyph unicode="c" glyph-name="c" horiz-adv-x="493" d="M290 -9Q175 -9 108 57T41 243Q41 323 74 384T166 479T302 513Q366 513 414 488T492 410L405 344Q386 376 362 390T302 404Q243 404 206 360T168 244Q168 174 201 137T298 99Q331 99 359 114T407 161L492
93Q458 38 406 15T290 -9Z" />
<glyph unicode="d" glyph-name="d" horiz-adv-x="602" d="M537 740V0H413L417 88Q390 41 347 16T247 -9Q181 -9 135 21T65 106T41 230Q41 314 74 377T164 477T294 513Q332 513 363 500T416 464L415 505V740H537ZM303 405Q241 405 204 358T167 235Q167 170 195
134T272 98Q312 98 344 121T396 185T415 279Q415 338 385 371T303 405Z" />
<glyph unicode="e" glyph-name="e" horiz-adv-x="543" d="M306 -9Q224 -9 165 21T73 109T41 245Q41 324 74 384T163 479T292 513Q409 513 464 434T503 214H165Q169 161 208 129T315 97Q347 97 379 111T435 154L506 82Q472 39 424 15T306 -9ZM294 421Q243 421 210
389T168 303H398Q400 365 371 393T294 421Z" />
<glyph unicode="f" glyph-name="f" horiz-adv-x="362" d="M90 0V403H-6V505H90V532Q90 599 117 647T192 723T302 750Q376 750 420 714T474 604L370 592Q367 618 348 632T299 647Q258 647 235 620T211 543V505H361V403H213V0H90Z" />
<glyph unicode="g" glyph-name="g" horiz-adv-x="606" d="M247 -210Q203 -210 153 -201T69 -171L99 -65Q132 -82 170 -92T253 -102Q342 -102 379 -60T420 72L422 103Q394 56 352 32T252 7Q184 7 137 36T65 117T41 236Q41 317 73 379T163 477T296 513Q346 513 383
493T440 438L452 503H541V87Q541 -62 463 -136T247 -210ZM305 405Q242 405 205 360T167 244Q167 182 196 148T275 114Q316 114 348 136T400 198T419 286Q419 342 388 373T305 405Z" />
<glyph unicode="h" glyph-name="h" horiz-adv-x="603" d="M65 0V740H187L188 505L181 379Q211 443 260 478T374 513Q459 513 502 455T545 287L543 0H421L423 277Q424 336 405 367T342 399Q309 399 281 380T232 316T199 193T186 0H65Z" />
<glyph unicode="i" glyph-name="i" horiz-adv-x="252" d="M187 505V0H65V505H187ZM126 585Q90 585 69 607T48 660Q48 691 69 713T126 735Q162 735 183 713T204 660Q204 629 183 607T126 585Z" />
<glyph unicode="j" glyph-name="j" horiz-adv-x="264" d="M-18 -203Q-49 -203 -77 -199T-127 -185L-107 -84Q-90 -90 -68 -94T-22 -98Q30 -98 53 -69T77 17V505H199V16Q199 -89 140 -146T-18 -203ZM138 585Q102 585 81 607T60 660Q60 691 81 713T138 735Q174 735
195 713T216 660Q216 629 195 607T138 585Z" />
<glyph unicode="k" glyph-name="k" horiz-adv-x="527" d="M65 0V740H187V298L387 504H534L299 261Q322 247 339 222L391 144Q424 94 479 94Q507 94 532 108L560 18Q536 3 511 -3T456 -9Q400 -8 362 13T291 83L238 161Q211 203 187 218V0H65Z" />
<glyph unicode="l" glyph-name="l" horiz-adv-x="292" d="M211 -9Q139 -9 102 30T65 141V740H187V151Q187 97 237 97Q262 97 281 109L311 20Q295 8 268 0T211 -9Z" />
<glyph unicode="m" glyph-name="m" horiz-adv-x="946" d="M65 0V505H187L181 381Q212 450 261 481T368 513Q423 513 465 483T525 389Q557 452 609 482T718 513Q802 513 845 455T888 287L886 0H764L766 283Q766 338 746 368T684 399Q655 399 629 381T582 317T549
195T536 0H415V283Q415 338 396 368T335 399Q306 399 280 381T233 317T200 195T186 0H65Z" />
<glyph unicode="n" glyph-name="n" horiz-adv-x="603" d="M65 0V505H187L181 378Q210 443 260 478T374 513Q459 513 502 455T545 287L543 0H421L423 277Q424 336 405 367T342 399Q309 399 281 380T232 316T199 193T186 0H65Z" />
<glyph unicode="o" glyph-name="o" horiz-adv-x="585" d="M302 513Q415 513 479 446T544 263Q544 185 512 124T420 27T283 -9Q170 -9 106 58T41 241Q41 319 73 380T164 477T302 513ZM287 98Q346 98 382 143T418 263Q418 331 387 368T300 405Q239 405 203 360T167
241Q167 173 198 136T287 98Z" />
<glyph unicode="p" glyph-name="p" horiz-adv-x="602" d="M65 -200V505H188L184 415Q211 462 254 487T354 513Q421 513 467 482T537 397T561 274Q561 190 528 126T438 27T307 -9Q269 -9 238 4T186 39L187 0V-200H65ZM298 98Q361 98 398 146T435 270Q435 334 407
369T330 405Q289 405 257 383T206 320T187 226Q187 167 217 133T298 98Z" />
<glyph unicode="q" glyph-name="q" horiz-adv-x="602" d="M537 503V-200H415V0L418 90Q391 43 348 17T247 -9Q181 -9 135 21T65 106T41 230Q41 314 74 377T164 477T294 513Q342 513 379 493T435 438L448 503H537ZM303 405Q241 405 204 358T167 235Q167 170 195
134T272 98Q312 98 344 121T396 185T415 279Q415 338 385 371T303 405Z" />
<glyph unicode="r" glyph-name="r" horiz-adv-x="408" d="M389 387Q369 394 338 394Q284 394 251 355T203 229T187 0H66V326L65 505H187L181 364Q207 445 253 479T353 513Q369 513 383 511T409 505L389 387Z" />
<glyph unicode="s" glyph-name="s" horiz-adv-x="472" d="M242 -9Q138 -9 83 30T19 141L122 166Q128 128 157 108T240 87Q284 87 306 101T329 139Q329 163 305 176T229 199Q172 210 132 227T70 273T48 351Q48 397 74 433T145 491T250 513Q329 513 379 476T440
381L339 354Q332 383 309 399T247 416Q208 416 188 400T167 360Q167 336 190 323T271 297Q324 286 363 270T426 225T449 148Q449 101 423 66T349 11T242 -9Z" />
<glyph unicode="t" glyph-name="t" horiz-adv-x="405" d="M279 -9Q188 -9 138 41T88 172L92 403H6V505H94L95 609H217L215 505H380V403H214L211 185Q210 144 231 121T296 97Q319 97 339 103T381 125L417 31Q394 11 358 1T279 -9Z" />
<glyph unicode="u" glyph-name="u" horiz-adv-x="591" d="M226 -9Q142 -9 100 48T58 206L60 505H182L180 217Q179 165 198 135T258 105Q290 105 317 124T365 188T396 311T408 505H526V0H403L410 115Q380 54 333 23T226 -9Z" />
<glyph unicode="v" glyph-name="v" horiz-adv-x="524" d="M414 505H536L347 0H173L13 505H145L267 99L414 505Z" />
<glyph unicode="w" glyph-name="w" horiz-adv-x="865" d="M749 505H870L691 0H541L442 337L324 0H174L15 505H142L254 119L386 505H506L617 116L749 505Z" />
<glyph unicode="x" glyph-name="x" horiz-adv-x="501" d="M133 0H-9L178 257L1 505H149L253 359L358 505H500L321 262L507 0H358L247 161L133 0Z" />
<glyph unicode="y" glyph-name="y" horiz-adv-x="596" d="M242 -210Q197 -210 147 -201T63 -171L93 -65Q127 -82 165 -92T248 -102Q336 -102 373 -61T414 72L418 138Q388 74 339 41T228 7Q143 7 100 64T58 222L60 505H182L180 232Q180 180 198 151T259 121Q305
121 339 156T392 275T413 505H531V87Q531 -65 455 -137T242 -210Z" />
<glyph unicode="z" glyph-name="z" horiz-adv-x="459" d="M30 0V91L279 403H40V505H432V417L183 102H431V0H30Z" />
<glyph unicode="{" glyph-name="braceleft" horiz-adv-x="393" d="M251 -48Q251 -84 275 -106T341 -131L326 -206Q228 -197 177 -152T125 -41Q125 -8 137 25T161 90T173 147Q173 184 150 206T61 229V313Q126 313 149 335T173 395Q173 421 161 452T137 516T125
583Q125 648 176 693T326 748L341 673Q300 670 276 648T251 590Q251 558 263 529T287 469T299 402Q299 358 269 322T171 271Q238 256 268 220T299 140Q299 104 287 74T263 14T251 -48Z" />
<glyph unicode="|" glyph-name="bar" horiz-adv-x="288" d="M83 -200V740H205V-200H83Z" />
<glyph unicode="}" glyph-name="braceright" horiz-adv-x="393" d="M142 -48Q142 -16 130 13T106 73T94 140Q94 184 125 220T222 271Q156 286 125 322T94 402Q94 438 106 468T130 528T142 590Q142 626 118 648T53 673L67 748Q166 739 217 694T268 583Q268 550
256 517T232 452T220 395Q220 358 243 336T332 313V229Q267 229 244 207T220 147Q220 121 232 90T256 26T268 -41Q268 -106 217 -151T67 -206L53 -131Q93 -128 117 -106T142 -48Z" />
<glyph unicode="~" glyph-name="asciitilde" horiz-adv-x="600" d="M404 169Q382 169 354 177T296 197T240 216T195 225Q167 225 148 214T115 178L53 235Q75 284 112 310T196 336Q218 336 246 328T304 308T360 289T405 281Q433 281 452 292T485 327L547 270Q525
221 488 195T404 169Z" />
<glyph unicode="&#xa0;" glyph-name="uni00A0" horiz-adv-x="243" />
<glyph unicode="&#xa1;" glyph-name="exclamdown" horiz-adv-x="241" d="M120 361Q85 361 63 382T41 437Q41 470 63 492T120 514Q157 514 178 492T200 437Q200 405 179 383T120 361ZM43 -200L79 291H162L182 -200H43Z" />
<glyph unicode="&#xa2;" glyph-name="cent" horiz-adv-x="600" d="M287 -120V-6Q192 6 138 71T83 243Q83 313 108 368T179 460T287 508V625H373V512Q426 507 466 482T534 410L447 344Q428 376 404 390T343 404Q285 404 248 360T210 244Q210 174 243 137T340 99Q373
99 401 114T449 161L534 93Q506 47 465 24T373 -7V-120H287Z" />
<glyph unicode="&#xa3;" glyph-name="sterling" horiz-adv-x="600" d="M95 -12L42 71Q95 94 123 133T152 220Q152 242 147 265T133 313H13V398H106Q100 421 96 445T91 494Q91 557 123 608T212 690T340 720Q431 720 491 674T575 543L476 501Q444 609 339 609Q283
609 251 577T218 491Q218 465 222 442T234 398H403V313H261Q265 295 267 276T270 236Q270 175 242 133Q252 135 263 135Q290 135 318 126T373 109T425 100Q477 100 506 147L578 90Q557 44 516 17T425 -11Q398 -11 360 -1T283 20T212 30Q147 30 95 -12Z" />
<glyph unicode="&#xa4;" glyph-name="currency" horiz-adv-x="600" d="M102 82L36 148L97 209Q77 239 67 274T56 348Q56 385 66 420T95 484L36 543L102 609L158 552Q188 574 224 586T300 599Q339 599 374 587T438 555L498 614L564 548L503 487Q523 457 533 422T544
348Q544 308 533 272T501 206L558 149L492 83L436 140Q407 120 373 109T300 98Q261 98 226 109T161 142L102 82ZM300 199Q339 199 370 219T421 273T440 348Q440 389 421 423T371 477T300 497Q261 498 230 478T179 423T160 348Q160 307 178 273T228 219T300 199Z"
/>
<glyph unicode="&#xa5;" glyph-name="yen" horiz-adv-x="600" d="M79 137V222H239V295H79V380H213L1 710H147L309 457L465 710H602L393 380H521V295H370V222H521V137H370V0H239V137H79Z" />
<glyph unicode="&#xa6;" glyph-name="brokenbar" horiz-adv-x="288" d="M83 380V740H205V380H83ZM205 160V-200H83V160H205Z" />
<glyph unicode="&#xa7;" glyph-name="section" horiz-adv-x="515" d="M449 151Q449 105 423 69T351 11T246 -10Q167 -10 117 27T57 122L155 149Q162 120 185 103T249 86Q288 86 308 102T329 143Q329 166 309 179T257 201T188 218T120 241T67 280T47 347Q47 384
65 411T115 455Q93 472 80 497T67 559Q67 605 93 641T164 699T270 720Q349 720 399 683T458 588L360 561Q353 590 330 607T267 624Q227 624 207 608T186 567Q186 544 206 531T259 509T327 492T395 469T448 430T469 363Q469 326 451 299T401 255Q422 238 435 213T449
151ZM166 368Q166 344 187 332T241 312T309 295Q327 300 338 312T349 343Q349 366 329 378T275 398T207 415Q188 410 177 398T166 368Z" />
<glyph unicode="&#xa8;" glyph-name="dieresis" horiz-adv-x="671" d="M238 568Q203 568 184 589T165 636Q165 662 184 682T238 703Q271 703 289 683T308 636Q308 610 290 589T238 568ZM434 568Q399 568 381 589T362 636Q362 662 380 682T434 703Q467 703 486
683T505 636Q505 610 486 589T434 568Z" />
<glyph unicode="&#xa9;" glyph-name="copyright" horiz-adv-x="823" d="M413 -11Q335 -11 269 16T152 92T73 207T45 349Q45 426 73 491T151 606T268 682T413 709Q490 709 556 682T672 606T750 492T778 349Q778 273 750 207T672 92T556 16T413 -11ZM413 38Q478
38 534 62T632 128T699 227T723 350Q723 416 699 472T633 571T534 636T413 660Q347 660 291 637T192 571T126 473T102 350Q102 284 125 227T191 128T290 62T413 38ZM584 232Q559 192 516 171T419 149Q322 149 268 200T213 342Q213 404 240 451T315 524T427 551Q482
551 519 531T585 470L507 418Q494 443 472 454T426 465Q378 465 348 432T317 344Q317 292 344 263T421 234Q444 234 468 247T509 287L584 232Z" />
<glyph unicode="&#xaa;" glyph-name="ordfeminine" horiz-adv-x="363" d="M324 465H229L231 500Q201 459 144 459Q86 459 55 497T24 594Q24 641 44 676T97 730T172 750Q197 750 217 740T249 712L256 744H324V465ZM181 672Q153 672 138 651T122 597Q122 568 134
553T167 537Q192 537 210 559T229 616Q229 642 216 657T181 672Z" />
<glyph unicode="&#xab;" glyph-name="guillemotleft" horiz-adv-x="512" d="M150 70L33 229V277L150 436H282L146 253L282 70H150ZM366 70L249 229V277L366 436H498L362 253L498 70H366Z" />
<glyph unicode="&#xac;" glyph-name="logicalnot" horiz-adv-x="600" d="M53 308H547V0H430V197H53V308Z" />
<glyph unicode="&#xad;" glyph-name="uni00AD" horiz-adv-x="419" d="M60 201V311H359V201H60Z" />
<glyph unicode="&#xae;" glyph-name="registered" horiz-adv-x="823" d="M413 -11Q335 -11 268 16T151 93T73 207T45 349Q45 425 73 491T151 606T267 682T413 709Q490 709 556 682T672 606T750 491T778 349Q778 273 750 208T673 93T557 17T413 -11ZM413 38Q478
38 534 62T633 128T699 227T723 350Q723 416 699 472T633 570T535 636T413 660Q347 660 291 637T192 571T126 473T102 350Q102 284 125 227T191 128T290 62T413 38ZM546 151Q505 151 481 166T442 205T417 251T395 289T362 305V157H262V548H396Q474 548 517 516T560
424Q560 385 537 356T472 315Q494 303 505 284T527 251T561 236Q583 236 599 246L623 173Q594 151 546 151ZM390 478H362V371H385Q425 371 442 385T459 425Q459 478 390 478Z" />
<glyph unicode="&#xaf;" glyph-name="overscore" horiz-adv-x="625" d="M149 681H477V597H149V681Z" />
<glyph unicode="&#xb0;" glyph-name="degree" horiz-adv-x="384" d="M192 410Q148 410 113 430T58 484T37 564Q37 608 57 642T113 697T192 717Q237 717 272 697T327 643T347 564Q347 519 327 485T272 430T192 410ZM192 483Q225 483 247 505T270 565Q270 600 248
622T192 645Q159 645 137 623T115 565Q115 528 137 506T192 483Z" />
<glyph unicode="&#xb1;" glyph-name="plusminus" horiz-adv-x="600" d="M246 505H354V379H498V278H354V152H246V278H102V379H246V505ZM53 0V100H547V0H53Z" />
<glyph unicode="&#xb2;" glyph-name="uni00B2" horiz-adv-x="330" d="M31 382Q110 438 152 493T195 588Q195 635 150 635Q105 635 87 578L17 614Q32 660 72 687T164 715Q222 715 257 683T292 596Q292 543 258 493T148 393H301V319H31V382Z" />
<glyph unicode="&#xb3;" glyph-name="uni00B3" horiz-adv-x="330" d="M136 313Q107 313 76 321T27 340L49 417Q94 394 139 394Q169 394 186 405T203 440Q203 460 189 471T142 483H114V549H135Q194 549 194 595Q194 613 183 624T151 635Q131 635 115 624T89 590L26
632Q43 668 79 691T166 715Q222 715 257 686T292 607Q291 576 275 552T234 520Q300 500 300 433Q300 379 254 346T136 313Z" />
<glyph unicode="&#xb4;" glyph-name="acute" horiz-adv-x="641" d="M279 573L398 750L524 718L388 573H279Z" />
<glyph unicode="&#xb5;" glyph-name="uni00B5" horiz-adv-x="591" d="M408 505H526V0H407L413 125Q385 59 343 25T250 -9Q226 -9 207 -6T173 10L179 -200H58V505H182L179 211Q179 161 198 133T257 105Q290 105 317 124T364 188T395 311T408 505Z" />
<glyph unicode="&#xb6;" glyph-name="paragraph" horiz-adv-x="721" d="M17 489Q17 594 92 652T308 710H451V0H324V264H298Q165 264 91 323T17 489ZM521 710H649V0H521V710Z" />
<glyph unicode="&#xb7;" glyph-name="middot" horiz-adv-x="247" d="M124 185Q85 185 62 208T39 268Q39 303 62 327T124 351Q163 351 186 327T209 268Q209 232 186 209T124 185Z" />
<glyph unicode="&#xb8;" glyph-name="cedilla" horiz-adv-x="618" d="M279 -223Q248 -223 216 -217T163 -200L190 -137Q232 -155 278 -155Q298 -155 310 -148T322 -126Q322 -115 313 -108T278 -101H223L281 18H362L336 -41Q423 -57 423 -127Q423 -171 385 -197T279 -223Z" />
<glyph unicode="&#xb9;" glyph-name="uni00B9" horiz-adv-x="330" d="M47 393H136V586L75 544L28 610L178 710H234V393H316V319H47V393Z" />
<glyph unicode="&#xba;" glyph-name="ordmasculine" horiz-adv-x="350" d="M181 750Q248 750 286 712T325 612Q325 544 281 502T167 459Q101 459 63 497T24 598Q24 665 68 707T181 750ZM172 534Q199 534 216 555T234 611Q234 641 218 658T178 675Q150 675 133
654T116 598Q116 568 131 551T172 534Z" />
<glyph unicode="&#xbb;" glyph-name="guillemotright" horiz-adv-x="512" d="M146 70H14L150 253L14 436H146L263 277V229L146 70ZM362 70H230L366 253L230 436H362L479 277V229L362 70Z" />
<glyph unicode="&#xbc;" glyph-name="onequarter" horiz-adv-x="815" d="M47 393H136V586L75 544L28 610L178 710H234V393H316V319H47V393ZM181 0L531 710H634L284 0H181ZM803 88H757V0H670V88H504V148L689 392H757V150H803V88ZM577 150H670V273L577 150Z" />
<glyph unicode="&#xbd;" glyph-name="onehalf" horiz-adv-x="815" d="M47 393H136V586L75 544L28 610L178 710H234V393H316V319H47V393ZM181 0L531 710H634L284 0H181ZM516 63Q595 119 637 174T680 269Q680 316 635 316Q590 316 572 259L502 295Q517 341 557 368T649
396Q707 396 742 364T777 277Q777 224 743 174T633 74H786V0H516V63Z" />
<glyph unicode="&#xbe;" glyph-name="threequarters" horiz-adv-x="815" d="M136 313Q107 313 76 321T27 340L49 417Q94 394 139 394Q169 394 186 405T203 440Q203 460 189 471T142 483H114V549H135Q194 549 194 595Q194 613 183 624T151 635Q131 635 115 624T89
590L26 632Q43 668 79 691T166 715Q222 715 257 686T292 607Q291 576 275 552T234 520Q300 500 300 433Q300 379 254 346T136 313ZM181 0L531 710H634L284 0H181ZM803 88H757V0H670V88H504V148L689 392H757V150H803V88ZM577 150H670V273L577 150Z" />
<glyph unicode="&#xbf;" glyph-name="questiondown" horiz-adv-x="511" d="M291 361Q256 361 234 383T211 438Q211 471 233 492T291 514Q326 514 348 493T370 438Q370 405 348 383T291 361ZM261 -211Q200 -211 153 -189T78 -128T51 -36Q51 19 76 61T157 147Q204
184 223 216T244 294L337 289Q342 218 322 169T251 79Q209 45 193 22T177 -29Q177 -61 202 -80T274 -99Q379 -99 416 14L510 -35Q484 -116 417 -163T261 -211Z" />
<glyph unicode="&#xc0;" glyph-name="Agrave" horiz-adv-x="688" d="M-10 0L293 710H403L694 0H562L498 162H188L122 0H-10ZM233 271H456L346 550L233 271ZM291 778L154 923L281 955L399 778H291Z" />
<glyph unicode="&#xc1;" glyph-name="Aacute" horiz-adv-x="688" d="M-10 0L293 710H403L694 0H562L498 162H188L122 0H-10ZM233 271H456L346 550L233 271ZM289 778L408 955L534 923L398 778H289Z" />
<glyph unicode="&#xc2;" glyph-name="Acircumflex" horiz-adv-x="688" d="M-10 0L293 710H403L694 0H562L498 162H188L122 0H-10ZM233 271H456L346 550L233 271ZM527 778H412L345 869L278 778H163L294 945H396L527 778Z" />
<glyph unicode="&#xc3;" glyph-name="Atilde" horiz-adv-x="688" d="M-10 0L293 710H403L694 0H562L498 162H188L122 0H-10ZM233 271H456L346 550L233 271ZM424 773Q397 773 367 787T308 815T258 830Q241 830 225 817T198 779L150 818Q162 869 192 895T266 921Q293
921 324 907T383 879T432 864Q451 864 467 877T492 916L540 876Q528 826 498 800T424 773Z" />
<glyph unicode="&#xc4;" glyph-name="Adieresis" horiz-adv-x="688" d="M-10 0L293 710H403L694 0H562L498 162H188L122 0H-10ZM233 271H456L346 550L233 271ZM248 773Q213 773 194 794T175 841Q175 867 194 888T248 909Q281 909 299 888T318 841Q318 816 300
795T248 773ZM444 773Q409 773 391 794T372 841Q372 867 390 888T444 909Q477 909 496 888T515 841Q515 816 496 795T444 773Z" />
<glyph unicode="&#xc5;" glyph-name="Aring" horiz-adv-x="688" d="M-10 0L293 710H403L694 0H562L498 162H188L122 0H-10ZM233 271H456L346 550L233 271ZM344 773Q296 773 263 804T230 881Q230 927 264 959T348 991Q396 991 428 961T460 885Q460 837 427 805T344
773ZM345 824Q370 824 386 841T402 885Q402 909 387 924T347 940Q321 940 305 923T288 881Q288 856 304 840T345 824Z" />
<glyph unicode="&#xc6;" glyph-name="AE" horiz-adv-x="928" d="M-10 0L293 710H893V598H574V415H877V303H574V112H904L895 0H445V161H188L123 0H-10ZM233 273H445V598H366L233 273Z" />
<glyph unicode="&#xc7;" glyph-name="Ccedilla" horiz-adv-x="668" d="M675 138Q633 67 559 29T393 -9Q284 -9 206 33T87 153T45 341Q45 454 91 539T219 672T409 720Q501 720 566 685T676 579L576 507Q549 557 505 580T408 603Q340 603 288 570T207 479T177 343Q177
232 234 170T395 108Q452 108 500 134T578 213L675 138ZM370 -223Q339 -223 307 -217T254 -200L281 -137Q323 -155 369 -155Q389 -155 401 -148T413 -126Q413 -115 404 -108T369 -101H314L372 18H453L427 -41Q514 -57 514 -127Q514 -171 476 -197T370 -223Z" />
<glyph unicode="&#xc8;" glyph-name="Egrave" horiz-adv-x="565" d="M530 598H200V415H514V303H200V112H542L533 0H73V710H530V598ZM503 778L366 923L493 955L611 778H503Z" />
<glyph unicode="&#xc9;" glyph-name="Eacute" horiz-adv-x="565" d="M530 598H200V415H514V303H200V112H542L533 0H73V710H530V598ZM501 778L620 955L746 923L610 778H501Z" />
<glyph unicode="&#xca;" glyph-name="Ecircumflex" horiz-adv-x="565" d="M530 598H200V415H514V303H200V112H542L533 0H73V710H530V598ZM739 778H624L557 869L490 778H375L506 945H608L739 778Z" />
<glyph unicode="&#xcb;" glyph-name="Edieresis" horiz-adv-x="565" d="M530 598H200V415H514V303H200V112H542L533 0H73V710H530V598ZM460 773Q425 773 406 794T387 841Q387 867 406 888T460 909Q493 909 511 888T530 841Q530 816 512 795T460 773ZM656 773Q621
773 603 794T584 841Q584 867 602 888T656 909Q689 909 708 888T727 841Q727 816 708 795T656 773Z" />
<glyph unicode="&#xcc;" glyph-name="Igrave" horiz-adv-x="276" d="M73 0V710H203V0H73ZM84 778L-53 923L74 955L192 778H84Z" />
<glyph unicode="&#xcd;" glyph-name="Iacute" horiz-adv-x="276" d="M73 0V710H203V0H73ZM82 778L201 955L327 923L191 778H82Z" />
<glyph unicode="&#xce;" glyph-name="Icircumflex" horiz-adv-x="276" d="M73 0V710H203V0H73ZM320 778H205L138 869L71 778H-44L87 945H189L320 778Z" />
<glyph unicode="&#xcf;" glyph-name="Idieresis" horiz-adv-x="276" d="M73 0V710H203V0H73ZM41 773Q6 773 -13 794T-32 841Q-32 867 -13 888T41 909Q74 909 92 888T111 841Q111 816 93 795T41 773ZM237 773Q202 773 184 794T165 841Q165 867 183 888T237 909Q270
909 289 888T308 841Q308 816 289 795T237 773Z" />
<glyph unicode="&#xd0;" glyph-name="Eth" horiz-adv-x="748" d="M73 0V710H284Q491 710 597 621T703 358Q703 250 656 170T523 45T321 0H73ZM203 115H316Q441 115 506 175T571 353Q571 475 505 535T301 595H203V115ZM11 314V406H388V314H11Z" />
<glyph unicode="&#xd1;" glyph-name="Ntilde" horiz-adv-x="738" d="M540 710H665V0H551L198 495V0H73V710H187L540 215V710ZM448 774Q421 774 391 788T332 816T282 831Q265 831 249 818T222 780L174 819Q186 870 216 896T290 922Q317 922 348 908T407 880T456
865Q475 865 491 878T516 917L564 877Q552 827 522 801T448 774Z" />
<glyph unicode="&#xd2;" glyph-name="Ograve" horiz-adv-x="777" d="M389 -9Q281 -10 204 31T86 152T45 342Q45 453 89 538T213 672T404 720Q502 720 576 676T691 554T732 369Q732 254 688 170T566 38T389 -9ZM385 108Q448 108 496 139T572 228T600 369Q600 476
546 540T401 604Q336 604 286 571T206 480T177 344Q177 231 232 170T385 108ZM334 778L197 923L324 955L442 778H334Z" />
<glyph unicode="&#xd3;" glyph-name="Oacute" horiz-adv-x="777" d="M389 -9Q281 -10 204 31T86 152T45 342Q45 453 89 538T213 672T404 720Q502 720 576 676T691 554T732 369Q732 254 688 170T566 38T389 -9ZM385 108Q448 108 496 139T572 228T600 369Q600 476
546 540T401 604Q336 604 286 571T206 480T177 344Q177 231 232 170T385 108ZM332 778L451 955L577 923L441 778H332Z" />
<glyph unicode="&#xd4;" glyph-name="Ocircumflex" horiz-adv-x="777" d="M389 -9Q281 -10 204 31T86 152T45 342Q45 453 89 538T213 672T404 720Q502 720 576 676T691 554T732 369Q732 254 688 170T566 38T389 -9ZM385 108Q448 108 496 139T572 228T600 369Q600
476 546 540T401 604Q336 604 286 571T206 480T177 344Q177 231 232 170T385 108ZM570 778H455L388 869L321 778H206L337 945H439L570 778Z" />
<glyph unicode="&#xd5;" glyph-name="Otilde" horiz-adv-x="777" d="M389 -9Q281 -10 204 31T86 152T45 342Q45 453 89 538T213 672T404 720Q502 720 576 676T691 554T732 369Q732 254 688 170T566 38T389 -9ZM385 108Q448 108 496 139T572 228T600 369Q600 476
546 540T401 604Q336 604 286 571T206 480T177 344Q177 231 232 170T385 108ZM467 773Q440 773 410 787T351 815T301 830Q284 830 268 817T241 779L193 818Q205 869 235 895T309 921Q336 921 367 907T426 879T475 864Q494 864 510 877T535 916L583 876Q571 826
541 800T467 773Z" />
<glyph unicode="&#xd6;" glyph-name="Odieresis" horiz-adv-x="777" d="M389 -9Q281 -10 204 31T86 152T45 342Q45 453 89 538T213 672T404 720Q502 720 576 676T691 554T732 369Q732 254 688 170T566 38T389 -9ZM385 108Q448 108 496 139T572 228T600 369Q600
476 546 540T401 604Q336 604 286 571T206 480T177 344Q177 231 232 170T385 108ZM291 773Q256 773 237 794T218 841Q218 867 237 888T291 909Q324 909 342 888T361 841Q361 816 343 795T291 773ZM487 773Q452 773 434 794T415 841Q415 867 433 888T487 909Q520
909 539 888T558 841Q558 816 539 795T487 773Z" />
<glyph unicode="&#xd7;" glyph-name="multiply" horiz-adv-x="600" d="M514 117L435 38L300 173L165 38L86 117L221 252L86 387L165 466L300 331L435 466L514 387L379 252L514 117Z" />
<glyph unicode="&#xd8;" glyph-name="Oslash" horiz-adv-x="777" d="M389 -9Q281 -10 204 31T86 152T45 342Q45 453 89 538T213 672T404 720Q502 720 576 676T691 554T732 369Q732 254 688 170T566 38T389 -9ZM385 108Q448 108 496 139T572 228T600 369Q600 476
546 540T401 604Q336 604 286 571T206 480T177 344Q177 231 232 170T385 108ZM175 -48L93 6L602 758L684 704L175 -48Z" />
<glyph unicode="&#xd9;" glyph-name="Ugrave" horiz-adv-x="745" d="M545 710H674L675 332Q676 226 641 150T538 32T375 -9Q223 -9 147 67T70 301V710H200V311Q200 204 243 156T373 108Q460 108 503 164T546 338L545 710ZM319 778L182 923L309 955L427 778H319Z" />
<glyph unicode="&#xda;" glyph-name="Uacute" horiz-adv-x="745" d="M545 710H674L675 332Q676 226 641 150T538 32T375 -9Q223 -9 147 67T70 301V710H200V311Q200 204 243 156T373 108Q460 108 503 164T546 338L545 710ZM317 778L436 955L562 923L426 778H317Z" />
<glyph unicode="&#xdb;" glyph-name="Ucircumflex" horiz-adv-x="745" d="M545 710H674L675 332Q676 226 641 150T538 32T375 -9Q223 -9 147 67T70 301V710H200V311Q200 204 243 156T373 108Q460 108 503 164T546 338L545 710ZM555 778H440L373 869L306 778H191L322
945H424L555 778Z" />
<glyph unicode="&#xdc;" glyph-name="Udieresis" horiz-adv-x="745" d="M545 710H674L675 332Q676 226 641 150T538 32T375 -9Q223 -9 147 67T70 301V710H200V311Q200 204 243 156T373 108Q460 108 503 164T546 338L545 710ZM276 773Q241 773 222 794T203 841Q203
867 222 888T276 909Q309 909 327 888T346 841Q346 816 328 795T276 773ZM472 773Q437 773 419 794T400 841Q400 867 418 888T472 909Q505 909 524 888T543 841Q543 816 524 795T472 773Z" />
<glyph unicode="&#xdd;" glyph-name="Yacute" horiz-adv-x="587" d="M608 710L360 318V0H229V315L-26 710H121L300 431L472 710H608ZM496 778L615 955L741 923L605 778H496Z" />
<glyph unicode="&#xde;" glyph-name="Thorn" horiz-adv-x="627" d="M200 710V603H323Q461 603 534 548T607 385Q607 278 528 218T298 157H200V0H73V710H200ZM318 497H200V264H305Q395 264 436 293T477 383Q477 444 439 470T318 497Z" />
<glyph unicode="&#xdf;" glyph-name="germandbls" horiz-adv-x="685" d="M-6 403V505H93Q98 578 133 633T229 719T367 750Q426 750 471 731T541 679T566 602Q566 563 551 536T514 487T470 448T434 413T419 374Q419 353 437 340T486 318T549 298T613 270T662 224T681
149Q681 103 656 68T585 12T479 -9Q391 -9 339 28T273 135L382 161Q398 87 481 87Q522 87 542 101T562 140Q562 164 543 177T495 199T432 217T370 242T322 284T303 354Q303 393 318 421T357 470T403 511T441 550T457 597Q457 622 434 638T366 655Q294 655 254 612T214
483V0H92V403H-6Z" />
<glyph unicode="&#xe0;" glyph-name="agrave" horiz-adv-x="602" d="M537 503V0H413L417 88Q390 42 347 17T247 -9Q181 -9 135 21T65 106T41 230Q41 314 74 377T164 477T294 513Q342 513 379 493T436 438L448 503H537ZM303 405Q241 405 204 358T167 235Q167 170
195 134T272 98Q312 98 344 121T396 185T415 279Q415 338 385 371T303 405ZM519 573L382 718L509 750L627 573H519Z" />
<glyph unicode="&#xe1;" glyph-name="aacute" horiz-adv-x="602" d="M537 503V0H413L417 88Q390 42 347 17T247 -9Q181 -9 135 21T65 106T41 230Q41 314 74 377T164 477T294 513Q342 513 379 493T436 438L448 503H537ZM303 405Q241 405 204 358T167 235Q167 170
195 134T272 98Q312 98 344 121T396 185T415 279Q415 338 385 371T303 405ZM517 573L636 750L762 718L626 573H517Z" />
<glyph unicode="&#xe2;" glyph-name="acircumflex" horiz-adv-x="602" d="M537 503V0H413L417 88Q390 42 347 17T247 -9Q181 -9 135 21T65 106T41 230Q41 314 74 377T164 477T294 513Q342 513 379 493T436 438L448 503H537ZM303 405Q241 405 204 358T167 235Q167
170 195 134T272 98Q312 98 344 121T396 185T415 279Q415 338 385 371T303 405ZM755 573H640L573 663L506 573H391L522 740H624L755 573Z" />
<glyph unicode="&#xe3;" glyph-name="atilde" horiz-adv-x="602" d="M537 503V0H413L417 88Q390 42 347 17T247 -9Q181 -9 135 21T65 106T41 230Q41 314 74 377T164 477T294 513Q342 513 379 493T436 438L448 503H537ZM303 405Q241 405 204 358T167 235Q167 170
195 134T272 98Q312 98 344 121T396 185T415 279Q415 338 385 371T303 405ZM652 567Q625 567 595 581T536 610T486 624Q469 624 453 611T426 574L378 613Q390 663 420 689T494 716Q521 716 552 702T611 673T660 659Q679 659 695 672T720 710L768 671Q756 620 726
594T652 567Z" />
<glyph unicode="&#xe4;" glyph-name="adieresis" horiz-adv-x="602" d="M537 503V0H413L417 88Q390 42 347 17T247 -9Q181 -9 135 21T65 106T41 230Q41 314 74 377T164 477T294 513Q342 513 379 493T436 438L448 503H537ZM303 405Q241 405 204 358T167 235Q167
170 195 134T272 98Q312 98 344 121T396 185T415 279Q415 338 385 371T303 405ZM476 568Q441 568 422 589T403 636Q403 662 422 682T476 703Q509 703 527 683T546 636Q546 610 528 589T476 568ZM672 568Q637 568 619 589T600 636Q600 662 618 682T672 703Q705 703
724 683T743 636Q743 610 724 589T672 568Z" />
<glyph unicode="&#xe5;" glyph-name="aring" horiz-adv-x="602" d="M537 503V0H413L417 88Q390 42 347 17T247 -9Q181 -9 135 21T65 106T41 230Q41 314 74 377T164 477T294 513Q342 513 379 493T436 438L448 503H537ZM303 405Q241 405 204 358T167 235Q167 170
195 134T272 98Q312 98 344 121T396 185T415 279Q415 338 385 371T303 405ZM572 568Q524 568 491 599T458 675Q458 722 492 753T576 785Q624 785 656 755T688 679Q688 632 655 600T572 568ZM573 619Q598 619 614 635T630 679Q630 704 615 719T575 735Q549 735 533
718T516 675Q516 650 532 635T573 619Z" />
<glyph unicode="&#xe6;" glyph-name="ae" horiz-adv-x="855" d="M231 -9Q174 -9 130 10T61 65T36 145Q36 215 88 259T243 303H356V314Q356 413 260 413Q215 413 188 393T150 335L44 355Q61 422 118 467T264 513Q321 513 366 492T437 425Q466 466 512 489T604 513Q721
513 776 434T815 214H481Q485 161 522 129T627 96Q659 96 691 110T747 153L818 82Q784 39 736 15T618 -9Q479 -9 418 92Q391 43 343 17T231 -9ZM608 422Q555 422 523 389T483 303H710Q712 365 684 393T608 422ZM247 86Q298 86 327 116T356 202V214H251Q202 214
180 197T157 150Q157 121 181 104T247 86Z" />
<glyph unicode="&#xe7;" glyph-name="ccedilla" horiz-adv-x="493" d="M290 -9Q175 -9 108 57T41 243Q41 323 74 384T166 479T302 513Q366 513 414 488T492 410L405 344Q386 376 362 390T302 404Q243 404 206 360T168 244Q168 174 201 137T298 99Q331 99 359 114T407
161L492 93Q458 38 406 15T290 -9ZM515 -223Q484 -223 452 -217T399 -200L426 -137Q468 -155 514 -155Q534 -155 546 -148T558 -126Q558 -115 549 -108T514 -101H459L517 18H598L572 -41Q659 -57 659 -127Q659 -171 621 -197T515 -223Z" />
<glyph unicode="&#xe8;" glyph-name="egrave" horiz-adv-x="543" d="M306 -9Q224 -9 165 21T73 109T41 245Q41 324 74 384T163 479T292 513Q409 513 464 434T503 214H165Q169 161 208 129T315 97Q347 97 379 111T435 154L506 82Q472 39 424 15T306 -9ZM294 421Q243
421 210 389T168 303H398Q400 365 371 393T294 421ZM492 573L355 718L482 750L600 573H492Z" />
<glyph unicode="&#xe9;" glyph-name="eacute" horiz-adv-x="543" d="M306 -9Q224 -9 165 21T73 109T41 245Q41 324 74 384T163 479T292 513Q409 513 464 434T503 214H165Q169 161 208 129T315 97Q347 97 379 111T435 154L506 82Q472 39 424 15T306 -9ZM294 421Q243
421 210 389T168 303H398Q400 365 371 393T294 421ZM490 573L609 750L735 718L599 573H490Z" />
<glyph unicode="&#xea;" glyph-name="ecircumflex" horiz-adv-x="543" d="M306 -9Q224 -9 165 21T73 109T41 245Q41 324 74 384T163 479T292 513Q409 513 464 434T503 214H165Q169 161 208 129T315 97Q347 97 379 111T435 154L506 82Q472 39 424 15T306 -9ZM294
421Q243 421 210 389T168 303H398Q400 365 371 393T294 421ZM728 573H613L546 663L479 573H364L495 740H597L728 573Z" />
<glyph unicode="&#xeb;" glyph-name="edieresis" horiz-adv-x="543" d="M306 -9Q224 -9 165 21T73 109T41 245Q41 324 74 384T163 479T292 513Q409 513 464 434T503 214H165Q169 161 208 129T315 97Q347 97 379 111T435 154L506 82Q472 39 424 15T306 -9ZM294
421Q243 421 210 389T168 303H398Q400 365 371 393T294 421ZM449 568Q414 568 395 589T376 636Q376 662 395 682T449 703Q482 703 500 683T519 636Q519 610 501 589T449 568ZM645 568Q610 568 592 589T573 636Q573 662 591 682T645 703Q678 703 697 683T716 636Q716
610 697 589T645 568Z" />
<glyph unicode="&#xec;" glyph-name="igrave" horiz-adv-x="252" d="M187 505V0H65V505H187ZM72 573L-65 718L62 750L180 573H72Z" />
<glyph unicode="&#xed;" glyph-name="iacute" horiz-adv-x="252" d="M187 505V0H65V505H187ZM70 573L189 750L315 718L179 573H70Z" />
<glyph unicode="&#xee;" glyph-name="icircumflex" horiz-adv-x="252" d="M187 505V0H65V505H187ZM308 573H193L126 663L59 573H-56L75 740H177L308 573Z" />
<glyph unicode="&#xef;" glyph-name="idieresis" horiz-adv-x="252" d="M187 505V0H65V505H187ZM29 568Q-6 568 -25 589T-44 636Q-44 662 -25 682T29 703Q62 703 80 683T99 636Q99 610 81 589T29 568ZM225 568Q190 568 172 589T153 636Q153 662 171 682T225 703Q258
703 277 683T296 636Q296 610 277 589T225 568Z" />
<glyph unicode="&#xf0;" glyph-name="eth" horiz-adv-x="588" d="M283 -9Q209 -9 155 19T71 99T41 221Q41 294 72 350T158 438T281 470Q364 470 415 421Q392 498 336 556L157 506L139 577L265 612Q214 644 150 663L190 755Q312 718 395 649L518 683L536 612L454
589Q552 470 552 299Q552 209 519 140T425 31T283 -9ZM289 98Q328 98 357 117T404 169T421 242Q421 300 389 333T300 367Q242 367 205 328T167 222Q167 165 198 132T289 98Z" />
<glyph unicode="&#xf1;" glyph-name="ntilde" horiz-adv-x="603" d="M65 0V505H187L181 378Q210 443 260 478T374 513Q459 513 502 455T545 287L543 0H421L423 277Q424 336 405 367T342 399Q309 399 281 380T232 316T199 193T186 0H65ZM639 567Q612 567 582 581T523
610T473 624Q456 624 440 611T413 574L365 613Q377 663 407 689T481 716Q508 716 539 702T598 673T647 659Q666 659 682 672T707 710L755 671Q743 620 713 594T639 567Z" />
<glyph unicode="&#xf2;" glyph-name="ograve" horiz-adv-x="585" d="M302 513Q415 513 479 446T544 263Q544 185 512 124T420 27T283 -9Q170 -9 106 58T41 241Q41 319 73 380T164 477T302 513ZM287 98Q346 98 382 143T418 263Q418 331 387 368T300 405Q239 405
203 360T167 241Q167 173 198 136T287 98ZM495 573L358 718L485 750L603 573H495Z" />
<glyph unicode="&#xf3;" glyph-name="oacute" horiz-adv-x="585" d="M302 513Q415 513 479 446T544 263Q544 185 512 124T420 27T283 -9Q170 -9 106 58T41 241Q41 319 73 380T164 477T302 513ZM287 98Q346 98 382 143T418 263Q418 331 387 368T300 405Q239 405
203 360T167 241Q167 173 198 136T287 98ZM493 573L612 750L738 718L602 573H493Z" />
<glyph unicode="&#xf4;" glyph-name="ocircumflex" horiz-adv-x="585" d="M302 513Q415 513 479 446T544 263Q544 185 512 124T420 27T283 -9Q170 -9 106 58T41 241Q41 319 73 380T164 477T302 513ZM287 98Q346 98 382 143T418 263Q418 331 387 368T300 405Q239
405 203 360T167 241Q167 173 198 136T287 98ZM731 573H616L549 663L482 573H367L498 740H600L731 573Z" />
<glyph unicode="&#xf5;" glyph-name="otilde" horiz-adv-x="585" d="M302 513Q415 513 479 446T544 263Q544 185 512 124T420 27T283 -9Q170 -9 106 58T41 241Q41 319 73 380T164 477T302 513ZM287 98Q346 98 382 143T418 263Q418 331 387 368T300 405Q239 405
203 360T167 241Q167 173 198 136T287 98ZM628 567Q601 567 571 581T512 610T462 624Q445 624 429 611T402 574L354 613Q366 663 396 689T470 716Q497 716 528 702T587 673T636 659Q655 659 671 672T696 710L744 671Q732 620 702 594T628 567Z" />
<glyph unicode="&#xf6;" glyph-name="odieresis" horiz-adv-x="585" d="M302 513Q415 513 479 446T544 263Q544 185 512 124T420 27T283 -9Q170 -9 106 58T41 241Q41 319 73 380T164 477T302 513ZM287 98Q346 98 382 143T418 263Q418 331 387 368T300 405Q239
405 203 360T167 241Q167 173 198 136T287 98ZM452 568Q417 568 398 589T379 636Q379 662 398 682T452 703Q485 703 503 683T522 636Q522 610 504 589T452 568ZM648 568Q613 568 595 589T576 636Q576 662 594 682T648 703Q681 703 700 683T719 636Q719 610 700
589T648 568Z" />
<glyph unicode="&#xf7;" glyph-name="divide" horiz-adv-x="600" d="M300 387Q272 387 253 405T234 451Q234 478 253 496T300 515Q328 515 347 497T367 451Q367 423 348 405T300 387ZM550 303V202H50V303H550ZM300 -9Q272 -9 253 9T234 55Q234 82 253 100T300
118Q328 118 347 100T367 55Q367 27 348 9T300 -9Z" />
<glyph unicode="&#xf8;" glyph-name="oslash" horiz-adv-x="585" d="M302 513Q415 513 479 446T544 263Q544 185 512 124T420 27T283 -9Q170 -9 106 58T41 241Q41 319 73 380T164 477T302 513ZM287 98Q346 98 382 143T418 263Q418 331 387 368T300 405Q239 405
203 360T167 241Q167 173 198 136T287 98ZM404 -40L330 8L376 76L428 140L616 418L648 477L694 545L767 497L721 429L669 364L481 87L450 28L404 -40Z" />
<glyph unicode="&#xf9;" glyph-name="ugrave" horiz-adv-x="591" d="M226 -9Q142 -9 100 48T58 206L60 505H182L180 217Q179 165 198 135T258 105Q290 105 317 124T365 188T396 311T408 505H526V0H403L410 115Q380 54 333 23T226 -9ZM498 573L361 718L488 750L606
573H498Z" />
<glyph unicode="&#xfa;" glyph-name="uacute" horiz-adv-x="591" d="M226 -9Q142 -9 100 48T58 206L60 505H182L180 217Q179 165 198 135T258 105Q290 105 317 124T365 188T396 311T408 505H526V0H403L410 115Q380 54 333 23T226 -9ZM496 573L615 750L741 718L605
573H496Z" />
<glyph unicode="&#xfb;" glyph-name="ucircumflex" horiz-adv-x="591" d="M226 -9Q142 -9 100 48T58 206L60 505H182L180 217Q179 165 198 135T258 105Q290 105 317 124T365 188T396 311T408 505H526V0H403L410 115Q380 54 333 23T226 -9ZM734 573H619L552 663L485
573H370L501 740H603L734 573Z" />
<glyph unicode="&#xfc;" glyph-name="udieresis" horiz-adv-x="591" d="M226 -9Q142 -9 100 48T58 206L60 505H182L180 217Q179 165 198 135T258 105Q290 105 317 124T365 188T396 311T408 505H526V0H403L410 115Q380 54 333 23T226 -9ZM455 568Q420 568 401 589T382
636Q382 662 401 682T455 703Q488 703 506 683T525 636Q525 610 507 589T455 568ZM651 568Q616 568 598 589T579 636Q579 662 597 682T651 703Q684 703 703 683T722 636Q722 610 703 589T651 568Z" />
<glyph unicode="&#xfd;" glyph-name="yacute" horiz-adv-x="596" d="M242 -210Q197 -210 147 -201T63 -171L93 -65Q127 -82 165 -92T248 -102Q336 -102 373 -61T414 72L418 138Q388 74 339 41T228 7Q143 7 100 64T58 222L60 505H182L180 232Q180 180 198 151T259
121Q305 121 339 156T392 275T413 505H531V87Q531 -65 455 -137T242 -210ZM498 573L617 750L743 718L607 573H498Z" />
<glyph unicode="&#xfe;" glyph-name="thorn" horiz-adv-x="602" d="M65 -200V740H187V505L183 414Q211 461 254 487T354 513Q421 513 467 482T537 397T561 274Q561 190 528 126T438 27T307 -9Q269 -9 238 4T186 39L187 0V-200H65ZM298 98Q361 98 398 146T435 270Q435
334 407 369T330 405Q289 405 257 383T206 320T187 226Q187 167 217 133T298 98Z" />
<glyph unicode="&#xff;" glyph-name="ydieresis" horiz-adv-x="596" d="M242 -210Q197 -210 147 -201T63 -171L93 -65Q127 -82 165 -92T248 -102Q336 -102 373 -61T414 72L418 138Q388 74 339 41T228 7Q143 7 100 64T58 222L60 505H182L180 232Q180 180 198 151T259
121Q305 121 339 156T392 275T413 505H531V87Q531 -65 455 -137T242 -210ZM457 568Q422 568 403 589T384 636Q384 662 403 682T457 703Q490 703 508 683T527 636Q527 610 509 589T457 568ZM653 568Q618 568 600 589T581 636Q581 662 599 682T653 703Q686 703 705
683T724 636Q724 610 705 589T653 568Z" />
<glyph unicode="&#x2013;" glyph-name="endash" horiz-adv-x="500" d="M20 208V310H480V208H20Z" />
<glyph unicode="&#x2014;" glyph-name="emdash" horiz-adv-x="1000" d="M20 208V310H980V208H20Z" />
<glyph unicode="&#x2018;" glyph-name="quoteleft" horiz-adv-x="247" d="M206 750Q192 717 185 689T177 638Q177 612 183 593T197 557T204 515Q204 484 182 463T122 442Q84 442 63 466T41 533Q41 564 54 603T91 681T144 750H206Z" />
<glyph unicode="&#x2019;" glyph-name="quoteright" horiz-adv-x="247" d="M41 442Q55 475 62 502T70 554Q70 580 63 598T50 635T43 677Q43 708 65 729T124 750Q163 750 184 726T206 659Q206 628 193 589T156 511T103 442H41Z" />
<glyph unicode="&#x201a;" glyph-name="quotesinglbase" horiz-adv-x="247" d="M41 -152Q55 -119 62 -91T70 -40Q70 -14 63 5T50 42T43 83Q43 114 65 135T125 156Q164 156 185 132T207 66Q207 35 194 -4T157 -82T104 -152H41Z" />
<glyph unicode="&#x201c;" glyph-name="quotedblleft" horiz-adv-x="448" d="M407 750Q393 717 386 689T378 638Q378 612 384 593T398 557T405 515Q405 484 383 463T323 442Q285 442 264 466T242 533Q242 564 255 603T292 681T345 750H407ZM206 750Q192 717 185
689T177 638Q177 612 183 593T197 557T204 515Q204 484 182 463T122 442Q84 442 63 466T41 533Q41 564 54 603T91 681T144 750H206Z" />
<glyph unicode="&#x201d;" glyph-name="quotedblright" horiz-adv-x="448" d="M241 442Q255 475 262 502T270 554Q270 580 263 598T250 635T243 677Q243 708 265 729T324 750Q363 750 384 726T406 659Q406 628 393 589T356 511T303 442H241ZM41 442Q55 475 62
502T70 554Q70 580 63 598T50 635T43 677Q43 708 65 729T124 750Q163 750 184 726T206 659Q206 628 193 589T156 511T103 442H41Z" />
<glyph unicode="&#x201e;" glyph-name="quotedblbase" horiz-adv-x="446" d="M240 -152Q254 -119 261 -91T269 -40Q269 -14 262 5T249 42T242 83Q242 114 264 135T324 156Q363 156 384 132T406 66Q406 35 393 -4T356 -82T303 -152H240ZM41 -152Q55 -119 62 -91T70
-40Q70 -14 63 5T50 42T43 83Q43 114 65 135T125 156Q164 156 185 132T207 66Q207 35 194 -4T157 -82T104 -152H41Z" />
<glyph unicode="&#x2022;" glyph-name="bullet" horiz-adv-x="444" d="M222 93Q174 93 136 115T75 176T52 264Q52 313 74 351T135 412T222 435Q270 435 308 413T370 352T393 264Q393 215 370 176T309 115T222 93Z" />
<glyph unicode="&#x2039;" glyph-name="guilsinglleft" horiz-adv-x="296" d="M150 70L33 229V277L150 436H282L146 253L282 70H150Z" />
<glyph unicode="&#x203a;" glyph-name="guilsinglright" horiz-adv-x="296" d="M146 70H14L150 253L14 436H146L263 277V229L146 70Z" />
</font>
</defs>
</svg>
