<?xml version="1.0" standalone="no"?>
<!DOCTYPE svg PUBLIC "-//W3C//DTD SVG 1.1//EN" "http://www.w3.org/Graphics/SVG/1.1/DTD/svg11.dtd">
<svg xmlns="http://www.w3.org/2000/svg">
<defs >
<font id="Livvic" horiz-adv-x="564" ><font-face
    font-family="Livvic Medium"
    units-per-em="1000"
    panose-1="0 0 0 0 0 0 0 0 0 0"
    ascent="1005"
    descent="-250"
    alphabetic="0" />
<glyph unicode=" " glyph-name="space" horiz-adv-x="235" />
<glyph unicode="!" glyph-name="exclam" horiz-adv-x="213" d="M74 191L59 740H167L138 191H74ZM106 -9Q78 -9 60 8T42 54Q42 81 60 99T106 117Q135 117 153 99T171 54Q171 27 153 9T106 -9Z" />
<glyph unicode="&quot;" glyph-name="quotedbl" horiz-adv-x="387" d="M84 438L65 710H167L148 438H84ZM238 438L219 710H321L302 438H238Z" />
<glyph unicode="#" glyph-name="numbersign" horiz-adv-x="600" d="M74 0L116 198H17L33 276H133L166 433H66L83 511H182L224 710H308L266 511H400L442 710H526L484 511H583L567 433H467L434 276H534L517 198H418L376 0H292L334 198H200L158 0H74ZM216 276H351L384
433H249L216 276Z" />
<glyph unicode="$" glyph-name="dollar" horiz-adv-x="600" d="M266 -120V-6Q172 4 117 58T52 211L146 224Q158 149 198 114T314 79Q374 79 411 108T448 190Q448 227 428 248T376 281T304 302T226 323T154 356T101 414T81 510Q81 563 105 606T170 678T266 716V830H335V719Q414
712 466 662T528 528L439 513Q416 633 307 633Q254 633 219 601T183 515Q183 474 202 451T255 414T327 391T405 371T476 340T529 285T549 194Q549 138 522 95T446 25T335 -7V-120H266Z" />
<glyph unicode="%" glyph-name="percent" horiz-adv-x="760" d="M204 410Q133 410 90 450T46 556Q46 604 68 641T128 699T217 720Q288 720 330 680T373 574Q373 527 351 490T291 432T204 410ZM110 0L565 710H650L196 0H110ZM207 472Q249 472 275 500T302 572Q302
611 279 634T216 658Q172 658 145 630T117 557Q117 518 141 495T207 472ZM545 -7Q473 -7 430 33T387 139Q387 187 408 224T468 282T558 303Q629 303 671 263T714 157Q714 110 692 73T632 15T545 -7ZM547 55Q589 55 616 83T643 155Q643 194 620 217T556 241Q512
241 485 213T458 140Q458 101 482 78T547 55Z" />
<glyph unicode="&amp;" glyph-name="ampersand" horiz-adv-x="795" d="M306 -8Q232 -8 175 18T86 90T54 199Q54 252 72 289T119 354T182 403H181Q141 446 124 482T107 561Q107 608 130 644T193 702T286 723Q362 723 407 684T452 579Q452 528 432 494T380 437T312
394L521 174Q542 206 556 247T574 338H473V417H752V338H655Q649 271 629 216T575 119Q602 94 626 84T680 73Q711 73 742 92L767 24Q724 -7 665 -7Q622 -7 585 8T512 56Q424 -8 306 -8ZM199 563Q199 536 212 512T261 449Q306 474 337 502T369 575Q369 612 347 631T288
651Q248 651 224 627T199 563ZM152 210Q152 146 198 109T322 72Q400 72 458 111L233 349Q198 326 175 294T152 210Z" />
<glyph unicode="&apos;" glyph-name="quotesingle" horiz-adv-x="233" d="M84 438L65 710H167L148 438H84Z" />
<glyph unicode="(" glyph-name="parenleft" horiz-adv-x="309" d="M289 -211Q173 -119 118 3T63 269Q63 413 118 536T289 749L330 701Q251 631 207 519T163 269Q163 130 207 18T330 -163L289 -211Z" />
<glyph unicode=")" glyph-name="parenright" horiz-adv-x="309" d="M20 -211L-21 -163Q58 -94 102 18T146 269Q146 407 102 519T-21 701L20 749Q136 659 191 536T246 269Q246 125 191 3T20 -211Z" />
<glyph unicode="*" glyph-name="asterisk" horiz-adv-x="465" d="M386 507Q405 496 411 480T407 447Q398 430 381 427T344 435Q325 446 307 465T253 512Q259 467 266 443T274 395Q274 372 263 359T233 346Q214 346 203 359T191 395Q191 418 198 442T212 512Q177
484 159 465T121 435Q101 424 84 427T58 447Q49 463 54 479T80 507Q99 518 124 524T192 547Q150 564 125 570T80 588Q38 612 58 648Q67 664 84 667T121 660Q141 648 159 629T212 582Q206 627 199 652T191 700Q191 722 202 735T233 749Q252 749 263 736T274 700Q274
677 267 652T253 582Q289 610 307 629T344 660Q364 671 381 668T407 648Q427 612 386 588Q366 577 341 571T273 547Q315 530 340 524T386 507Z" />
<glyph unicode="+" glyph-name="plus" horiz-adv-x="600" d="M255 501H346V294H547V207H346V0H255V207H53V294H255V501Z" />
<glyph unicode="," glyph-name="comma" horiz-adv-x="205" d="M37 -131Q48 -105 54 -82T60 -38Q60 -16 55 0T44 31T38 66Q38 92 56 109T104 126Q135 126 152 107T169 53Q169 26 158 -7T129 -72T87 -131H37Z" />
<glyph unicode="-" glyph-name="hyphen" horiz-adv-x="405" d="M60 212V298H345V212H60Z" />
<glyph unicode="." glyph-name="period" horiz-adv-x="205" d="M103 -9Q72 -9 53 10T34 59Q34 87 53 106T103 126Q134 126 152 107T171 59Q171 30 153 11T103 -9Z" />
<glyph unicode="/" glyph-name="slash" horiz-adv-x="335" d="M0 -200L250 740H342L92 -200H0Z" />
<glyph unicode="0" glyph-name="zero" horiz-adv-x="600" d="M299 -9Q178 -9 113 78T48 342Q48 455 80 540T172 672T311 720Q423 720 487 629T552 369Q552 253 520 169T431 38T299 -9ZM298 80Q370 80 412 153T454 370Q454 498 417 565T310 633Q236 633 192 557T147
343Q147 209 186 145T298 80Z" />
<glyph unicode="1" glyph-name="one" horiz-adv-x="600" d="M117 0V80H276V580L141 488L94 557L319 710H374V80H527V0H117Z" />
<glyph unicode="2" glyph-name="two" horiz-adv-x="600" d="M89 0V66Q215 167 286 247T386 392T416 511Q416 567 384 599T296 632Q179 632 138 505L63 542Q87 620 149 670T303 720Q364 720 412 696T487 627T515 519Q515 453 486 384T391 240T217 80H533V0H89Z" />
<glyph unicode="3" glyph-name="three" horiz-adv-x="600" d="M265 -9Q208 -9 155 4T68 41L96 126Q128 105 172 93T272 80Q343 80 386 111T430 203Q430 262 389 291T279 320H237V401H265Q339 401 378 434T417 527Q417 573 385 602T296 632Q236 632 197 600T138
505L63 542Q87 620 149 670T303 720Q369 720 416 696T489 629T515 534Q515 477 485 432T398 366Q461 349 495 307T529 199Q529 104 459 48T265 -9Z" />
<glyph unicode="4" glyph-name="four" horiz-adv-x="600" d="M371 0V197H45V265L398 712H466V277H566V197H466V0H371ZM149 277H371V558L149 277Z" />
<glyph unicode="5" glyph-name="five" horiz-adv-x="600" d="M265 -9Q208 -9 155 4T68 42L96 128Q128 107 172 94T272 80Q344 80 387 114T430 215Q430 276 382 311T215 350L112 353L138 710H494V630H228L213 434L234 433Q387 428 458 370T529 216Q529 147 497
97T405 19T265 -9Z" />
<glyph unicode="6" glyph-name="six" horiz-adv-x="600" d="M323 -9Q199 -9 134 76T68 330Q68 448 102 535T199 671T350 720Q509 720 565 563L482 525Q462 582 429 607T345 632Q267 632 216 561T165 346V344Q192 392 240 419T350 447Q410 447 458 421T534 347T562
233Q562 164 532 109T447 23T323 -9ZM321 73Q385 73 424 115T463 225Q463 288 427 326T329 365Q287 365 254 347T202 294T182 216Q182 149 220 111T321 73Z" />
<glyph unicode="7" glyph-name="seven" horiz-adv-x="600" d="M228 0H126L431 630H78V710H534V635L228 0Z" />
<glyph unicode="8" glyph-name="eight" horiz-adv-x="600" d="M300 -9Q184 -9 117 43T49 185Q49 245 85 293T181 361Q128 382 97 425T65 523Q65 580 95 624T178 694T300 720Q369 720 422 695T505 625T535 523Q535 468 504 425T419 361Q478 341 514 293T551 185Q551
96 484 44T300 -9ZM300 398Q362 398 399 430T436 515Q436 571 398 604T300 638Q240 638 202 605T164 515Q164 462 201 430T300 398ZM300 73Q371 73 411 105T452 193Q452 249 410 284T300 320Q232 320 190 285T148 193Q148 137 188 105T300 73Z" />
<glyph unicode="9" glyph-name="nine" horiz-adv-x="600" d="M277 721Q401 721 466 636T532 382Q532 264 498 177T401 41T250 -8Q91 -8 35 149L118 187Q138 130 171 105T255 80Q333 80 384 151T435 366V368Q408 320 360 293T250 265Q190 265 142 291T66 365T38
479Q38 548 68 603T153 689T277 721ZM279 639Q215 639 176 597T137 487Q137 424 173 386T271 347Q313 347 346 365T398 418T418 496Q418 563 380 601T279 639Z" />
<glyph unicode=":" glyph-name="colon" horiz-adv-x="205" d="M103 -9Q72 -9 53 10T34 59Q34 87 53 106T103 126Q134 126 152 107T171 59Q171 30 153 11T103 -9ZM103 374Q72 374 53 393T34 442Q34 470 53 489T103 509Q134 509 152 490T171 442Q171 413 153 394T103 374Z" />
<glyph unicode=";" glyph-name="semicolon" horiz-adv-x="205" d="M37 -131Q48 -105 54 -82T60 -38Q60 -16 55 0T44 31T38 66Q38 92 56 109T104 126Q135 126 152 107T169 53Q169 26 158 -7T129 -72T87 -131H37ZM103 374Q72 374 53 393T34 442Q34 470 53 489T103
509Q134 509 152 490T171 442Q171 413 153 394T103 374Z" />
<glyph unicode="&lt;" glyph-name="less" horiz-adv-x="600" d="M60 214V286L540 505V414L176 250L540 86V-5L60 214Z" />
<glyph unicode="=" glyph-name="equal" horiz-adv-x="600" d="M547 396V316H53V396H547ZM547 186V106H53V186H547Z" />
<glyph unicode="&gt;" glyph-name="greater" horiz-adv-x="600" d="M540 214L60 -5V86L424 250L60 414V505L540 286V214Z" />
<glyph unicode="?" glyph-name="question" horiz-adv-x="511" d="M247 188L175 192Q171 262 192 311T269 406Q319 449 337 477T355 540Q355 584 324 608T240 632Q123 632 83 505L8 542Q33 625 97 672T248 720Q308 720 354 699T427 638T453 545Q453 488 427 444T338
349Q290 310 270 274T247 188ZM209 -9Q181 -9 163 8T145 54Q145 81 163 99T209 117Q238 117 256 99T274 54Q274 27 256 9T209 -9Z" />
<glyph unicode="@" glyph-name="at" horiz-adv-x="979" d="M506 -212Q365 -212 263 -157T107 2T52 249Q52 355 85 442T179 593T324 690T510 725Q638 725 731 679T876 549T927 348Q927 256 900 185T824 72T716 31Q662 31 632 59T598 135Q566 87 519 59T419 31Q344
31 301 77T258 204Q258 268 279 323T338 420T425 485T531 509Q571 509 607 497T663 466L678 500L738 493L684 199Q676 155 688 131T729 107Q762 107 789 138T831 224T847 348Q847 439 806 506T689 610T510 647Q399 647 316 598T186 458T139 249Q139 67 236 -33T509
-134Q579 -134 644 -112T753 -51L802 -117Q750 -162 672 -187T506 -212ZM439 111Q500 111 548 160T612 292L633 396Q598 430 533 430Q483 430 442 400T376 320T351 209Q351 111 439 111Z" />
<glyph unicode="A" glyph-name="A" horiz-adv-x="680" d="M2 0L301 710H387L674 0H571L502 177H177L105 0H2ZM212 263H469L343 586L212 263Z" />
<glyph unicode="B" glyph-name="B" horiz-adv-x="621" d="M78 0V710H286Q429 710 499 661T570 519Q570 465 542 423T460 360Q515 341 547 298T579 199Q579 104 513 52T333 0H78ZM287 627H177V399H297Q383 399 426 427T469 516Q469 574 426 600T287 627ZM177 83H330Q398
83 438 110T478 199Q478 315 324 315H177V83Z" />
<glyph unicode="C" glyph-name="C" horiz-adv-x="657" d="M659 137Q619 66 548 29T387 -9Q283 -9 208 33T92 154T52 342Q52 454 96 539T220 672T404 720Q578 720 660 583L582 525Q553 577 507 602T402 628Q329 628 274 592T187 492T155 343Q155 220 216 152T388
84Q452 84 502 112T583 196L659 137Z" />
<glyph unicode="D" glyph-name="D" horiz-adv-x="739" d="M78 0V710H272Q687 710 687 358Q687 248 641 168T508 44T304 0H78ZM179 90H300Q440 90 512 157T584 353Q584 488 511 554T287 620H179V90Z" />
<glyph unicode="E" glyph-name="E" horiz-adv-x="552" d="M510 623H177V403H498V316H177V87H523L515 0H78V710H510V623Z" />
<glyph unicode="F" glyph-name="F" horiz-adv-x="498" d="M489 623H177V393H477V306H177V0H78V710H489V623Z" />
<glyph unicode="G" glyph-name="G" horiz-adv-x="739" d="M419 356H682V0H602L592 85Q556 37 502 14T376 -9Q277 -9 205 33T92 153T52 342Q52 454 97 539T224 672T416 720Q593 720 676 583L598 525Q569 576 522 601T413 627Q336 627 279 591T189 491T157 343Q157
218 218 151T385 84Q442 84 487 104T558 161T584 252V273H419V356Z" />
<glyph unicode="H" glyph-name="H" horiz-adv-x="729" d="M78 0V710H179V404H549V710H651V0H549V315H179V0H78Z" />
<glyph unicode="I" glyph-name="I" horiz-adv-x="257" d="M78 0V710H179V0H78Z" />
<glyph unicode="J" glyph-name="J" horiz-adv-x="463" d="M182 -9Q105 -9 51 29T-20 133L63 170Q93 81 184 81Q235 81 260 112T285 209V710H387V216Q387 108 336 50T182 -9Z" />
<glyph unicode="K" glyph-name="K" horiz-adv-x="593" d="M78 0V710H179V385L492 710H616L272 356Q313 336 343 290L438 145Q463 107 483 95T535 82Q567 82 593 98L616 20Q580 -7 521 -7Q472 -7 433 14T362 86L242 264Q231 282 216 293T179 309V0H78Z" />
<glyph unicode="L" glyph-name="L" horiz-adv-x="498" d="M78 0V710H179V88H504L496 0H78Z" />
<glyph unicode="M" glyph-name="M" horiz-adv-x="923" d="M72 0L101 710H194L463 126L732 710H825L849 0H752L735 507L500 0H419L188 504L166 0H72Z" />
<glyph unicode="N" glyph-name="N" horiz-adv-x="726" d="M552 710H649V0H561L175 541V0H78V710H166L552 169V710Z" />
<glyph unicode="O" glyph-name="O" horiz-adv-x="773" d="M384 -9Q281 -9 207 32T92 152T52 342Q52 453 96 538T218 672T401 720Q496 720 568 676T680 554T720 369Q720 254 677 170T557 39T384 -9ZM383 84Q452 84 505 117T587 215T617 370Q617 449 591 507T516
596T401 628Q329 628 274 593T187 493T155 343Q155 218 216 151T383 84Z" />
<glyph unicode="P" glyph-name="P" horiz-adv-x="610" d="M177 0H78V710H317Q447 710 517 656T588 498Q588 395 514 336T291 277H177V0ZM310 627H177V361H296Q398 361 442 395T487 497Q487 565 444 596T310 627Z" />
<glyph unicode="Q" glyph-name="Q" horiz-adv-x="773" d="M683 -71Q674 -138 630 -173T518 -209Q426 -209 375 -157T324 -6V-5Q196 12 124 102T52 342Q52 453 96 538T218 672T401 720Q496 720 568 676T680 554T720 369Q720 262 682 181T577 52T423 -6V-10Q423
-72 446 -99T519 -127Q554 -127 576 -109T602 -61L683 -71ZM383 84Q452 84 505 117T587 215T617 370Q617 449 591 507T516 596T401 628Q329 628 274 593T187 493T155 343Q155 218 216 151T383 84Z" />
<glyph unicode="R" glyph-name="R" horiz-adv-x="603" d="M612 98L635 20Q600 -7 540 -7Q492 -7 453 14T381 86L262 264Q232 309 193 309H177V0H78V710H287Q414 710 480 657T546 510Q546 447 517 404T438 338T327 311Q355 296 382 257L458 145Q483 107 502 95T555
82Q586 82 612 98ZM280 627H177V389H272Q357 389 401 417T446 508Q446 565 405 596T280 627Z" />
<glyph unicode="S" glyph-name="S" horiz-adv-x="575" d="M292 -8Q48 -8 25 211L120 224Q132 149 174 114T298 79Q365 79 403 108T442 190Q442 239 405 261T290 303Q222 319 173 341T96 402T69 510Q69 571 100 618T185 693T308 720Q404 720 464 669T536 528L447
513Q424 633 305 633Q244 633 207 601T170 515Q170 460 208 434T329 389Q395 374 443 353T517 295T543 194Q543 134 511 89T423 18T292 -8Z" />
<glyph unicode="T" glyph-name="T" horiz-adv-x="559" d="M565 710L555 622H330V0H229V622H-2V710H565Z" />
<glyph unicode="U" glyph-name="U" horiz-adv-x="732" d="M556 710H656L658 337Q658 172 583 82T365 -9Q219 -9 147 67T75 302V710H177V309Q177 190 222 137T364 84Q464 84 511 146T557 340L556 710Z" />
<glyph unicode="V" glyph-name="V" horiz-adv-x="605" d="M523 710H625L362 0H223L5 710H111L298 83L523 710Z" />
<glyph unicode="W" glyph-name="W" horiz-adv-x="957" d="M850 710H947L742 0H625L486 574L320 0H203L27 710H129L268 126L435 710H549L688 128L850 710Z" />
<glyph unicode="X" glyph-name="X" horiz-adv-x="594" d="M110 0H-4L241 362L12 710H127L300 446L475 710H584L352 365L594 0H477L295 280L110 0Z" />
<glyph unicode="Y" glyph-name="Y" horiz-adv-x="566" d="M587 710L334 320V0H233V318L-24 710H90L288 408L480 710H587Z" />
<glyph unicode="Z" glyph-name="Z" horiz-adv-x="609" d="M39 0V73L445 622H55V710H576V637L171 88H588L581 0H39Z" />
<glyph unicode="[" glyph-name="bracketleft" horiz-adv-x="283" d="M271 -200H78V740H271V667H171V-127H271V-200Z" />
<glyph unicode="\" glyph-name="backslash" horiz-adv-x="335" d="M335 -200H243L-7 740H85L335 -200Z" />
<glyph unicode="]" glyph-name="bracketright" horiz-adv-x="283" d="M12 -200V-127H112V667H12V740H205V-200H12Z" />
<glyph unicode="^" glyph-name="asciicircum" horiz-adv-x="600" d="M335 593L555 114H465L300 480L135 114H45L263 593H335Z" />
<glyph unicode="_" glyph-name="underscore" horiz-adv-x="488" d="M29 -80V0H459V-80H29Z" />
<glyph unicode="`" glyph-name="grave" horiz-adv-x="642" d="M292 573L162 723L262 750L378 573H292Z" />
<glyph unicode="a" glyph-name="a" horiz-adv-x="588" d="M518 500V0H420L424 103Q396 51 351 21T248 -9Q183 -9 139 21T71 105T48 227Q48 310 79 374T166 473T294 509Q342 509 379 488T435 431L447 500H518ZM298 424Q229 424 188 372T146 233Q146 159 178 118T264
77Q309 77 345 103T402 175T423 282Q423 348 390 386T298 424Z" />
<glyph unicode="b" glyph-name="b" horiz-adv-x="588" d="M70 0V740H166V501L162 395Q190 449 235 479T340 509Q405 509 449 479T517 396T540 274Q540 190 509 127T422 27T295 -9Q246 -9 208 13T153 71L141 0H70ZM290 77Q359 77 400 130T442 269Q442 342 410 383T324
424Q279 424 243 398T186 326T165 220Q165 153 198 115T290 77Z" />
<glyph unicode="c" glyph-name="c" horiz-adv-x="490" d="M288 -9Q176 -9 112 57T48 241Q48 321 79 381T168 475T300 509Q425 509 482 410L412 357Q375 423 299 423Q231 423 189 374T147 242Q147 162 184 120T293 78Q330 78 361 94T414 145L482 91Q450 39 401 15T288 -9Z" />
<glyph unicode="d" glyph-name="d" horiz-adv-x="588" d="M518 740V0H420L424 103Q396 51 351 21T248 -9Q183 -9 139 21T71 105T48 227Q48 310 79 374T166 473T294 509Q335 509 369 493T424 450L422 501V740H518ZM298 424Q229 424 188 372T146 233Q146 159 178
118T264 77Q309 77 345 103T402 175T423 282Q423 348 390 386T298 424Z" />
<glyph unicode="e" glyph-name="e" horiz-adv-x="539" d="M302 -9Q184 -9 116 58T48 243Q48 321 79 381T166 475T291 509Q399 509 455 435T494 219H145Q148 151 190 114T309 76Q346 76 380 92T440 142L498 86Q463 40 415 16T302 -9ZM292 435Q231 435 193 394T147
291H411Q414 367 381 401T292 435Z" />
<glyph unicode="f" glyph-name="f" horiz-adv-x="348" d="M93 0V420H-5V501H93V538Q93 603 118 650T187 724T290 750Q361 750 403 715T452 613L371 603Q363 669 288 669Q241 669 214 638T187 547V501H348V420H189V0H93Z" />
<glyph unicode="g" glyph-name="g" horiz-adv-x="592" d="M250 -210Q207 -210 160 -201T80 -173L104 -89Q138 -106 176 -115T254 -124Q346 -124 385 -79T427 63L429 117Q401 64 356 34T250 4Q184 4 139 33T71 114T48 233Q48 313 79 375T166 473T295 509Q345 509
383 488T439 431L451 500H522V77Q522 -66 452 -138T250 -210ZM300 424Q230 424 188 373T146 240Q146 168 178 129T267 89Q312 89 348 115T406 186T427 288Q427 351 393 387T300 424Z" />
<glyph unicode="h" glyph-name="h" horiz-adv-x="585" d="M70 0V740H166L167 501L160 354Q188 429 239 469T358 509Q438 509 480 454T521 294L519 0H424L426 285Q427 420 334 420Q285 420 248 382T188 252T165 0H70Z" />
<glyph unicode="i" glyph-name="i" horiz-adv-x="236" d="M165 501V0H70V501H165ZM119 598Q90 598 73 616T56 660Q56 685 73 703T119 722Q148 722 165 704T182 660Q182 635 165 617T119 598Z" />
<glyph unicode="j" glyph-name="j" horiz-adv-x="250" d="M-22 -207Q-51 -207 -78 -203T-125 -188L-106 -108Q-69 -124 -25 -124Q33 -124 58 -90T84 7V501H179V4Q179 -97 124 -152T-22 -207ZM132 598Q103 598 86 616T69 660Q69 685 86 703T132 722Q161 722 178
704T195 660Q195 635 178 617T132 598Z" />
<glyph unicode="k" glyph-name="k" horiz-adv-x="491" d="M70 0V740H166V291L374 500H491L252 260Q274 246 293 219L357 125Q377 97 398 86T446 74Q473 74 496 87L519 16Q498 3 476 -2T430 -7Q380 -7 345 12T281 75L216 168Q189 209 166 223V0H70Z" />
<glyph unicode="l" glyph-name="l" horiz-adv-x="278" d="M204 -9Q137 -9 104 27T70 127V740H166V137Q166 76 221 76Q235 76 247 80T269 89L293 18Q279 6 255 -1T204 -9Z" />
<glyph unicode="m" glyph-name="m" horiz-adv-x="926" d="M70 0V501H166L160 354Q189 434 240 471T350 509Q411 509 451 475T506 370Q536 440 588 474T699 509Q779 509 821 454T862 294L860 0H764L766 287Q767 352 745 386T674 420Q643 420 614 400T563 333T527
205T512 0H418V287Q418 352 397 386T328 420Q296 420 267 400T215 333T179 205T165 0H70Z" />
<glyph unicode="n" glyph-name="n" horiz-adv-x="585" d="M70 0V501H166L160 353Q188 428 239 468T358 509Q438 509 480 454T521 294L519 0H424L426 285Q427 420 334 420Q285 420 248 382T188 252T165 0H70Z" />
<glyph unicode="o" glyph-name="o" horiz-adv-x="575" d="M297 509Q404 509 466 442T528 261Q528 184 497 123T411 27T281 -9Q171 -9 110 58T48 240Q48 317 78 378T165 474T297 509ZM282 77Q348 77 388 127T429 261Q429 339 394 381T296 424Q228 424 187 373T146
240Q146 162 182 120T282 77Z" />
<glyph unicode="p" glyph-name="p" horiz-adv-x="588" d="M70 -200V501H167L163 397Q191 450 236 479T340 509Q405 509 449 479T517 396T540 274Q540 190 509 127T422 27T295 -9Q253 -9 219 7T164 52L166 0V-200H70ZM290 77Q359 77 400 130T442 269Q442 342 410
383T324 424Q279 424 243 398T186 326T165 220Q165 153 198 115T290 77Z" />
<glyph unicode="q" glyph-name="q" horiz-adv-x="588" d="M518 500V-200H422V0L426 106Q398 52 353 22T248 -9Q183 -9 139 21T71 105T48 227Q48 310 79 374T166 473T294 509Q342 509 379 488T435 431L447 500H518ZM298 424Q229 424 188 372T146 233Q146 159 178
118T264 77Q309 77 345 103T402 175T423 282Q423 348 390 386T298 424Z" />
<glyph unicode="r" glyph-name="r" horiz-adv-x="391" d="M372 409Q353 415 326 415Q270 415 235 373T183 239T166 0H71V322L70 501H166L160 341Q185 432 232 470T334 509Q350 509 363 508T387 502L372 409Z" />
<glyph unicode="s" glyph-name="s" horiz-adv-x="461" d="M238 -9Q140 -9 87 30T26 140L108 160Q115 114 146 91T238 68Q287 68 313 86T339 136Q339 166 312 180T227 206Q174 216 136 232T76 277T55 353Q55 398 79 433T146 488T244 509Q318 509 365 474T422 380L343
359Q327 432 242 432Q198 432 173 412T148 359Q148 331 172 314T258 284Q311 273 350 258T410 216T433 143Q433 99 409 65T340 11T238 -9Z" />
<glyph unicode="t" glyph-name="t" horiz-adv-x="385" d="M272 -9Q183 -9 137 38T91 165L95 420H8V501H96L97 605H193L191 501H361V420H190L187 173Q187 129 210 103T281 76Q304 76 324 81T366 104L395 29Q373 10 341 1T272 -9Z" />
<glyph unicode="u" glyph-name="u" horiz-adv-x="575" d="M225 -9Q146 -9 105 45T64 196L67 501H162L159 206Q159 147 180 114T249 81Q296 81 332 119T390 249T412 501H504V0H408L414 139Q385 65 336 28T225 -9Z" />
<glyph unicode="v" glyph-name="v" horiz-adv-x="506" d="M416 501H511L319 0H185L24 501H127L257 77L416 501Z" />
<glyph unicode="w" glyph-name="w" horiz-adv-x="849" d="M753 501H848L666 0H551L437 373L300 0H185L27 501H127L246 96L391 501H488L609 93L753 501Z" />
<glyph unicode="x" glyph-name="x" horiz-adv-x="488" d="M112 0H2L187 253L11 501H127L246 333L367 501H477L299 258L483 0H366L241 178L112 0Z" />
<glyph unicode="y" glyph-name="y" horiz-adv-x="580" d="M241 -210Q198 -210 151 -201T71 -173L95 -89Q129 -106 167 -115T245 -124Q337 -124 376 -80T418 63L422 157Q393 80 342 42T226 4Q146 4 105 58T64 209L67 501H162L159 218Q159 159 180 126T250 93Q299
93 336 131T395 258T417 501H509V76Q509 -68 441 -139T241 -210Z" />
<glyph unicode="z" glyph-name="z" horiz-adv-x="456" d="M35 0V69L302 420H46V501H422V433L154 80H420V0H35Z" />
<glyph unicode="{" glyph-name="braceleft" horiz-adv-x="362" d="M216 -57Q216 -96 242 -120T313 -146L301 -206Q218 -199 168 -158T117 -48Q117 -14 130 22T155 91T168 152Q168 189 143 212T56 236V306Q117 306 142 329T168 390Q168 417 156 450T130 520T117
590Q117 659 167 700T301 748L313 688Q269 686 243 662T216 599Q216 563 229 531T254 466T267 398Q267 350 236 317T148 271Q204 259 235 225T267 144Q267 108 255 76T229 12T216 -57Z" />
<glyph unicode="|" glyph-name="bar" horiz-adv-x="270" d="M88 -200V740H183V-200H88Z" />
<glyph unicode="}" glyph-name="braceright" horiz-adv-x="362" d="M146 -57Q146 -21 134 11T108 76T95 144Q95 191 126 225T215 271Q158 283 127 316T95 398Q95 434 108 466T133 530T146 599Q146 638 120 662T49 688L61 748Q145 741 195 700T245 590Q245 556
233 520T207 451T194 390Q194 353 220 330T307 306V236Q246 236 220 213T194 152Q194 125 207 92T232 22T245 -48Q245 -117 195 -158T61 -206L49 -146Q93 -144 119 -120T146 -57Z" />
<glyph unicode="~" glyph-name="asciitilde" horiz-adv-x="600" d="M406 180Q386 180 357 188T298 207T239 226T191 234Q163 234 144 221T110 183L59 228Q80 272 114 297T194 322Q214 322 243 314T302 295T361 276T409 268Q437 268 456 280T490 319L541 273Q520
229 486 205T406 180Z" />
<glyph unicode="&#xa0;" glyph-name="uni00A0" horiz-adv-x="235" />
<glyph unicode="&#xa1;" glyph-name="exclamdown" horiz-adv-x="213" d="M106 384Q78 384 60 401T42 446Q42 473 60 491T106 509Q135 509 153 491T171 446Q171 420 153 402T106 384ZM45 -200L75 310H139L153 -200H45Z" />
<glyph unicode="&#xa2;" glyph-name="cent" horiz-adv-x="600" d="M289 -120V-6Q195 5 141 69T87 241Q87 312 112 367T182 458T289 505V621H359V509Q469 502 522 410L452 357Q414 423 338 423Q271 423 229 374T187 242Q187 162 224 120T333 78Q370 78 401 94T454
145L522 91Q494 46 453 22T359 -7V-120H289Z" />
<glyph unicode="&#xa3;" glyph-name="sterling" horiz-adv-x="600" d="M93 -11L52 53Q164 107 164 205Q164 232 157 261T139 321H17V389H119Q112 415 107 441T102 494Q102 560 132 611T216 691T340 720Q428 720 486 674T564 542L487 511Q457 633 339 633Q273 633
236 596T199 495Q199 466 204 440T217 389H403V321H238Q245 296 250 270T255 215Q255 151 220 109Q233 113 246 113Q277 113 311 104T377 85T435 76Q488 76 517 127L574 83Q555 40 517 15T432 -10Q406 -10 367 0T285 20T208 30Q144 30 93 -11Z" />
<glyph unicode="&#xa4;" glyph-name="currency" horiz-adv-x="600" d="M98 91L48 143L104 200Q82 231 69 269T56 348Q56 390 68 427T103 496L48 553L98 605L153 549Q183 573 221 586T300 599Q341 599 378 586T445 550L501 607L552 555L496 497Q518 466 531 428T544
348Q544 306 531 268T495 199L550 143L499 92L444 147Q414 124 378 111T300 98Q259 98 222 111T154 148L98 91ZM301 177Q345 177 382 200T441 262T463 348Q463 397 441 436T382 498T301 521Q255 521 218 498T159 436T137 348Q137 301 159 262T218 200T301 177Z"
/>
<glyph unicode="&#xa5;" glyph-name="yen" horiz-adv-x="600" d="M84 152V220H252V305H84V373H228L8 710H122L307 427L487 710H593L375 373H516V305H354V220H516V152H354V0H252V152H84Z" />
<glyph unicode="&#xa6;" glyph-name="brokenbar" horiz-adv-x="270" d="M88 380V740H183V380H88ZM183 160V-200H88V160H183Z" />
<glyph unicode="&#xa7;" glyph-name="section" horiz-adv-x="507" d="M434 145Q434 101 410 66T342 11T243 -10Q168 -10 121 25T64 119L143 140Q150 106 175 88T245 69Q290 69 315 89T340 140Q340 168 320 183T266 207T197 224T127 247T74 285T53 352Q53 389 72
416T123 460Q101 476 87 501T73 565Q73 609 97 644T165 699T264 720Q339 720 386 685T443 591L364 570Q356 604 331 622T262 641Q217 641 192 621T167 570Q167 542 187 527T241 503T310 486T379 464T433 425T454 358Q454 321 435 294T383 250Q406 234 420 209T434
145ZM147 368Q147 339 171 325T232 303T307 283Q331 289 345 304T360 342Q360 372 336 386T275 408T200 427Q176 421 162 406T147 368Z" />
<glyph unicode="&#xa8;" glyph-name="dieresis" horiz-adv-x="671" d="M245 568Q216 568 201 585T185 624Q185 646 200 662T245 679Q271 679 286 663T302 624Q302 602 287 585T245 568ZM427 568Q399 568 384 585T368 624Q368 646 383 662T427 679Q454 679 469
663T485 624Q485 602 470 585T427 568Z" />
<glyph unicode="&#xa9;" glyph-name="copyright" horiz-adv-x="816" d="M409 -9Q332 -9 266 18T151 94T73 208T45 349Q45 425 72 490T149 604T265 680T409 707Q485 707 551 680T666 605T743 491T771 349Q771 273 743 208T666 94T551 18T409 -9ZM409 33Q475 33
532 57T632 124T699 225T723 350Q723 417 699 474T632 574T532 641T409 665Q341 665 284 641T184 575T118 475T94 350Q94 283 117 226T184 125T284 57T409 33ZM571 231Q548 191 507 170T414 149Q322 149 270 200T218 342Q218 404 243 450T315 523T422 550Q474 550
510 531T572 472L511 430Q496 457 473 469T421 481Q368 481 334 443T300 344Q300 284 330 251T415 218Q444 218 470 232T512 275L571 231Z" />
<glyph unicode="&#xaa;" glyph-name="ordfeminine" horiz-adv-x="351" d="M309 467H233L235 512Q204 462 144 462Q88 462 58 499T28 594Q28 664 69 707T170 750Q196 750 216 739T247 710L254 745H309V467ZM176 687Q143 687 125 662T106 597Q106 563 120 544T160
525Q191 525 212 551T234 620Q234 651 219 669T176 687Z" />
<glyph unicode="&#xab;" glyph-name="guillemotleft" horiz-adv-x="467" d="M154 70L33 234V272L154 436H258L123 253L258 70H154ZM348 70L227 234V272L348 436H452L317 253L452 70H348Z" />
<glyph unicode="&#xac;" glyph-name="logicalnot" horiz-adv-x="600" d="M60 294H540V0H449V207H60V294Z" />
<glyph unicode="&#xad;" glyph-name="uni00AD" horiz-adv-x="405" d="M60 212V298H345V212H60Z" />
<glyph unicode="&#xae;" glyph-name="registered" horiz-adv-x="816" d="M409 -9Q332 -9 266 18T150 94T73 208T45 349Q45 425 72 490T149 604T265 680T409 707Q485 707 551 680T666 604T743 490T771 349Q771 273 744 208T667 94T551 18T409 -9ZM409 33Q475 33
532 57T633 124T699 225T723 350Q723 417 700 474T633 574T533 641T409 665Q341 665 284 641T184 575T118 475T94 350Q94 283 117 226T184 125T284 57T409 33ZM540 152Q502 152 478 168T439 209T412 257T386 298T349 314V157H270V548H396Q465 548 504 517T544 429Q544
389 517 359T443 320Q461 309 473 293T496 259T519 231T551 219Q570 219 587 229L605 170Q580 152 540 152ZM390 491H349V368H380Q424 368 444 384T464 430Q464 459 444 475T390 491Z" />
<glyph unicode="&#xaf;" glyph-name="overscore" horiz-adv-x="625" d="M157 666H472V599H157V666Z" />
<glyph unicode="&#xb0;" glyph-name="degree" horiz-adv-x="374" d="M187 421Q145 421 112 440T59 493T39 569Q39 612 58 645T111 697T187 717Q229 717 262 698T315 645T335 569Q335 527 316 494T263 441T187 421ZM187 480Q224 480 248 505T273 570Q273 609 249
634T187 659Q150 659 126 634T102 570Q102 530 126 505T187 480Z" />
<glyph unicode="&#xb1;" glyph-name="plusminus" horiz-adv-x="600" d="M258 501H342V360H496V280H342V139H258V280H104V360H258V501ZM60 0V80H540V0H60Z" />
<glyph unicode="&#xb2;" glyph-name="uni00B2" horiz-adv-x="330" d="M39 369Q131 439 171 495T211 594Q211 621 196 636T155 651Q102 651 82 588L25 616Q40 660 77 687T165 715Q220 715 254 684T288 599Q288 546 252 492T132 379H297V319H39V369Z" />
<glyph unicode="&#xb3;" glyph-name="uni00B3" horiz-adv-x="330" d="M140 314Q112 314 81 321T32 341L51 403Q93 379 144 379Q178 379 198 394T219 436Q219 491 144 491H115V545H140Q173 545 191 560T210 602Q210 624 196 637T158 651Q106 651 85 599L34 631Q50
669 85 692T168 715Q222 715 255 687T288 611Q287 580 271 556T227 521Q296 502 296 431Q296 379 252 347T140 314Z" />
<glyph unicode="&#xb4;" glyph-name="acute" horiz-adv-x="641" d="M288 573L404 750L505 723L375 573H288Z" />
<glyph unicode="&#xb5;" glyph-name="uni00B5" horiz-adv-x="575" d="M411 501H503V0H410L416 152Q390 73 344 32T242 -9Q213 -9 192 -3T154 22L158 -200H64V501H161L158 204Q157 81 247 81Q294 81 331 119T389 249T411 501Z" />
<glyph unicode="&#xb6;" glyph-name="paragraph" horiz-adv-x="667" d="M22 495Q22 596 94 653T304 711H419V0H320V277H294Q163 277 93 335T22 495ZM490 710H590V0H490V710Z" />
<glyph unicode="&#xb7;" glyph-name="middot" horiz-adv-x="215" d="M108 201Q77 201 58 220T39 268Q39 297 58 316T108 336Q139 336 157 317T176 268Q176 240 158 221T108 201Z" />
<glyph unicode="&#xb8;" glyph-name="cedilla" horiz-adv-x="618" d="M277 -223Q245 -223 218 -217T170 -200L193 -149Q233 -167 276 -167Q298 -167 312 -158T326 -130Q326 -99 275 -99H227L285 18H352L321 -48Q361 -55 383 -76T405 -131Q405 -172 370 -197T277 -223Z" />
<glyph unicode="&#xb9;" glyph-name="uni00B9" horiz-adv-x="330" d="M55 379H143V611L77 565L40 618L177 710H221V379H304V319H55V379Z" />
<glyph unicode="&#xba;" glyph-name="ordmasculine" horiz-adv-x="340" d="M176 750Q239 750 275 712T312 612Q312 546 271 504T164 462Q101 462 65 500T28 600Q28 666 69 708T176 750ZM167 523Q199 523 219 547T239 612Q239 649 221 669T174 689Q141 689 122
665T102 600Q102 563 119 543T167 523Z" />
<glyph unicode="&#xbb;" glyph-name="guillemotright" horiz-adv-x="467" d="M118 70H14L150 253L14 436H118L239 272V234L118 70ZM312 70H208L344 253L208 436H312L433 272V234L312 70Z" />
<glyph unicode="&#xbc;" glyph-name="onequarter" horiz-adv-x="805" d="M55 379H143V611L77 565L40 618L177 710H221V379H304V319H55V379ZM187 0L537 710H618L268 0H187ZM789 98H740V0H672V98H498V145L686 392H740V148H789V98ZM559 148H672V296L559 148Z" />
<glyph unicode="&#xbd;" glyph-name="onehalf" horiz-adv-x="805" d="M55 379H143V611L77 565L40 618L177 710H221V379H304V319H55V379ZM187 0L537 710H618L268 0H187ZM514 50Q606 120 646 176T686 275Q686 302 671 317T630 332Q577 332 557 269L500 297Q515 341
552 368T640 396Q695 396 729 365T763 280Q763 227 727 173T607 60H772V0H514V50Z" />
<glyph unicode="&#xbe;" glyph-name="threequarters" horiz-adv-x="805" d="M140 314Q112 314 81 321T32 341L51 403Q93 379 144 379Q178 379 198 394T219 436Q219 491 144 491H115V545H140Q173 545 191 560T210 602Q210 624 196 637T158 651Q106 651 85 599L34
631Q50 669 85 692T168 715Q222 715 255 687T288 611Q287 580 271 556T227 521Q296 502 296 431Q296 379 252 347T140 314ZM187 0L537 710H618L268 0H187ZM789 98H740V0H672V98H498V145L686 392H740V148H789V98ZM559 148H672V296L559 148Z" />
<glyph unicode="&#xbf;" glyph-name="questiondown" horiz-adv-x="511" d="M302 384Q273 384 255 402T237 447Q237 474 255 491T302 509Q330 509 348 492T366 447Q366 420 348 402T302 384ZM263 -212Q203 -212 157 -191T84 -130T58 -39Q58 17 84 60T173 154Q221
192 241 228T264 313L336 309Q340 240 319 192T242 98Q192 56 174 29T156 -33Q156 -76 187 -99T271 -123Q388 -123 428 1L503 -36Q478 -118 414 -165T263 -212Z" />
<glyph unicode="&#xc0;" glyph-name="Agrave" horiz-adv-x="680" d="M2 0L301 710H387L674 0H571L502 177H177L105 0H2ZM212 263H469L343 586L212 263ZM298 782L168 933L268 959L384 782H298Z" />
<glyph unicode="&#xc1;" glyph-name="Aacute" horiz-adv-x="680" d="M2 0L301 710H387L674 0H571L502 177H177L105 0H2ZM212 263H469L343 586L212 263ZM294 782L410 959L511 933L381 782H294Z" />
<glyph unicode="&#xc2;" glyph-name="Acircumflex" horiz-adv-x="680" d="M2 0L301 710H387L674 0H571L502 177H177L105 0H2ZM212 263H469L343 586L212 263ZM511 782H419L341 887L263 782H171L300 949H382L511 782Z" />
<glyph unicode="&#xc3;" glyph-name="Atilde" horiz-adv-x="680" d="M2 0L301 710H387L674 0H571L502 177H177L105 0H2ZM212 263H469L343 586L212 263ZM421 777Q401 777 379 786T335 807T292 828T256 837Q237 837 221 823T196 781L156 812Q166 859 193 884T261
910Q281 910 303 901T347 880T390 859T426 850Q469 850 486 906L526 876Q516 828 489 803T421 777Z" />
<glyph unicode="&#xc4;" glyph-name="Adieresis" horiz-adv-x="680" d="M2 0L301 710H387L674 0H571L502 177H177L105 0H2ZM212 263H469L343 586L212 263ZM251 777Q222 777 207 794T191 833Q191 855 206 872T251 889Q277 889 292 872T308 833Q308 811 293 794T251
777ZM433 777Q405 777 390 794T374 833Q374 855 389 872T433 889Q460 889 475 872T491 833Q491 811 476 794T433 777Z" />
<glyph unicode="&#xc5;" glyph-name="Aring" horiz-adv-x="680" d="M2 0L301 710H387L674 0H571L502 177H177L105 0H2ZM212 263H469L343 586L212 263ZM340 777Q294 777 263 807T232 880Q232 925 264 955T344 986Q390 986 420 957T450 884Q450 839 419 808T340
777ZM341 821Q368 821 384 838T401 884Q401 910 385 926T343 942Q315 942 298 925T281 880Q281 854 298 838T341 821Z" />
<glyph unicode="&#xc6;" glyph-name="AE" horiz-adv-x="910" d="M2 0L301 710H868V623H546V403H856V316H546V87H881L873 0H446V177H177L105 0H2ZM212 263H446V623H358L212 263Z" />
<glyph unicode="&#xc7;" glyph-name="Ccedilla" horiz-adv-x="657" d="M659 137Q619 66 548 29T387 -9Q283 -9 208 33T92 154T52 342Q52 454 96 539T220 672T404 720Q578 720 660 583L582 525Q553 577 507 602T402 628Q329 628 274 592T187 492T155 343Q155 220
216 152T388 84Q452 84 502 112T583 196L659 137ZM366 -223Q334 -223 307 -217T259 -200L282 -149Q322 -167 365 -167Q387 -167 401 -158T415 -130Q415 -99 364 -99H316L374 18H441L410 -48Q450 -55 472 -76T494 -131Q494 -172 459 -197T366 -223Z" />
<glyph unicode="&#xc8;" glyph-name="Egrave" horiz-adv-x="552" d="M510 623H177V403H498V316H177V87H523L515 0H78V710H510V623ZM507 782L377 933L477 959L593 782H507Z" />
<glyph unicode="&#xc9;" glyph-name="Eacute" horiz-adv-x="552" d="M510 623H177V403H498V316H177V87H523L515 0H78V710H510V623ZM503 782L619 959L720 933L590 782H503Z" />
<glyph unicode="&#xca;" glyph-name="Ecircumflex" horiz-adv-x="552" d="M510 623H177V403H498V316H177V87H523L515 0H78V710H510V623ZM720 782H628L550 887L472 782H380L509 949H591L720 782Z" />
<glyph unicode="&#xcb;" glyph-name="Edieresis" horiz-adv-x="552" d="M510 623H177V403H498V316H177V87H523L515 0H78V710H510V623ZM460 777Q431 777 416 794T400 833Q400 855 415 872T460 889Q486 889 501 872T517 833Q517 811 502 794T460 777ZM642 777Q614
777 599 794T583 833Q583 855 598 872T642 889Q669 889 684 872T700 833Q700 811 685 794T642 777Z" />
<glyph unicode="&#xcc;" glyph-name="Igrave" horiz-adv-x="257" d="M78 0V710H179V0H78ZM86 782L-44 933L56 959L172 782H86Z" />
<glyph unicode="&#xcd;" glyph-name="Iacute" horiz-adv-x="257" d="M78 0V710H179V0H78ZM82 782L198 959L299 933L169 782H82Z" />
<glyph unicode="&#xce;" glyph-name="Icircumflex" horiz-adv-x="257" d="M78 0V710H179V0H78ZM299 782H207L129 887L51 782H-41L88 949H170L299 782Z" />
<glyph unicode="&#xcf;" glyph-name="Idieresis" horiz-adv-x="257" d="M78 0V710H179V0H78ZM39 777Q10 777 -5 794T-21 833Q-21 855 -6 872T39 889Q65 889 80 872T96 833Q96 811 81 794T39 777ZM221 777Q193 777 178 794T162 833Q162 855 177 872T221 889Q248
889 263 872T279 833Q279 811 264 794T221 777Z" />
<glyph unicode="&#xd0;" glyph-name="Eth" horiz-adv-x="739" d="M78 0V710H272Q687 710 687 358Q687 248 641 168T508 44T304 0H78ZM179 90H300Q440 90 512 157T584 353Q584 488 511 554T287 620H179V90ZM8 324V396H378V324H8Z" />
<glyph unicode="&#xd1;" glyph-name="Ntilde" horiz-adv-x="726" d="M552 710H649V0H561L175 541V0H78V710H166L552 169V710ZM444 778Q424 778 402 787T358 808T315 829T279 838Q260 838 244 824T219 782L179 813Q189 860 216 885T284 911Q304 911 326 902T370
881T413 860T449 851Q492 851 509 907L549 877Q539 829 512 804T444 778Z" />
<glyph unicode="&#xd2;" glyph-name="Ograve" horiz-adv-x="773" d="M384 -9Q281 -9 207 32T92 152T52 342Q52 453 96 538T218 672T401 720Q496 720 568 676T680 554T720 369Q720 254 677 170T557 39T384 -9ZM383 84Q452 84 505 117T587 215T617 370Q617 449 591
507T516 596T401 628Q329 628 274 593T187 493T155 343Q155 218 216 151T383 84ZM343 782L213 933L313 959L429 782H343Z" />
<glyph unicode="&#xd3;" glyph-name="Oacute" horiz-adv-x="773" d="M384 -9Q281 -9 207 32T92 152T52 342Q52 453 96 538T218 672T401 720Q496 720 568 676T680 554T720 369Q720 254 677 170T557 39T384 -9ZM383 84Q452 84 505 117T587 215T617 370Q617 449 591
507T516 596T401 628Q329 628 274 593T187 493T155 343Q155 218 216 151T383 84ZM339 782L455 959L556 933L426 782H339Z" />
<glyph unicode="&#xd4;" glyph-name="Ocircumflex" horiz-adv-x="773" d="M384 -9Q281 -9 207 32T92 152T52 342Q52 453 96 538T218 672T401 720Q496 720 568 676T680 554T720 369Q720 254 677 170T557 39T384 -9ZM383 84Q452 84 505 117T587 215T617 370Q617
449 591 507T516 596T401 628Q329 628 274 593T187 493T155 343Q155 218 216 151T383 84ZM556 782H464L386 887L308 782H216L345 949H427L556 782Z" />
<glyph unicode="&#xd5;" glyph-name="Otilde" horiz-adv-x="773" d="M384 -9Q281 -9 207 32T92 152T52 342Q52 453 96 538T218 672T401 720Q496 720 568 676T680 554T720 369Q720 254 677 170T557 39T384 -9ZM383 84Q452 84 505 117T587 215T617 370Q617 449 591
507T516 596T401 628Q329 628 274 593T187 493T155 343Q155 218 216 151T383 84ZM466 777Q446 777 424 786T380 807T337 828T301 837Q282 837 266 823T241 781L201 812Q211 859 238 884T306 910Q326 910 348 901T392 880T435 859T471 850Q514 850 531 906L571 876Q561
828 534 803T466 777Z" />
<glyph unicode="&#xd6;" glyph-name="Odieresis" horiz-adv-x="773" d="M384 -9Q281 -9 207 32T92 152T52 342Q52 453 96 538T218 672T401 720Q496 720 568 676T680 554T720 369Q720 254 677 170T557 39T384 -9ZM383 84Q452 84 505 117T587 215T617 370Q617 449
591 507T516 596T401 628Q329 628 274 593T187 493T155 343Q155 218 216 151T383 84ZM296 777Q267 777 252 794T236 833Q236 855 251 872T296 889Q322 889 337 872T353 833Q353 811 338 794T296 777ZM478 777Q450 777 435 794T419 833Q419 855 434 872T478 889Q505
889 520 872T536 833Q536 811 521 794T478 777Z" />
<glyph unicode="&#xd7;" glyph-name="multiply" horiz-adv-x="600" d="M501 112L439 50L300 188L161 50L99 112L238 250L99 389L161 451L300 312L439 451L501 389L362 250L501 112Z" />
<glyph unicode="&#xd8;" glyph-name="Oslash" horiz-adv-x="773" d="M384 -9Q281 -9 207 32T92 152T52 342Q52 453 96 538T218 672T401 720Q496 720 568 676T680 554T720 369Q720 254 677 170T557 39T384 -9ZM383 84Q452 84 505 117T587 215T617 370Q617 449 591
507T516 596T401 628Q329 628 274 593T187 493T155 343Q155 218 216 151T383 84ZM168 -38L103 4L605 748L670 706L168 -38Z" />
<glyph unicode="&#xd9;" glyph-name="Ugrave" horiz-adv-x="732" d="M556 710H656L658 337Q658 172 583 82T365 -9Q219 -9 147 67T75 302V710H177V309Q177 190 222 137T364 84Q464 84 511 146T557 340L556 710ZM324 782L194 933L294 959L410 782H324Z" />
<glyph unicode="&#xda;" glyph-name="Uacute" horiz-adv-x="732" d="M556 710H656L658 337Q658 172 583 82T365 -9Q219 -9 147 67T75 302V710H177V309Q177 190 222 137T364 84Q464 84 511 146T557 340L556 710ZM320 782L436 959L537 933L407 782H320Z" />
<glyph unicode="&#xdb;" glyph-name="Ucircumflex" horiz-adv-x="732" d="M556 710H656L658 337Q658 172 583 82T365 -9Q219 -9 147 67T75 302V710H177V309Q177 190 222 137T364 84Q464 84 511 146T557 340L556 710ZM537 782H445L367 887L289 782H197L326 949H408L537
782Z" />
<glyph unicode="&#xdc;" glyph-name="Udieresis" horiz-adv-x="732" d="M556 710H656L658 337Q658 172 583 82T365 -9Q219 -9 147 67T75 302V710H177V309Q177 190 222 137T364 84Q464 84 511 146T557 340L556 710ZM277 777Q248 777 233 794T217 833Q217 855 232
872T277 889Q303 889 318 872T334 833Q334 811 319 794T277 777ZM459 777Q431 777 416 794T400 833Q400 855 415 872T459 889Q486 889 501 872T517 833Q517 811 502 794T459 777Z" />
<glyph unicode="&#xdd;" glyph-name="Yacute" horiz-adv-x="566" d="M587 710L334 320V0H233V318L-24 710H90L288 408L480 710H587ZM494 782L610 959L711 933L581 782H494Z" />
<glyph unicode="&#xde;" glyph-name="Thorn" horiz-adv-x="615" d="M177 710V597H317Q447 597 517 543T588 384Q588 281 514 222T291 163H177V0H78V711L177 710ZM310 514H177V247H296Q398 247 442 281T487 383Q487 451 444 482T310 514Z" />
<glyph unicode="&#xdf;" glyph-name="germandbls" horiz-adv-x="661" d="M-5 420V501H94Q97 576 129 632T218 719T351 750Q433 750 484 711T535 609Q535 571 520 543T481 494T435 455T397 417T381 374Q381 347 400 332T450 307T515 285T580 258T630 214T650 142Q650
97 625 63T557 10T459 -9Q375 -9 323 29T260 138L346 158Q353 114 383 92T460 69Q509 69 532 87T556 134Q556 161 537 176T487 202T423 222T359 247T310 288T290 358Q290 397 306 425T346 474T394 515T434 556T450 608Q450 637 424 655T350 674Q273 674 231 626T189
487V0H94V420H-5Z" />
<glyph unicode="&#xe0;" glyph-name="agrave" horiz-adv-x="588" d="M518 500V0H420L424 103Q396 51 351 21T248 -9Q183 -9 139 21T71 105T48 227Q48 310 79 374T166 473T294 509Q342 509 379 488T435 431L447 500H518ZM298 424Q229 424 188 372T146 233Q146 159
178 118T264 77Q309 77 345 103T402 175T423 282Q423 348 390 386T298 424ZM526 573L396 723L496 750L612 573H526Z" />
<glyph unicode="&#xe1;" glyph-name="aacute" horiz-adv-x="588" d="M518 500V0H420L424 103Q396 51 351 21T248 -9Q183 -9 139 21T71 105T48 227Q48 310 79 374T166 473T294 509Q342 509 379 488T435 431L447 500H518ZM298 424Q229 424 188 372T146 233Q146 159
178 118T264 77Q309 77 345 103T402 175T423 282Q423 348 390 386T298 424ZM522 573L638 750L739 723L609 573H522Z" />
<glyph unicode="&#xe2;" glyph-name="acircumflex" horiz-adv-x="588" d="M518 500V0H420L424 103Q396 51 351 21T248 -9Q183 -9 139 21T71 105T48 227Q48 310 79 374T166 473T294 509Q342 509 379 488T435 431L447 500H518ZM298 424Q229 424 188 372T146 233Q146
159 178 118T264 77Q309 77 345 103T402 175T423 282Q423 348 390 386T298 424ZM739 573H647L569 678L491 573H399L528 740H610L739 573Z" />
<glyph unicode="&#xe3;" glyph-name="atilde" horiz-adv-x="588" d="M518 500V0H420L424 103Q396 51 351 21T248 -9Q183 -9 139 21T71 105T48 227Q48 310 79 374T166 473T294 509Q342 509 379 488T435 431L447 500H518ZM298 424Q229 424 188 372T146 233Q146 159
178 118T264 77Q309 77 345 103T402 175T423 282Q423 348 390 386T298 424ZM649 568Q629 568 607 577T563 598T520 619T484 628Q465 628 449 613T424 572L384 603Q394 650 421 675T489 701Q509 701 531 692T575 671T618 650T654 641Q697 641 714 697L754 666Q744
619 717 594T649 568Z" />
<glyph unicode="&#xe4;" glyph-name="adieresis" horiz-adv-x="588" d="M518 500V0H420L424 103Q396 51 351 21T248 -9Q183 -9 139 21T71 105T48 227Q48 310 79 374T166 473T294 509Q342 509 379 488T435 431L447 500H518ZM298 424Q229 424 188 372T146 233Q146
159 178 118T264 77Q309 77 345 103T402 175T423 282Q423 348 390 386T298 424ZM479 568Q450 568 435 585T419 624Q419 646 434 662T479 679Q505 679 520 663T536 624Q536 602 521 585T479 568ZM661 568Q633 568 618 585T602 624Q602 646 617 662T661 679Q688 679
703 663T719 624Q719 602 704 585T661 568Z" />
<glyph unicode="&#xe5;" glyph-name="aring" horiz-adv-x="588" d="M518 500V0H420L424 103Q396 51 351 21T248 -9Q183 -9 139 21T71 105T48 227Q48 310 79 374T166 473T294 509Q342 509 379 488T435 431L447 500H518ZM298 424Q229 424 188 372T146 233Q146 159
178 118T264 77Q309 77 345 103T402 175T423 282Q423 348 390 386T298 424ZM568 568Q522 568 491 597T460 671Q460 715 492 746T572 777Q618 777 648 748T678 675Q678 629 647 599T568 568ZM569 612Q596 612 612 629T629 675Q629 701 613 717T571 733Q543 733 526
716T509 671Q509 645 526 629T569 612Z" />
<glyph unicode="&#xe6;" glyph-name="ae" horiz-adv-x="860" d="M227 -9Q173 -9 131 10T65 63T41 140Q41 208 92 249T242 291H371V309Q371 429 261 429Q209 429 178 405T136 334L51 350Q60 394 87 430T159 487T263 509Q326 509 370 485T437 410Q465 457 513 483T611
509Q720 509 776 435T815 219H470Q472 152 513 114T630 76Q667 76 701 92T761 141L819 86Q784 40 737 16T623 -9Q477 -9 419 103Q393 51 343 21T227 -9ZM614 435Q552 435 515 394T471 291H732Q735 367 702 401T614 435ZM238 68Q300 68 335 107T371 212V218H245Q190
218 164 198T137 143Q137 110 165 89T238 68Z" />
<glyph unicode="&#xe7;" glyph-name="ccedilla" horiz-adv-x="490" d="M288 -9Q176 -9 112 57T48 241Q48 321 79 381T168 475T300 509Q425 509 482 410L412 357Q375 423 299 423Q231 423 189 374T147 242Q147 162 184 120T293 78Q330 78 361 94T414 145L482 91Q450
39 401 15T288 -9ZM514 -223Q482 -223 455 -217T407 -200L430 -149Q470 -167 513 -167Q535 -167 549 -158T563 -130Q563 -99 512 -99H464L522 18H589L558 -48Q598 -55 620 -76T642 -131Q642 -172 607 -197T514 -223Z" />
<glyph unicode="&#xe8;" glyph-name="egrave" horiz-adv-x="539" d="M302 -9Q184 -9 116 58T48 243Q48 321 79 381T166 475T291 509Q399 509 455 435T494 219H145Q148 151 190 114T309 76Q346 76 380 92T440 142L498 86Q463 40 415 16T302 -9ZM292 435Q231 435
193 394T147 291H411Q414 367 381 401T292 435ZM502 573L372 723L472 750L588 573H502Z" />
<glyph unicode="&#xe9;" glyph-name="eacute" horiz-adv-x="539" d="M302 -9Q184 -9 116 58T48 243Q48 321 79 381T166 475T291 509Q399 509 455 435T494 219H145Q148 151 190 114T309 76Q346 76 380 92T440 142L498 86Q463 40 415 16T302 -9ZM292 435Q231 435
193 394T147 291H411Q414 367 381 401T292 435ZM498 573L614 750L715 723L585 573H498Z" />
<glyph unicode="&#xea;" glyph-name="ecircumflex" horiz-adv-x="539" d="M302 -9Q184 -9 116 58T48 243Q48 321 79 381T166 475T291 509Q399 509 455 435T494 219H145Q148 151 190 114T309 76Q346 76 380 92T440 142L498 86Q463 40 415 16T302 -9ZM292 435Q231
435 193 394T147 291H411Q414 367 381 401T292 435ZM715 573H623L545 678L467 573H375L504 740H586L715 573Z" />
<glyph unicode="&#xeb;" glyph-name="edieresis" horiz-adv-x="539" d="M302 -9Q184 -9 116 58T48 243Q48 321 79 381T166 475T291 509Q399 509 455 435T494 219H145Q148 151 190 114T309 76Q346 76 380 92T440 142L498 86Q463 40 415 16T302 -9ZM292 435Q231
435 193 394T147 291H411Q414 367 381 401T292 435ZM455 568Q426 568 411 585T395 624Q395 646 410 662T455 679Q481 679 496 663T512 624Q512 602 497 585T455 568ZM637 568Q609 568 594 585T578 624Q578 646 593 662T637 679Q664 679 679 663T695 624Q695 602
680 585T637 568Z" />
<glyph unicode="&#xec;" glyph-name="igrave" horiz-adv-x="236" d="M165 501V0H70V501H165ZM75 573L-55 723L45 750L161 573H75Z" />
<glyph unicode="&#xed;" glyph-name="iacute" horiz-adv-x="236" d="M165 501V0H70V501H165ZM71 573L187 750L288 723L158 573H71Z" />
<glyph unicode="&#xee;" glyph-name="icircumflex" horiz-adv-x="236" d="M165 501V0H70V501H165ZM288 573H196L118 678L40 573H-52L77 740H159L288 573Z" />
<glyph unicode="&#xef;" glyph-name="idieresis" horiz-adv-x="236" d="M165 501V0H70V501H165ZM28 568Q-1 568 -16 585T-32 624Q-32 646 -17 662T28 679Q54 679 69 663T85 624Q85 602 70 585T28 568ZM210 568Q182 568 167 585T151 624Q151 646 166 662T210 679Q237
679 252 663T268 624Q268 602 253 585T210 568Z" />
<glyph unicode="&#xf0;" glyph-name="eth" horiz-adv-x="569" d="M275 -9Q170 -9 109 53T47 219Q47 292 78 348T161 437T279 470Q368 470 419 411Q396 508 329 577L156 518L138 575L275 622Q223 658 154 680L186 753Q296 716 371 654L490 695L508 638L419 607Q526
485 526 289Q526 204 496 137T409 30T275 -9ZM280 77Q321 77 353 98T405 157T424 241Q424 310 389 349T293 388Q230 388 188 342T145 220Q145 154 179 116T280 77Z" />
<glyph unicode="&#xf1;" glyph-name="ntilde" horiz-adv-x="585" d="M70 0V501H166L160 353Q188 428 239 468T358 509Q438 509 480 454T521 294L519 0H424L426 285Q427 420 334 420Q285 420 248 382T188 252T165 0H70ZM630 568Q610 568 588 577T544 598T501 619T465
628Q446 628 430 613T405 572L365 603Q375 650 402 675T470 701Q490 701 512 692T556 671T599 650T635 641Q678 641 695 697L735 666Q725 619 698 594T630 568Z" />
<glyph unicode="&#xf2;" glyph-name="ograve" horiz-adv-x="575" d="M297 509Q404 509 466 442T528 261Q528 184 497 123T411 27T281 -9Q171 -9 110 58T48 240Q48 317 78 378T165 474T297 509ZM282 77Q348 77 388 127T429 261Q429 339 394 381T296 424Q228 424
187 373T146 240Q146 162 182 120T282 77ZM501 573L371 723L471 750L587 573H501Z" />
<glyph unicode="&#xf3;" glyph-name="oacute" horiz-adv-x="575" d="M297 509Q404 509 466 442T528 261Q528 184 497 123T411 27T281 -9Q171 -9 110 58T48 240Q48 317 78 378T165 474T297 509ZM282 77Q348 77 388 127T429 261Q429 339 394 381T296 424Q228 424
187 373T146 240Q146 162 182 120T282 77ZM497 573L613 750L714 723L584 573H497Z" />
<glyph unicode="&#xf4;" glyph-name="ocircumflex" horiz-adv-x="575" d="M297 509Q404 509 466 442T528 261Q528 184 497 123T411 27T281 -9Q171 -9 110 58T48 240Q48 317 78 378T165 474T297 509ZM282 77Q348 77 388 127T429 261Q429 339 394 381T296 424Q228
424 187 373T146 240Q146 162 182 120T282 77ZM714 573H622L544 678L466 573H374L503 740H585L714 573Z" />
<glyph unicode="&#xf5;" glyph-name="otilde" horiz-adv-x="575" d="M297 509Q404 509 466 442T528 261Q528 184 497 123T411 27T281 -9Q171 -9 110 58T48 240Q48 317 78 378T165 474T297 509ZM282 77Q348 77 388 127T429 261Q429 339 394 381T296 424Q228 424
187 373T146 240Q146 162 182 120T282 77ZM624 568Q604 568 582 577T538 598T495 619T459 628Q440 628 424 613T399 572L359 603Q369 650 396 675T464 701Q484 701 506 692T550 671T593 650T629 641Q672 641 689 697L729 666Q719 619 692 594T624 568Z" />
<glyph unicode="&#xf6;" glyph-name="odieresis" horiz-adv-x="575" d="M297 509Q404 509 466 442T528 261Q528 184 497 123T411 27T281 -9Q171 -9 110 58T48 240Q48 317 78 378T165 474T297 509ZM282 77Q348 77 388 127T429 261Q429 339 394 381T296 424Q228
424 187 373T146 240Q146 162 182 120T282 77ZM454 568Q425 568 410 585T394 624Q394 646 409 662T454 679Q480 679 495 663T511 624Q511 602 496 585T454 568ZM636 568Q608 568 593 585T577 624Q577 646 592 662T636 679Q663 679 678 663T694 624Q694 602 679
585T636 568Z" />
<glyph unicode="&#xf7;" glyph-name="divide" horiz-adv-x="600" d="M300 408Q277 408 262 423T247 459Q247 481 262 496T300 511Q324 511 339 496T354 459Q354 438 339 423T300 408ZM547 291V211H53V291H547ZM300 -9Q277 -9 262 6T247 43Q247 64 262 79T300 94Q324
94 339 79T354 43Q354 21 339 6T300 -9Z" />
<glyph unicode="&#xf8;" glyph-name="oslash" horiz-adv-x="575" d="M297 509Q404 509 466 442T528 261Q528 184 497 123T411 27T281 -9Q171 -9 110 58T48 240Q48 317 78 378T165 474T297 509ZM282 77Q348 77 388 127T429 261Q429 339 394 381T296 424Q228 424
187 373T146 240Q146 162 182 120T282 77ZM392 -37L333 1L379 69L418 118L624 423L649 470L695 538L754 500L708 432L670 382L463 77L438 31L392 -37Z" />
<glyph unicode="&#xf9;" glyph-name="ugrave" horiz-adv-x="575" d="M225 -9Q146 -9 105 45T64 196L67 501H162L159 206Q159 147 180 114T249 81Q296 81 332 119T390 249T412 501H504V0H408L414 139Q385 65 336 28T225 -9ZM500 573L370 723L470 750L586 573H500Z" />
<glyph unicode="&#xfa;" glyph-name="uacute" horiz-adv-x="575" d="M225 -9Q146 -9 105 45T64 196L67 501H162L159 206Q159 147 180 114T249 81Q296 81 332 119T390 249T412 501H504V0H408L414 139Q385 65 336 28T225 -9ZM496 573L612 750L713 723L583 573H496Z" />
<glyph unicode="&#xfb;" glyph-name="ucircumflex" horiz-adv-x="575" d="M225 -9Q146 -9 105 45T64 196L67 501H162L159 206Q159 147 180 114T249 81Q296 81 332 119T390 249T412 501H504V0H408L414 139Q385 65 336 28T225 -9ZM713 573H621L543 678L465 573H373L502
740H584L713 573Z" />
<glyph unicode="&#xfc;" glyph-name="udieresis" horiz-adv-x="575" d="M225 -9Q146 -9 105 45T64 196L67 501H162L159 206Q159 147 180 114T249 81Q296 81 332 119T390 249T412 501H504V0H408L414 139Q385 65 336 28T225 -9ZM453 568Q424 568 409 585T393 624Q393
646 408 662T453 679Q479 679 494 663T510 624Q510 602 495 585T453 568ZM635 568Q607 568 592 585T576 624Q576 646 591 662T635 679Q662 679 677 663T693 624Q693 602 678 585T635 568Z" />
<glyph unicode="&#xfd;" glyph-name="yacute" horiz-adv-x="580" d="M241 -210Q198 -210 151 -201T71 -173L95 -89Q129 -106 167 -115T245 -124Q337 -124 376 -80T418 63L422 157Q393 80 342 42T226 4Q146 4 105 58T64 209L67 501H162L159 218Q159 159 180 126T250
93Q299 93 336 131T395 258T417 501H509V76Q509 -68 441 -139T241 -210ZM499 573L615 750L716 723L586 573H499Z" />
<glyph unicode="&#xfe;" glyph-name="thorn" horiz-adv-x="588" d="M70 -200V740H166V501L163 396Q190 449 235 479T340 509Q405 509 449 479T517 396T540 274Q540 190 509 127T422 27T295 -9Q253 -9 219 7T164 52L166 0V-200H70ZM290 77Q359 77 400 130T442 269Q442
342 410 383T324 424Q279 424 243 398T186 326T165 220Q165 153 198 115T290 77Z" />
<glyph unicode="&#xff;" glyph-name="ydieresis" horiz-adv-x="580" d="M241 -210Q198 -210 151 -201T71 -173L95 -89Q129 -106 167 -115T245 -124Q337 -124 376 -80T418 63L422 157Q393 80 342 42T226 4Q146 4 105 58T64 209L67 501H162L159 218Q159 159 180
126T250 93Q299 93 336 131T395 258T417 501H509V76Q509 -68 441 -139T241 -210ZM456 568Q427 568 412 585T396 624Q396 646 411 662T456 679Q482 679 497 663T513 624Q513 602 498 585T456 568ZM638 568Q610 568 595 585T579 624Q579 646 594 662T638 679Q665
679 680 663T696 624Q696 602 681 585T638 568Z" />
<glyph unicode="&#x2013;" glyph-name="endash" horiz-adv-x="500" d="M20 218V298H480V218H20Z" />
<glyph unicode="&#x2014;" glyph-name="emdash" horiz-adv-x="1000" d="M20 218V298H980V218H20Z" />
<glyph unicode="&#x2018;" glyph-name="quoteleft" horiz-adv-x="215" d="M171 750Q160 723 155 700T149 657Q149 635 154 619T164 587T170 553Q170 527 152 510T106 493Q75 493 58 512T41 566Q41 593 52 625T81 691T123 750H171Z" />
<glyph unicode="&#x2019;" glyph-name="quoteright" horiz-adv-x="215" d="M42 493Q53 519 59 542T65 586Q65 608 60 624T49 655T43 690Q43 716 61 733T108 750Q139 750 155 731T172 677Q172 650 162 617T133 552T91 493H42Z" />
<glyph unicode="&#x201a;" glyph-name="quotesinglbase" horiz-adv-x="215" d="M42 -131Q53 -105 59 -82T65 -38Q65 -16 60 0T49 31T43 66Q43 92 61 109T109 126Q140 126 157 107T174 53Q174 26 163 -7T134 -72T92 -131H42Z" />
<glyph unicode="&#x201c;" glyph-name="quotedblleft" horiz-adv-x="382" d="M339 750Q328 723 323 700T317 657Q317 635 322 619T332 587T338 553Q338 527 320 510T274 493Q243 493 226 512T209 566Q209 593 220 625T249 691T291 750H339ZM172 750Q161 723 156
700T150 657Q150 635 155 619T165 587T171 553Q171 527 153 510T107 493Q76 493 59 512T42 566Q42 593 53 625T82 691T124 750H172Z" />
<glyph unicode="&#x201d;" glyph-name="quotedblright" horiz-adv-x="382" d="M209 493Q220 519 226 542T232 586Q232 608 227 624T216 655T210 690Q210 716 228 733T275 750Q306 750 322 731T339 677Q339 650 329 617T300 552T258 493H209ZM42 493Q53 519 59
542T65 586Q65 608 60 624T49 655T43 690Q43 716 61 733T108 750Q139 750 155 731T172 677Q172 650 162 617T133 552T91 493H42Z" />
<glyph unicode="&#x201e;" glyph-name="quotedblbase" horiz-adv-x="378" d="M205 -131Q216 -105 222 -82T228 -38Q228 -16 223 0T212 31T206 66Q206 92 224 109T272 126Q303 126 320 107T337 53Q337 26 326 -7T297 -72T255 -131H205ZM42 -131Q53 -105 59 -82T65
-38Q65 -16 60 0T49 31T43 66Q43 92 61 109T109 126Q140 126 157 107T174 53Q174 26 163 -7T134 -72T92 -131H42Z" />
<glyph unicode="&#x2022;" glyph-name="bullet" horiz-adv-x="448" d="M224 89Q176 89 138 111T77 172T54 260Q54 309 76 347T137 408T224 431Q272 431 310 409T372 348T395 260Q395 211 372 172T311 111T224 89Z" />
<glyph unicode="&#x2039;" glyph-name="guilsinglleft" horiz-adv-x="272" d="M154 70L33 234V272L154 436H258L123 253L258 70H154Z" />
<glyph unicode="&#x203a;" glyph-name="guilsinglright" horiz-adv-x="272" d="M118 70H14L150 253L14 436H118L239 272V234L118 70Z" />
</font>
</defs>
</svg>
