<svg width="200" height="200" fill="none" xmlns="http://www.w3.org/2000/svg"><path fill="#79C8C7" d="M100 200h100V100H100z"/><path fill-rule="evenodd" clip-rule="evenodd" d="M100 200C44.772 200 0 155.228 0 100S44.772 0 100 0s100 44.772 100 100-44.772 100-100 100Zm0-67c-18.225 0-33-14.775-33-33s14.775-33 33-33 33 14.775 33 33-14.775 33-33 33Z" fill="#012F34"/><path fill-rule="evenodd" clip-rule="evenodd" d="M200 156h-4v4h4v-4Zm-11 0h4v4h-4v-4Zm0 8h4v4h-4v-4Zm4 8h-4v4h4v-4Zm-4 8h4v4h-4v-4Zm4 8h-4v4h4v-4Zm-4 8h4v4h-4v-4Zm-3-40h-4v4h4v-4Zm0 8h-4v4h4v-4Zm-4 8h4v4h-4v-4Zm4 8h-4v4h4v-4Zm-4 8h4v4h-4v-4Zm4 8h-4v4h4v-4Zm14-32h-4v4h4v-4Zm-21-8h-4v4h4v-4Zm0 8h-4v4h4v-4Zm-4 8h4v4h-4v-4Zm4 8h-4v4h4v-4Zm-4 8h4v4h-4v-4Zm4 8h-4v4h4v-4Zm21-24h-4v4h4v-4Zm-28-16h-4v4h4v-4Zm0 8h-4v4h4v-4Zm-4 8h4v4h-4v-4Zm4 8h-4v4h4v-4Zm-4 8h4v4h-4v-4Zm4 8h-4v4h4v-4Zm28-16h-4v4h4v-4Zm-35-24h-4v4h4v-4Zm0 8h-4v4h4v-4Zm-4 8h4v4h-4v-4Zm4 8h-4v4h4v-4Zm-4 8h4v4h-4v-4Zm4 8h-4v4h4v-4Zm35-8h-4v4h4v-4Zm-42-32h-4v4h4v-4Zm0 8h-4v4h4v-4Zm-4 8h4v4h-4v-4Zm4 8h-4v4h4v-4Zm-4 8h4v4h-4v-4Zm4 8h-4v4h4v-4Zm42 0h-4v4h4v-4Zm-49-40h-4v4h4v-4Zm0 8h-4v4h4v-4Zm-4 8h4v4h-4v-4Zm4 8h-4v4h4v-4Zm-4 8h4v4h-4v-4Zm4 8h-4v4h4v-4Z" fill="#F67E7E"/></svg>