<svg width="200" height="225" viewBox="0 0 200 225" fill="none" xmlns="http://www.w3.org/2000/svg">
<path fill-rule="evenodd" clip-rule="evenodd" d="M200 100.513C200 45.285 155.228 0.513489 100 0.513489C44.7715 0.513489 0 45.285 0 100.513C0 155.742 44.7715 200.513 100 200.513C155.228 200.513 200 155.742 200 100.513ZM133 100.513C133 82.2881 118.225 67.5135 100 67.5135C81.7746 67.5135 67 82.2881 67 100.513C67 118.739 81.7746 133.513 100 133.513C118.225 133.513 133 118.739 133 100.513Z" fill="#012F34"/>
<rect x="43" y="0.51355" width="43" height="43" transform="rotate(90 43 0.51355)" fill="#79C8C7"/>
<path fill-rule="evenodd" clip-rule="evenodd" d="M200 125C200 69.7715 155.228 25 100 25C44.7715 25 0 69.7715 0 125C0 180.228 44.7715 225 100 225C155.228 225 200 180.228 200 125ZM133 125C133 106.775 118.225 92 100 92C81.7746 92 67 106.775 67 125C67 143.225 81.7746 158 100 158C118.225 158 133 143.225 133 125Z" fill="#F67E7E"/>
</svg>
