<svg width="358" height="200" fill="none" xmlns="http://www.w3.org/2000/svg"><circle cx="100" cy="100" r="100" fill="#2C6269"/><path fill-rule="evenodd" clip-rule="evenodd" d="M258 200c55.228 0 100-44.772 100-100S313.228 0 258 0 158 44.772 158 100s44.772 100 100 100Zm0-67c18.225 0 33-14.775 33-33s-14.775-33-33-33-33 14.775-33 33 14.775 33 33 33Z" fill="#012F34"/><path fill="#79C8C7" d="M358 43h-43V0h43z"/><path fill-rule="evenodd" clip-rule="evenodd" d="M233.514 200c55.228 0 100-44.772 100-100s-44.772-100-100-100c-55.229 0-100 44.772-100 100s44.771 100 100 100Zm0-67c18.225 0 33-14.775 33-33s-14.775-33-33-33c-18.226 0-33 14.775-33 33s14.774 33 33 33Z" fill="#F67E7E"/><path fill-rule="evenodd" clip-rule="evenodd" d="M100 0H0v4h100V0Zm0 8H0v4h100V8ZM0 16h100v4H0v-4Zm100 8H0v4h100v-4ZM0 32h100v4H0v-4Zm100 8H0v4h100v-4Z" fill="#79C8C7"/></svg>
