<svg width="200" height="244" fill="none" xmlns="http://www.w3.org/2000/svg"><path fill="#2C6269" d="M100 144H0V44h100z"/><path fill-rule="evenodd" clip-rule="evenodd" d="M100 244c55.228 0 100-44.772 100-100S155.228 44 100 44 0 88.772 0 144s44.772 100 100 100Zm0-67c18.225 0 33-14.775 33-33s-14.775-33-33-33-33 14.775-33 33 14.775 33 33 33Z" fill="#014E56"/><path fill-rule="evenodd" clip-rule="evenodd" d="M100 144H0v4h100v-4Zm0 8H0v4h100v-4ZM0 160h100v4H0v-4Zm100 8H0v4h100v-4ZM0 176h100v4H0v-4Zm100 8H0v4h100v-4ZM0 0h4v4H0V0Zm11 0H7v4h4V0Zm0 8H7v4h4V8Zm-4 8h4v4H7v-4Zm4 8H7v4h4v-4Zm-4 8h4v4H7v-4Zm4 8H7v4h4v-4Zm3-40h4v4h-4V0Zm0 8h4v4h-4V8Zm4 8h-4v4h4v-4Zm-4 8h4v4h-4v-4Zm4 8h-4v4h4v-4Zm-4 8h4v4h-4v-4ZM0 8h4v4H0V8Zm21-8h4v4h-4V0Zm0 8h4v4h-4V8Zm4 8h-4v4h4v-4Zm-4 8h4v4h-4v-4Zm4 8h-4v4h4v-4Zm-4 8h4v4h-4v-4ZM0 16h4v4H0v-4ZM28 0h4v4h-4V0Zm0 8h4v4h-4V8Zm4 8h-4v4h4v-4Zm-4 8h4v4h-4v-4Zm4 8h-4v4h4v-4Zm-4 8h4v4h-4v-4ZM0 24h4v4H0v-4ZM35 0h4v4h-4V0Zm0 8h4v4h-4V8Zm4 8h-4v4h4v-4Zm-4 8h4v4h-4v-4Zm4 8h-4v4h4v-4Zm-4 8h4v4h-4v-4ZM0 32h4v4H0v-4ZM42 0h4v4h-4V0Zm0 8h4v4h-4V8Zm4 8h-4v4h4v-4Zm-4 8h4v4h-4v-4Zm4 8h-4v4h4v-4Zm-4 8h4v4h-4v-4ZM0 40h4v4H0v-4ZM49 0h4v4h-4V0Zm0 8h4v4h-4V8Zm4 8h-4v4h4v-4Zm-4 8h4v4h-4v-4Zm4 8h-4v4h4v-4Zm-4 8h4v4h-4v-4Z" fill="#79C8C7"/></svg>