<svg width="72" height="72" fill="none" xmlns="http://www.w3.org/2000/svg"><circle cx="44" cy="44" r="28" fill="#2C6269"/><path fill-rule="evenodd" clip-rule="evenodd" d="M33.906 53.813A2.19 2.19 0 0 1 31.72 56H24.28a2.19 2.19 0 0 1-2.187-2.188v-3.265a23.106 23.106 0 0 1-5.859-2.43l-2.31 2.312a2.19 2.19 0 0 1-3.094 0l-5.26-5.26a2.19 2.19 0 0 1 0-3.093l2.311-2.311a23.106 23.106 0 0 1-2.43-5.859H2.189A2.19 2.19 0 0 1 0 31.72V24.28a2.19 2.19 0 0 1 2.188-2.187h3.258a23.106 23.106 0 0 1 2.426-5.869l-2.3-2.301a2.19 2.19 0 0 1 0-3.093l5.259-5.26a2.19 2.19 0 0 1 3.093 0l2.293 2.294a23.105 23.105 0 0 1 5.877-2.44V2.188A2.19 2.19 0 0 1 24.28 0h7.438a2.19 2.19 0 0 1 2.187 2.188v3.23a23.117 23.117 0 0 1 5.886 2.436l2.284-2.283a2.19 2.19 0 0 1 3.093 0l5.26 5.26a2.19 2.19 0 0 1 0 3.093l-2.284 2.284a23.116 23.116 0 0 1 2.437 5.886h3.23A2.19 2.19 0 0 1 56 24.28v7.438a2.19 2.19 0 0 1-2.188 2.187h-3.237a23.124 23.124 0 0 1-2.44 5.877l2.293 2.293a2.19 2.19 0 0 1 0 3.093l-5.259 5.26a2.19 2.19 0 0 1-3.093 0l-2.301-2.301a23.117 23.117 0 0 1-5.869 2.426v3.258ZM16.071 45.64c.204 0 .407.056.589.172a20.94 20.94 0 0 0 6.764 2.805c.5.111.857.555.857 1.068v4.127h7.438v-4.12c0-.514.357-.959.858-1.069 2.411-.53 4.69-1.473 6.775-2.801a1.094 1.094 0 0 1 1.361.15l2.91 2.909 5.259-5.26-2.904-2.903a1.094 1.094 0 0 1-.147-1.362 20.954 20.954 0 0 0 2.815-6.78c.11-.502.555-.858 1.068-.858h4.099V24.28H49.72c-.514 0-.958-.357-1.068-.858a20.943 20.943 0 0 0-2.812-6.791 1.094 1.094 0 0 1 .15-1.362l2.892-2.893-5.26-5.259-2.892 2.893c-.362.363-.929.425-1.362.149a20.953 20.953 0 0 0-6.79-2.812 1.093 1.093 0 0 1-.86-1.068V2.187h-7.437v4.1c0 .512-.356.956-.857 1.067a20.953 20.953 0 0 0-6.78 2.815c-.433.277-1 .216-1.363-.148l-2.904-2.903-5.259 5.26 2.91 2.91c.363.362.425.928.149 1.36a20.959 20.959 0 0 0-2.801 6.774c-.11.502-.555.86-1.068.86h-4.12v7.437h4.126c.513 0 .957.356 1.068.857a20.947 20.947 0 0 0 2.805 6.764c.276.433.215 1-.148 1.362l-2.92 2.92 5.258 5.26 2.92-2.92c.212-.212.492-.321.774-.321Zm.637-6.35A15.92 15.92 0 0 0 28 43.962a15.92 15.92 0 0 0 11.292-4.67 15.95 15.95 0 0 0 2.998-18.427 1.094 1.094 0 1 0-1.957.978 13.765 13.765 0 0 1-2.588 15.903A13.735 13.735 0 0 1 28 41.775a13.742 13.742 0 0 1-9.745-4.03c-5.373-5.373-5.373-14.117 0-19.49 4.348-4.347 11.125-5.286 16.481-2.282a1.093 1.093 0 1 0 1.07-1.908 16.079 16.079 0 0 0-9.89-1.898 15.822 15.822 0 0 0-9.208 4.541c-6.226 6.227-6.226 16.357 0 22.584Zm22.05-20.477a1.1 1.1 0 0 1-.775-.321 1.098 1.098 0 0 1 0-1.546c.203-.204.485-.32.774-.32.288 0 .57.116.774.32.203.203.32.485.32.773a1.1 1.1 0 0 1-.32.773 1.1 1.1 0 0 1-.774.32ZM26.455 36.057c-.29 0-.568-.115-.773-.32l-6.917-6.917a1.093 1.093 0 0 1 0-1.547l3.923-3.923a1.093 1.093 0 0 1 1.547 0l2.22 2.22 5.308-5.307a1.094 1.094 0 0 1 1.547 0l3.923 3.923c.427.427.427 1.12 0 1.547L27.23 35.737c-.205.205-.483.32-.774.32Zm-5.37-8.01 5.37 5.37 8.458-8.457-2.377-2.377-5.307 5.308a1.095 1.095 0 0 1-1.547 0l-2.22-2.22-2.377 2.376Z" fill="#79C8C7"/></svg>