<svg width="72" height="72" fill="none" xmlns="http://www.w3.org/2000/svg"><circle cx="44" cy="44" r="28" fill="#2C6269"/><path fill-rule="evenodd" clip-rule="evenodd" d="M14.496 0h14c5.66 0 10.267 4.606 10.267 10.267v4.666a3.737 3.737 0 0 1 3.733 3.734 3.737 3.737 0 0 1-3.733 3.733h-.213a11.184 11.184 0 0 1-5.388 8.701v1.566h2.95a4.522 4.522 0 0 1 4.514 4.726l.122.008c4.216.561 7.348 4.142 7.348 8.332V56h-1.867V45.733a6.553 6.553 0 0 0-5.668-6.475l-.405-.026a4.562 4.562 0 0 1-.28.485l-4.847 7.234V56h-1.867V42.956a9.388 9.388 0 0 1-5.6 1.844 9.39 9.39 0 0 1-5.6-1.843V56h-1.866v-9.05l-4.845-7.23a4.576 4.576 0 0 1-.282-.487l-.467.03c-3.17.426-5.606 3.21-5.606 6.47V56H7.029V45.733c0-4.19 3.132-7.77 7.287-8.326l.182-.012a4.52 4.52 0 0 1 4.514-4.728h2.95V31.13a10.993 10.993 0 0 1-5.372-8.54l-.014-.191h-.213a3.737 3.737 0 0 1-3.734-3.733 3.737 3.737 0 0 1 3.734-3.734V10.57a6.541 6.541 0 0 1-3.734-5.902c0-.516.418-.934.934-.934h.5a3.706 3.706 0 0 1-.5-1.866V.933c0-.515.418-.933.933-.933Zm18.666 35.672v-1.139h2.95c1.461 0 2.65 1.19 2.65 2.66a2.63 2.63 0 0 1-.44 1.488l-3.293 4.916V37.54a.932.932 0 0 0-.933-.934h-.159a.935.935 0 0 1-.775-.933ZM29.513 32.5c.615-.12 1.21-.287 1.783-.5v3.664a2.798 2.798 0 0 0 1.866 2.661v2.123a7.525 7.525 0 0 1-5.6 2.485 7.53 7.53 0 0 1-5.6-2.484v-2.123a2.797 2.797 0 0 0 1.867-2.654v-3.658a10.97 10.97 0 0 0 5.684.486Zm-9.417 5.039v6.057l-3.292-4.913a2.638 2.638 0 0 1-.441-1.5 2.653 2.653 0 0 1 2.65-2.65h2.95v1.146a.934.934 0 0 1-.775.926h-.159a.933.933 0 0 0-.933.934Zm15.033-26.34h1.767v2.862c-.713-.645-1.496-1.605-1.767-2.861Zm-1.9 0c.415 2.842 2.641 4.555 3.669 5.205v3.123l-.196 2.544a9.328 9.328 0 0 1-7.53 8.594c-4.969.882-9.732-2.444-10.615-7.415a9.125 9.125 0 0 1-.107-.81l-.22-2.84v-3.197c1.027-.651 3.251-2.364 3.665-5.203H33.23ZM16.364 16.8h.001l.001 2.872.067.861h-.07a1.869 1.869 0 0 1-1.866-1.866c0-1.03.837-1.867 1.867-1.867Zm3.633-5.6c-.271 1.256-1.054 2.215-1.767 2.86v-2.927c.305.044.617.067.934.067h.833Zm18.767 8.4v-2.8c1.029 0 1.866.837 1.866 1.867s-.837 1.866-1.866 1.866h-.072l.072-.933ZM14.59 5.6a4.675 4.675 0 0 0 4.573 3.733h17.68c-.465-4.194-4.03-7.466-8.347-7.466H15.429c0 1.03.837 1.866 1.867 1.866a.934.934 0 0 1 0 1.867H14.59Zm9.24 12.133a1.867 1.867 0 1 1-3.734 0 1.867 1.867 0 0 1 3.733 0Zm9.333 1.867a1.867 1.867 0 1 0 0-3.734 1.867 1.867 0 0 0 0 3.734Zm-6.089.933 1.355-3.386-1.734-.693-1.866 4.666a.934.934 0 0 0 .867 1.28h2.8v-1.867h-1.422Zm-1.22 3.734a5.414 5.414 0 0 0 3.849-1.594l1.32 1.32a7.27 7.27 0 0 1-5.168 2.14h-.16v-1.866h.16ZM17.297 47.6a.933.933 0 1 1 1.867 0v5.6a.933.933 0 1 1-1.867 0v-5.6Zm18.666 0a.932.932 0 1 1 1.867 0v5.6a.932.932 0 1 1-1.867 0v-5.6Z" fill="#79C8C7"/></svg>